<?xml version="1.0" standalone="no"?>
<!DOCTYPE svg PUBLIC "-//W3C//DTD SVG 1.1//EN" "http://www.w3.org/Graphics/SVG/1.1/DTD/svg11.dtd" >
<svg xmlns="http://www.w3.org/2000/svg" xmlns:xlink="http://www.w3.org/1999/xlink" version="1.1">
<metadata></metadata>
<defs>
<font id="monterey_btregular" horiz-adv-x="1024" >
<font-face units-per-em="2048" ascent="1556" descent="-492" />
<missing-glyph horiz-adv-x="348" />
<glyph horiz-adv-x="0" />
<glyph unicode="&#xd;" horiz-adv-x="348" />
<glyph unicode=" "  horiz-adv-x="348" />
<glyph unicode="&#x09;" horiz-adv-x="348" />
<glyph unicode="&#xa0;" horiz-adv-x="348" />
<glyph unicode="!" horiz-adv-x="537" d="M213 25q0 28 21.5 48.5t50.5 20.5t48 -20t19 -49t-19.5 -49.5t-47.5 -20.5t-50 21t-22 49zM219 637q0 257 19 507q3 36 4 46q2 38 8.5 49.5t21.5 11.5q30 0 55 -13.5t25 -31.5q0 -8 -6 -54q-47 -341 -47 -722q0 -53 2 -117v-18q0 -34 -4.5 -41.5t-15.5 -7.5 q-35 0 -48.5 81.5t-13.5 309.5z" />
<glyph unicode="&#x22;" horiz-adv-x="666" d="M94 1368q0 46 20 70t58 24q37 0 56.5 -24t19.5 -70q0 -6 -1 -15.5l-3 -28.5l-58 -454h-28l-60 453q-2 12 -3 23.5t-1 21.5zM418 1368q0 47 19 70.5t57 23.5q37 0 57 -24.5t20 -69.5q0 -7 -0.5 -15.5t-3.5 -29.5l-59 -453h-29l-57 453q-2 12 -3 23.5t-1 21.5z" />
<glyph unicode="#" horiz-adv-x="1575" d="M129 494l31 79h338l106 304h-368l28 79h369l176 498h94l-174 -498h299l176 498h96l-176 -498h322l-27 -79h-323l-107 -304h348l-28 -79h-348l-175 -494h-96l174 494h-301l-174 -494h-94l174 494h-340zM592 573h301l106 304h-299z" />
<glyph unicode="$" horiz-adv-x="469" d="M51 297q0 42 20.5 77.5t39.5 35.5q4 0 8 -4t4 -9q0 -3 -9 -16q-28 -44 -28 -86q0 -56 41 -92.5t104 -36.5q53 0 85 28.5t32 75.5q0 55 -111 133q-29 20 -44 31q-45 32 -68 71.5t-23 84.5q0 60 35.5 100t97.5 49l1 95q0 17 4.5 24.5t15.5 7.5q10 0 15 -8.5t5 -23.5v-95 q54 -5 90.5 -45.5t36.5 -91.5q0 -14 -4 -20.5t-12 -6.5q-12 1 -15 24q-2 13 -3 19q-11 38 -40.5 62.5t-64.5 24.5q-43 0 -71.5 -26.5t-28.5 -66.5q0 -27 15 -49.5t67 -60.5q11 -9 32 -24q136 -100 136 -185q0 -55 -39 -96.5t-107 -57.5v-67q0 -17 -5 -25t-15 -8q-11 0 -16 8 t-5 25v63q-84 8 -130 50.5t-46 111.5z" />
<glyph unicode="%" horiz-adv-x="807" d="M4 805q0 102 42.5 167.5t103.5 65.5q11 0 14.5 -2t3.5 -6q0 -11 -20 -19q-10 -4 -14 -7q-29 -21 -41.5 -69t-12.5 -134q0 -101 20.5 -145t67.5 -44q37 0 59 34.5t27 100.5q-51 10 -79 55t-28 120q0 53 15 78.5t47 25.5q41 0 63.5 -55t22.5 -156v-34q41 5 96 41t137 112 q24 22 60 57q59 60 82 60q14 0 28.5 -10.5t14.5 -22.5q0 -4 -2.5 -10.5t-5.5 -11.5l-509 -1003q-7 -16 -13.5 -23t-14.5 -7q-14 0 -25.5 12t-11.5 27q0 6 2.5 14t9.5 22l465 923q-111 -108 -185 -157.5t-130 -54.5q-10 -87 -44 -130.5t-93 -43.5q-69 0 -110.5 62.5 t-41.5 167.5zM182 938q0 -70 20 -111.5t56 -47.5q1 8 1.5 19t0.5 31q0 74 -14.5 119t-36.5 45q-13 0 -20 -14.5t-7 -40.5zM455 174q0 96 36.5 172t71.5 76q2 0 5.5 -1l10.5 -3q11 11 23 15.5t27 4.5q60 0 96.5 -58.5t36.5 -156.5q0 -114 -44 -185t-112 -71 q-66 0 -108.5 57.5t-42.5 149.5zM532 170q0 -83 20 -123.5t60 -40.5q48 0 78.5 62.5t30.5 164.5q0 78 -26 124t-68 46q-26 0 -47 -29t-21 -69q0 -26 12.5 -52t12.5 -30q0 -6 -5.5 -11t-11.5 -5t-13 7.5t-17 29.5q-1 -20 -3 -45.5t-2 -28.5z" />
<glyph unicode="&#x26;" horiz-adv-x="1346" d="M143 287q0 117 65.5 215.5t203.5 187.5q-31 59 -46.5 117.5t-15.5 118.5q0 152 87.5 252t217.5 100q93 0 150 -59.5t57 -155.5q0 -105 -82 -206t-256 -210q63 -123 150 -223.5t196 -177.5q34 31 64.5 77t56.5 105l-180 4q-12 0 -17 3.5t-6 13.5q1 8 7 12t16 4h449 q15 0 21.5 -4t6.5 -12q0 -7 -9 -13t-19 -6h-224q-15 -46 -46 -100t-77 -115q42 -35 98 -73t56 -50q0 -4 -4.5 -8t-9.5 -4q-11 0 -44 20t-122 80q-93 -99 -201.5 -152t-218.5 -53q-142 0 -233 87.5t-91 224.5zM197 244q0 -97 68 -158t175 -61q98 0 202 50.5t198 143.5 q-115 84 -211 181t-172 208q-125 -73 -192.5 -168t-67.5 -196zM432 950q0 -51 13 -106.5t38 -114.5q166 96 248 187t82 180q0 64 -43 106.5t-108 42.5q-97 0 -163.5 -84.5t-66.5 -210.5z" />
<glyph unicode="'" horiz-adv-x="342" d="M94 1368q0 47 19 70.5t57 23.5q37 0 57.5 -24.5t20.5 -69.5q0 -6 -1 -15.5l-3 -28.5l-60 -454h-28l-60 454q-1 6 -1.5 15t-0.5 29z" />
<glyph unicode="(" horiz-adv-x="555" d="M160 492q0 203 52.5 376t170.5 357q47 72 72.5 102.5t38.5 30.5q7 0 10.5 -4.5t3.5 -14.5q0 -7 -39 -65t-63 -113q-69 -151 -104.5 -335.5t-35.5 -391.5q0 -150 26.5 -288t78.5 -263q12 -27 31.5 -64t19.5 -46q0 -6 -3.5 -9t-10.5 -4q-12 0 -27.5 17.5t-36.5 54.5 q-93 165 -138.5 328t-45.5 332z" />
<glyph unicode=")" horiz-adv-x="555" d="M33 -223q0 8 37.5 65.5t62.5 112.5q69 153 105 338.5t36 390.5q0 150 -26 287t-78 262q-14 32 -33.5 67.5t-19.5 40.5q0 7 4 11t10 4q12 0 29 -18.5t37 -53.5q92 -162 138 -326t46 -333q0 -204 -52.5 -376.5t-170.5 -357.5q-46 -70 -72 -100.5t-41 -30.5q-7 0 -9.5 3.5 t-2.5 13.5z" />
<glyph unicode="*" horiz-adv-x="786" d="M137 965q0 17 14 28.5t66 28.5l172 57l-160 84q-40 21 -54.5 34.5t-14.5 29.5q0 15 11 27t26 12q12 0 28.5 -10.5t42.5 -34.5l133 -121l-6 184v21q0 43 9.5 59t33.5 16q17 0 27 -12t10 -33q0 -7 -2.5 -20.5t-7.5 -36.5l-37 -180l151 96q4 2 12 7q42 26 60 26 q14 0 25.5 -12t11.5 -27q0 -17 -13.5 -28t-66.5 -30l-170 -55l158 -86l4 -2q66 -38 66 -61q0 -15 -12.5 -27t-26.5 -12q-19 0 -56 33q-9 8 -13 11l-136 118l8 -181v-16q0 -43 -9.5 -61.5t-31.5 -18.5q-20 0 -29.5 11t-9.5 34q0 14 6 46q2 8 2 11l39 181l-152 -97l-5 -3 q-49 -29 -68 -29q-14 0 -24.5 11.5t-10.5 27.5z" />
<glyph unicode="+" horiz-adv-x="1706" d="M254 569v82h559v570h80v-570h559v-82h-559v-569h-80v569h-559z" />
<glyph unicode="," horiz-adv-x="342" d="M92 37q0 30 21 49.5t53 19.5q36 0 60 -26.5t24 -67.5q0 -50 -38 -95.5t-71 -45.5q-8 0 -13 3t-5 9q0 3 30.5 28t30.5 60v8q-8 -2 -16.5 -4t-13.5 -2q-28 0 -45 18t-17 46z" />
<glyph unicode="-" horiz-adv-x="592" d="M147 276q1 2 1.5 4t1.5 5l4 19q3 12 8 15.5t22 4.5h285q10 0 15 -3.5t5 -11.5v-4l-2 -23q-1 -10 -6 -14t-18 -4h-295q-11 0 -15.5 3t-5.5 9z" />
<glyph unicode="." horiz-adv-x="342" d="M98 41q0 29 21 49.5t49 20.5q29 0 48.5 -20.5t19.5 -49.5q0 -28 -19.5 -48t-48.5 -20q-28 0 -49 20.5t-21 47.5z" />
<glyph unicode="/" horiz-adv-x="569" d="M-158 -158q0 2 3.5 9.5t4.5 10.5l742 1404q5 10 10.5 14t11.5 4q5 0 8 -0.5t5 -1.5l24 -14q4 -3 7.5 -7t3.5 -8l-4 -8l-5 -10l-751 -1415q-4 -6 -7.5 -8t-9.5 -2q-5 0 -7 0.5t-3 1.5l-25 14q-3 2 -5.5 7t-2.5 9z" />
<glyph unicode="0" horiz-adv-x="682" d="M47 422q0 117 35 224t96 181q32 39 46.5 52.5t23.5 13.5q4 -1 7 -4.5t3 -7.5q0 -7 -19.5 -35t-29.5 -53q-29 -66 -43 -162t-14 -225q0 -197 50.5 -304.5t143.5 -107.5q95 0 147 118.5t52 336.5q0 198 -49 309.5t-134 111.5q-34 0 -55.5 -24t-25.5 -67q-2 -11 -3 -26 q-2 -26 -10 -26q-13 0 -21.5 11.5t-8.5 29.5q0 55 40 94t99 39q106 0 182 -128t76 -318q0 -218 -82.5 -356t-206.5 -138q-128 0 -213.5 131t-85.5 330z" />
<glyph unicode="1" horiz-adv-x="422" d="M86 575q0 8 35.5 57t62.5 93q30 48 60 109t43 61q14 0 23 -10t9 -25q0 -6 -5 -39q-52 -303 -52 -653v-154q0 -22 -8.5 -34.5t-24.5 -12.5q-29 0 -42 48.5t-13 164.5q0 134 8 257.5t25 240.5q-52 -78 -72 -99.5t-35 -21.5q-6 0 -10 5t-4 13z" />
<glyph unicode="2" horiz-adv-x="659" d="M37 41q0 42 46 70t118 28q15 0 32.5 -1.5t37.5 -3.5q91 139 142.5 287.5t51.5 270.5q0 92 -31 136t-96 44q-75 0 -143 -88t-68 -194q0 -73 67 -108q17 -8 17 -13q0 -8 -6.5 -13t-18.5 -5q-48 0 -78 38.5t-30 102.5q0 116 90 219.5t190 103.5q90 0 147.5 -73.5 t57.5 -190.5q0 -110 -61.5 -246.5t-179.5 -285.5q35 -17 94 -49q124 -66 182 -66q5 0 14.5 1t14.5 1q7 0 12.5 -4t5.5 -10q0 -15 -29.5 -27t-70.5 -12q-48 0 -103.5 20.5t-173.5 87.5q-44 -41 -83.5 -60t-78.5 -19q-33 0 -51 15.5t-18 43.5zM74 45q0 -12 12 -19.5t33 -7.5 q26 0 55 17.5t51 46.5q-16 7 -33 10.5t-38 3.5q-32 0 -56 -15.5t-24 -35.5z" />
<glyph unicode="3" horiz-adv-x="694" d="M27 188q0 22 6.5 33.5t19.5 11.5q17 0 21 -39q1 -10 2 -16q9 -82 63 -128t142 -46q95 0 156 64t61 163q0 65 -26 114t-75 77q-32 -25 -64.5 -39t-58.5 -14q-30 0 -47.5 15.5t-17.5 41.5q0 28 25 45.5t67 17.5q15 0 36.5 -3t51.5 -9q39 37 59.5 89.5t20.5 113.5 q0 80 -43 130t-111 50q-67 0 -111 -45.5t-44 -116.5q0 -45 18 -90q4 -10 4 -12q0 -6 -4 -10t-12 -4q-20 0 -35.5 33.5t-15.5 80.5q0 88 62 144.5t159 56.5q102 0 168.5 -60.5t66.5 -152.5q0 -57 -32.5 -114t-98.5 -111q85 -40 127.5 -96.5t42.5 -126.5q0 -109 -90 -190 t-215 -81q-127 0 -202.5 61t-75.5 162zM252 428q0 -11 7 -16.5t20 -5.5q16 0 32.5 8t36.5 26q-12 7 -26.5 11t-28.5 4q-20 0 -30.5 -7t-10.5 -20z" />
<glyph unicode="4" horiz-adv-x="633" d="M45 291q0 17 97 128.5t171 217.5q55 76 106.5 168t65.5 92q10 0 14.5 -4.5t4.5 -13.5q0 -7 -5 -50q-31 -259 -36 -532h80q16 0 25.5 -5t9.5 -13q0 -13 -9 -18t-32 -5h-76q-1 -13 -1.5 -32t-0.5 -66q0 -35 2 -80.5t2 -57.5q0 -27 -6.5 -36t-24.5 -9q-32 0 -44.5 49 t-14.5 232h-279q-28 0 -38.5 8t-10.5 27zM94 297h278q4 111 12 212t22 189q-57 -90 -136 -192t-176 -209z" />
<glyph unicode="5" horiz-adv-x="682" d="M29 156q0 62 40 114t78 52q6 -1 10.5 -6t4.5 -11q-1 -6 -18 -21q-64 -59 -64 -130q0 -68 53 -113t133 -45q111 0 180.5 86t69.5 225q0 107 -54 168.5t-147 61.5q-52 0 -107.5 -25t-62.5 -25q-11 0 -16.5 11t-5.5 32q0 5 1 13t1 12l25 277q3 37 12 49t28 12q11 0 73 -9.5 t114 -9.5q93 0 179 27q13 4 15 4q7 0 11 -4t4 -10q0 -30 -65.5 -63t-147.5 -33q-39 0 -80.5 8.5t-87.5 25.5l-23 -284q40 16 81 24.5t81 8.5q119 0 196.5 -78.5t77.5 -198.5q0 -145 -102 -243.5t-252 -98.5q-105 0 -170 55t-65 142z" />
<glyph unicode="6" horiz-adv-x="682" d="M74 371q0 223 109.5 374.5t262.5 151.5q41 0 71 -11.5t30 -25.5q0 -7 -4.5 -11.5t-12.5 -4.5q-4 0 -30 9t-47 9q-118 0 -191 -112t-84 -310q54 57 111.5 85t120.5 28q100 0 168.5 -74t68.5 -182q0 -139 -83.5 -235.5t-198.5 -96.5q-133 0 -212 110t-79 296zM174 319 q0 -147 48.5 -235t127.5 -88q85 0 140 83t55 214q0 103 -43.5 163t-116.5 60q-50 0 -108 -37.5t-101 -99.5q-1 -16 -1.5 -30.5t-0.5 -29.5z" />
<glyph unicode="7" horiz-adv-x="526" d="M8 776q0 27 67.5 73t137.5 46q34 0 114 -16.5t126 -16.5q41 0 83 10q10 2 13 2q10 0 14 -3.5t4 -12.5q0 -8 -10 -26t-45 -70q-85 -125 -145.5 -232t-87.5 -180q-45 -118 -74 -251.5t-62 -133.5q-20 0 -34.5 21.5t-14.5 54.5q0 100 110 316t296 466q-39 -21 -77.5 -31 t-80.5 -10q-44 0 -108 14.5t-84 14.5q-45 0 -84 -26.5t-43 -26.5q-7 0 -11 5t-4 13z" />
<glyph unicode="8" horiz-adv-x="682" d="M47 207q0 73 46 136.5t151 133.5q-61 37 -92 88t-31 115q0 96 66 160.5t165 64.5q89 0 144.5 -53.5t58.5 -142.5q14 13 33 35q23 26 30 26q8 0 12.5 -4.5t4.5 -11.5q0 -24 -75 -94t-187 -144q133 -62 190.5 -129.5t57.5 -161.5q0 -103 -85 -179.5t-202 -76.5 q-128 0 -207.5 66.5t-79.5 171.5zM127 201q0 -87 57 -145t144 -58q90 0 152.5 60t62.5 145q0 68 -51.5 120.5t-210.5 131.5q-78 -61 -116 -123.5t-38 -130.5zM186 717q0 -56 37 -100t117 -82q52 32 97.5 66.5t82.5 72.5v18q0 79 -46.5 128.5t-119.5 49.5q-67 0 -117.5 -46.5 t-50.5 -106.5z" />
<glyph unicode="9" horiz-adv-x="682" d="M57 567q0 137 85.5 233.5t203.5 96.5q121 0 202 -115.5t81 -296.5q0 -216 -108.5 -368t-254.5 -152q-46 0 -76 11.5t-30 27.5q0 5 3.5 8.5t8.5 3.5q2 0 30.5 -10t55.5 -10q112 0 184.5 118t81.5 318q-51 -60 -110.5 -91.5t-122.5 -31.5q-102 0 -168 72.5t-66 185.5z M158 571q0 -102 44 -161.5t120 -59.5q56 0 107.5 35t94.5 102q0 10 1 28.5t1 27.5q0 153 -46.5 236t-131.5 83q-83 0 -136.5 -81t-53.5 -210z" />
<glyph unicode=":" horiz-adv-x="436" d="M193 41q0 29 20.5 49.5t48.5 20.5q29 0 49.5 -20.5t20.5 -49.5q0 -28 -20.5 -48t-49.5 -20q-28 0 -48.5 20.5t-20.5 47.5zM193 285q0 28 20.5 48.5t48.5 20.5q29 0 49.5 -20t20.5 -49q0 -28 -21 -49t-49 -21t-48.5 21t-20.5 49z" />
<glyph unicode=";" horiz-adv-x="436" d="M186 37q0 29 22 49t54 20q36 0 59 -26.5t23 -67.5q0 -50 -38 -95.5t-70 -45.5q-9 0 -14 3.5t-5 8.5q0 3 32 28t32 60l-1 8l-16 -4t-14 -2q-28 0 -46 18t-18 46zM193 285q0 28 20.5 48.5t48.5 20.5q29 0 49.5 -20t20.5 -49q0 -28 -21 -49t-49 -21t-48.5 21t-20.5 49z" />
<glyph unicode="&#x3c;" horiz-adv-x="1706" d="M264 580v61l1178 483v-90l-1045 -424l1045 -424v-88z" />
<glyph unicode="=" horiz-adv-x="1706" d="M254 387v82h1198v-82h-1198zM254 752v79h1198v-79h-1198z" />
<glyph unicode="&#x3e;" horiz-adv-x="1706" d="M264 98v88l1045 424l-1045 424v90l1178 -483v-61z" />
<glyph unicode="?" horiz-adv-x="883" d="M74 821q0 194 120.5 320.5t305.5 126.5q154 0 258 -96t104 -236q0 -109 -62 -194t-249 -207q-124 -81 -156.5 -125.5t-32.5 -102.5q0 -24 8.5 -57.5t8.5 -40.5q0 -6 -3 -9t-9 -3q-18 0 -29.5 33t-11.5 85q0 69 28.5 117t118.5 113q171 123 229 207t58 186 q0 126 -83.5 210.5t-207.5 84.5q-148 0 -250 -118.5t-102 -295.5q0 -116 65 -195q11 -12 11 -16q0 -5 -5 -8.5t-12 -3.5q-34 0 -68 67.5t-34 157.5zM281 25q0 28 19.5 48.5t47.5 20.5q29 0 49.5 -20t20.5 -49t-20.5 -49.5t-49.5 -20.5q-27 0 -47 21t-20 49z" />
<glyph unicode="@" horiz-adv-x="2019" d="M150 537q0 203 85 378.5t250 313.5q132 109 290.5 165t338.5 56q345 0 551.5 -186.5t206.5 -497.5q0 -156 -58 -295.5t-163 -234.5q-60 -55 -123.5 -83t-128.5 -28q-97 0 -148 55t-57 164q-59 -108 -138.5 -162.5t-178.5 -54.5q-115 0 -188 92t-73 240q0 106 49 214 t136 193q65 65 142 101.5t151 36.5q83 0 139.5 -52t79.5 -149l57 184h121l-168 -604l-2 -6q-18 -68 -18 -103q0 -52 27.5 -81t76.5 -29q48 0 108 29t113 79q96 90 150.5 221.5t54.5 274.5q0 291 -194.5 467t-516.5 176q-175 0 -327 -57.5t-271 -167.5q-137 -128 -206.5 -300 t-69.5 -382q0 -175 55.5 -301t177.5 -232q118 -102 268 -155.5t320 -53.5q173 0 331 53.5t292 155.5l26 -30q-146 -109 -309 -164.5t-340 -55.5q-191 0 -342.5 45.5t-271.5 139.5q-151 115 -228 275t-77 356zM731 381q0 -100 44 -157.5t120 -57.5q67 0 131 45.5t123 134.5 q59 91 93 198.5t34 198.5q0 96 -54.5 162t-131.5 66q-58 0 -104.5 -31t-94.5 -102q-74 -109 -117 -234t-43 -223z" />
<glyph unicode="A" horiz-adv-x="1532" d="M14 289q0 79 54.5 151t91.5 72q10 0 14 -3t4 -9q0 -10 -24 -27q-12 -9 -19 -14q-41 -34 -60.5 -74.5t-19.5 -93.5q0 -87 59 -142t152 -55q128 0 285.5 118t333.5 345h-56q-130 0 -251 -20q-17 -2 -21 -2q-5 0 -9.5 4t-4.5 10q0 17 79 30t197 13q16 0 35.5 -1t56.5 -3 q63 85 111.5 157t91.5 142q51 253 117.5 402t126.5 149q20 0 32.5 -13.5t12.5 -35.5q0 -56 -48.5 -162.5t-144.5 -261.5q-12 -94 -18 -192t-6 -200v-81q92 -69 147.5 -182.5t55.5 -233.5q0 -68 -25.5 -109t-67.5 -41q-91 0 -147.5 152t-65.5 428q-19 11 -48.5 20.5 t-94.5 24.5q-182 -263 -342.5 -392.5t-302.5 -129.5q-122 0 -201.5 74t-79.5 186zM958 582q34 -6 65 -15.5t60 -21.5q0 66 5 130t16 128q-34 -56 -69 -110t-77 -111zM1184 444q8 -252 36 -366.5t80 -114.5q26 0 41 27.5t15 75.5q0 112 -47.5 217.5t-124.5 160.5zM1221 1044 q64 108 102.5 198t38.5 126q0 13 -4 19t-12 6q-26 0 -60 -94.5t-65 -254.5z" />
<glyph unicode="B" horiz-adv-x="1489" d="M51 176q0 64 31.5 128.5t48.5 64.5q5 0 9.5 -4.5t4.5 -8.5q0 -6 -13 -29q-46 -78 -46 -149q0 -92 70.5 -152.5t179.5 -60.5q86 0 156 35t122 104q73 99 137 502q25 160 42 250q21 123 54.5 201t84.5 125q35 32 73.5 53.5t55.5 21.5q7 0 11.5 -4.5t4.5 -11.5 q0 -10 -29 -28.5t-47 -34.5q-45 -44 -76.5 -153t-54.5 -302q27 8 52 12t51 4q18 0 42 -4t56 -12q94 52 142.5 134t48.5 187q0 143 -111.5 227.5t-300.5 84.5q-101 0 -198.5 -26t-184.5 -77q-115 -65 -181.5 -167.5t-66.5 -213.5q0 -102 70.5 -169.5t175.5 -67.5 q64 0 122.5 29.5t59.5 29.5q5 0 10 -4t5 -10q0 -21 -68 -50.5t-139 -29.5q-125 0 -207 80.5t-82 204.5q0 65 26 129t80 133q91 113 244.5 177.5t333.5 64.5q217 0 357.5 -105.5t140.5 -263.5q0 -82 -60 -161t-174 -148q127 -54 190.5 -137t63.5 -193q0 -57 -17.5 -110.5 t-54.5 -106.5q-54 -79 -146.5 -126.5t-193.5 -47.5q-80 0 -146.5 29.5t-66.5 52.5q1 8 6 13t11 5q3 0 17 -9q82 -56 175 -56q143 0 229.5 93.5t86.5 250.5q0 128 -48 206.5t-147 110.5q-46 -24 -85 -35.5t-73 -11.5q-10 0 -22.5 1.5t-27.5 4.5q-40 -353 -176.5 -535 t-360.5 -182q-122 0 -199.5 70t-77.5 178zM866 680q10 -5 22.5 -7.5t29.5 -2.5q23 0 49 7.5t55 22.5q-14 5 -27.5 7t-27.5 2q-38 0 -62 -5.5t-37 -15.5z" />
<glyph unicode="C" horiz-adv-x="1194" d="M68 545q0 159 55.5 319.5t157.5 294.5q81 107 178.5 165t195.5 58q143 0 240.5 -104t97.5 -256q0 -153 -87 -259t-210 -106q-90 0 -142 60.5t-52 165.5q0 87 49.5 168.5t81.5 81.5q6 -1 9 -3.5t3 -7.5q0 -7 -20 -32q-80 -97 -80 -213q0 -84 40 -134.5t105 -50.5 q104 0 178 97t74 235q0 143 -76.5 231t-199.5 88q-80 0 -152 -46t-141 -142q-92 -125 -145.5 -304t-53.5 -364q0 -228 115 -359.5t313 -131.5q156 0 272 82.5t181 238.5q21 50 30.5 114.5t22.5 64.5q8 0 13 -6.5t5 -16.5q0 -50 -20 -118.5t-55 -133.5q-64 -120 -187.5 -192 t-265.5 -72q-244 0 -387 158t-143 430z" />
<glyph unicode="D" horiz-adv-x="1421" d="M-72 150q0 45 43 70.5t119 25.5q61 0 147.5 -30.5t200.5 -92.5q44 50 73.5 117t45.5 151q12 63 31 185q49 308 100 438q33 87 103.5 155t115.5 68q5 0 9 -4t4 -8q0 -12 -21 -22.5t-28 -16.5q-44 -35 -72.5 -96.5t-57.5 -200.5q-15 -75 -38 -214q-75 -443 -218 -573 q90 -49 168 -73.5t150 -24.5q209 0 336 186t127 500q0 335 -148.5 505.5t-437.5 170.5q-117 0 -217 -36.5t-176 -106.5q-73 -67 -113.5 -148t-40.5 -157q0 -110 69 -177t181 -67q61 0 133 23q18 5 23 5q6 0 10 -3.5t4 -8.5q0 -18 -50 -34.5t-116 -16.5q-134 0 -216.5 78.5 t-82.5 206.5q0 71 28 140.5t83 133.5q84 97 214 152t277 55q84 0 162 -17.5t139 -50.5q192 -101 286.5 -271t94.5 -415q0 -150 -41.5 -278t-122.5 -228q-69 -85 -169.5 -131.5t-217.5 -46.5q-88 0 -176.5 26t-193.5 83q-61 -44 -120.5 -64t-125.5 -20q-120 0 -198.5 45.5 t-78.5 112.5zM-31 145q0 -45 67.5 -81.5t160.5 -36.5q61 0 116 17t99 50q-117 61 -196.5 88t-139.5 27q-49 0 -78 -17.5t-29 -46.5z" />
<glyph unicode="E" horiz-adv-x="1208" d="M66 342q0 129 86.5 239.5t248.5 188.5q-69 47 -102 102.5t-33 122.5q0 160 157 271.5t392 111.5q171 0 273 -65t102 -172q0 -97 -86 -167.5t-207 -70.5q-84 0 -154.5 44.5t-70.5 80.5q0 6 5 10t11 4q12 0 30 -22q6 -7 9 -10q37 -41 79 -57.5t105 -16.5q92 0 158 58.5 t66 138.5q0 99 -84.5 154.5t-235.5 55.5q-201 0 -325.5 -102t-124.5 -266q0 -60 22.5 -108t63.5 -74q64 17 123.5 25.5t113.5 8.5q85 0 134.5 -16.5t49.5 -44.5q0 -29 -60 -48.5t-157 -19.5q-49 0 -102.5 12t-112.5 35q-122 -51 -196 -157t-74 -228q0 -165 102.5 -260.5 t280.5 -95.5q106 0 206 35.5t177 99.5q57 50 88 106t31 111q0 65 -40 107.5t-100 42.5q-18 0 -42.5 -6t-30.5 -6q-5 0 -9 4.5t-4 9.5q0 14 24 23.5t62 9.5q80 0 129.5 -50t49.5 -131q0 -157 -165.5 -275t-402.5 -118q-207 0 -333.5 104t-126.5 271zM498 768 q33 -18 79.5 -26.5t114.5 -8.5q59 0 96 9.5t37 23.5q0 12 -35 20.5t-92 8.5q-51 0 -101.5 -7t-98.5 -20z" />
<glyph unicode="F" horiz-adv-x="1262" d="M51 944q0 93 51.5 183t143.5 155q77 56 164 83.5t188 27.5q105 0 242.5 -27.5t333.5 -87.5q67 63 136.5 94t141.5 31q61 0 97 -26t36 -70q0 -56 -70 -92.5t-182 -36.5q-32 0 -64.5 3t-66.5 9q-52 -78 -84.5 -228t-46.5 -376l158 2q20 0 29.5 -5.5t9.5 -17.5q0 -10 -9 -14 t-30 -4h-162q-34 -270 -171.5 -430t-332.5 -160q-139 0 -226 74t-87 190q0 67 34.5 126t63.5 59q4 0 7 -4t3 -9q0 -1 -33.5 -54t-33.5 -116q0 -101 74.5 -166t191.5 -65q169 0 271.5 141.5t129.5 413.5h-473q-16 0 -24 4.5t-8 13.5q0 7 7.5 12t25.5 9h475q18 220 57 374 t98 244q-267 64 -374 83.5t-169 19.5q-215 0 -348 -99.5t-133 -257.5q0 -111 72.5 -179.5t189.5 -68.5q94 0 178 38.5t144 109.5q11 14 28 37q29 39 41 39q6 0 10.5 -5t4.5 -12q0 -11 -19.5 -38t-50.5 -60q-69 -69 -157.5 -107t-180.5 -38q-133 0 -217 77.5t-84 200.5z M1241 1262q74 -18 120.5 -25.5t74.5 -7.5q50 0 80 21t30 55q0 29 -26.5 46t-71.5 17q-61 0 -112.5 -26.5t-94.5 -79.5z" />
<glyph unicode="G" horiz-adv-x="1223" d="M113 473q0 140 53.5 283.5t155.5 275.5q143 186 306 281.5t337 95.5q140 0 223.5 -73t83.5 -195q0 -84 -44.5 -159.5t-125.5 -127.5q-20 -99 -53.5 -185.5t-81.5 -164.5q0 -12 1 -36t1 -36q0 -84 -5.5 -177.5t-17.5 -199.5h49h60q14 0 21 -4.5t7 -13.5q0 -19 -85 -21 q-36 -1 -58 -2q-33 -234 -156.5 -372t-298.5 -138q-96 0 -152.5 50t-56.5 135q0 139 157 234t439 126q1 55 4 168.5t3 163.5q-109 -157 -220 -235t-223 -78q-144 0 -233.5 111.5t-89.5 293.5zM193 393q0 -131 67.5 -210t179.5 -79q106 0 215.5 85.5t220.5 254.5 q5 94 17 175.5t31 156.5q-26 -6 -54 -9t-57 -3q-79 0 -137 18.5t-58 40.5q1 6 6.5 10.5t10.5 4.5t25 -9q77 -32 157 -32q29 0 58 4t57 12q33 97 64.5 142.5t66.5 45.5q22 0 33.5 -19t11.5 -56q0 -4 -1 -14t-1 -15q60 41 93.5 106.5t33.5 139.5q0 104 -71 167.5t-187 63.5 q-117 0 -217.5 -46t-198.5 -144q-69 -71 -127.5 -152.5t-109.5 -179.5q-62 -117 -95.5 -236.5t-33.5 -222.5zM328 -319q0 -68 43 -106t121 -38q155 0 261 130.5t117 342.5q-242 -24 -392 -117t-150 -212zM969 580q32 65 54 127.5t34 119.5q-19 -10 -34.5 -18t-31.5 -14 q-11 -57 -16.5 -110.5t-5.5 -104.5zM1002 838q14 5 29.5 13.5t32.5 20.5q4 16 5.5 29.5t1.5 26.5q0 22 -3 29.5t-11 7.5q-14 0 -28 -32t-27 -95z" />
<glyph unicode="H" horiz-adv-x="1671" d="M39 1087q0 125 108 211t267 86q74 0 291 -43t362 -43h10q58 66 114 105t91 39q23 0 36 -13t13 -36q0 -50 -58 -86t-159 -50q-56 -77 -89.5 -215.5t-49.5 -365.5q117 3 216 29t185 75q51 282 122 438t147 156q30 0 46.5 -25t16.5 -71q0 -98 -67 -233t-183 -263 q-12 -87 -18 -174.5t-6 -175.5q0 -274 102 -499q12 -27 12 -31q0 -5 -2.5 -6.5t-9.5 -1.5q-56 0 -122 172.5t-66 390.5q0 52 4.5 117t13.5 143q-72 -40 -167 -63t-228 -33q-21 -321 -148.5 -494.5t-341.5 -173.5q-127 0 -204.5 71.5t-77.5 188.5q0 180 180 303t493 156 q15 193 57 335.5t115 243.5q-26 -2 -55 -3t-80 -1q-105 0 -286.5 16.5t-255.5 16.5q-144 0 -217.5 -49.5t-73.5 -145.5q0 -94 74.5 -156.5t189.5 -62.5q130 0 274 99q27 18 31 18q10 0 14 -2t5 -8q0 -13 -11 -24.5t-47 -33.5q-70 -42 -138 -64t-132 -22q-128 0 -212.5 74 t-84.5 184zM238 213q0 -103 66 -163t179 -60q184 0 277 149.5t108 474.5q-304 -30 -467 -133.5t-163 -267.5zM1143 1305q63 10 106 34.5t43 46.5q0 6 -5.5 11.5t-10.5 5.5q-22 0 -58.5 -27t-74.5 -71zM1470 856q92 112 145.5 227.5t53.5 194.5q0 25 -7.5 39t-21.5 14 q-39 0 -84 -125t-86 -350z" />
<glyph unicode="I" horiz-adv-x="1139" d="M49 328q0 155 98 258.5t244 103.5q59 0 103.5 -15t44.5 -32q0 -5 -3 -8.5t-8 -3.5q-7 0 -51.5 13t-83.5 13q-126 0 -210.5 -93.5t-84.5 -235.5q0 -148 98.5 -242t252.5 -94q207 0 322.5 172.5t158.5 552.5q3 29 9 89q37 365 124 519q-104 -57 -326 -78q-105 -10 -155 -20 q-99 -20 -159.5 -92t-60.5 -170q0 -102 66.5 -168t167.5 -66q104 0 197 78q19 16 24 16q7 0 10.5 -3t3.5 -9q0 -30 -77.5 -72.5t-159.5 -42.5q-118 0 -195 75.5t-77 191.5q0 59 20 114.5t59 104.5q66 80 149 116t236 43q18 1 57 2q152 1 247 37q26 10 53 29t33 19 q7 -1 10.5 -4.5t3.5 -8.5q0 -7 -22 -30q-98 -108 -124 -254q-9 -58 -13.5 -124.5t-4.5 -197.5v-18q0 -118 -4 -173t-12 -100q-52 -271 -198.5 -417t-367.5 -146q-170 0 -282.5 105.5t-112.5 265.5z" />
<glyph unicode="J" horiz-adv-x="1143" d="M121 557q0 198 122.5 363.5t329.5 246.5q102 40 285.5 79t253.5 61q46 76 90 115.5t82 39.5q22 0 35.5 -12.5t13.5 -32.5q0 -33 -46 -67t-142 -72q-69 -138 -115.5 -370t-79.5 -601q33 6 56 9t34 3t18 -4.5t7 -11.5q0 -15 -55 -24q-40 -7 -66 -13q-50 -366 -183 -556.5 t-339 -190.5q-100 0 -161.5 57.5t-61.5 151.5q0 167 169.5 314.5t469.5 238.5q36 328 97.5 569.5t151.5 413.5l-52 -14q-343 -91 -435 -142q-188 -103 -297.5 -267t-109.5 -337q0 -125 65.5 -199t175.5 -74q107 0 188.5 62t133.5 182q10 25 22 64q13 44 29 45q5 0 8.5 -6.5 t3.5 -16.5q0 -16 -13 -56t-34 -81q-56 -110 -144 -169.5t-196 -59.5q-137 0 -224 100.5t-87 261.5zM236 -260q0 -86 51.5 -137.5t138.5 -51.5q165 0 273 182.5t135 508.5q-267 -76 -432.5 -218t-165.5 -284zM1169 1327q57 18 90 41.5t33 46.5q0 6 -5 10.5t-13 4.5 q-22 0 -52 -28.5t-53 -74.5z" />
<glyph unicode="K" horiz-adv-x="1671" d="M12 1012q0 151 118 256.5t292 105.5q82 0 239 -39t234 -39q130 0 246 73q25 15 30 15q8 0 11.5 -3t3.5 -11q0 -9 -49.5 -51t-77.5 -90q-39 -66 -63.5 -168.5t-47.5 -337.5q23 -7 47.5 -18t51.5 -27q133 68 298 343q35 59 54 89q79 126 160 203.5t127 77.5q9 0 15.5 -5.5 t6.5 -13.5q0 -1 -56 -50t-102 -118q-22 -33 -66 -106q-197 -321 -403 -445q60 -47 124.5 -134t123.5 -200q19 -35 51 -98q65 -128 93 -155q44 -45 89.5 -63.5t108.5 -18.5q16 0 33 2t20 2q7 0 13 -6.5t6 -12.5q0 -14 -30.5 -21t-94.5 -7q-113 0 -186.5 51.5t-139.5 177.5 q-33 65 -88 180q-110 230 -170 279q-24 -11 -47.5 -17.5t-48.5 -9.5q-37 -309 -174 -478t-346 -169q-124 0 -206.5 72.5t-82.5 181.5q0 75 39 143t68 68q6 -1 8.5 -4t3.5 -10q0 -6 -16 -27q-64 -84 -64 -166q0 -99 72 -160t190 -61q176 0 281.5 155.5t128.5 450.5 q-34 0 -58 19t-24 45q0 30 23.5 46.5t69.5 18.5q14 208 62 346.5t138 224.5q-49 -14 -92.5 -21t-84.5 -7q-58 0 -188.5 16.5t-202.5 16.5q-179 0 -294 -86.5t-115 -217.5q0 -100 68.5 -159.5t185.5 -59.5q98 0 200 47q22 11 27 11q8 -1 12 -4.5t4 -10.5q0 -25 -78 -52.5 t-171 -27.5q-141 0 -225.5 73.5t-84.5 195.5zM793 664q0 -15 13 -24t35 -9q3 25 4.5 39t2.5 26q-31 -5 -43 -12.5t-12 -19.5zM941 633q25 4 42 9t31 13q-17 11 -33.5 18.5t-34.5 12.5q-2 -14 -3.5 -26.5t-1.5 -26.5z" />
<glyph unicode="L" horiz-adv-x="1417" d="M49 995q0 160 138.5 274.5t334.5 114.5q77 0 130 -13.5t53 -31.5q0 -5 -5 -9.5t-12 -4.5q-1 0 -53.5 11.5t-104.5 11.5q-175 0 -284 -101.5t-109 -263.5q0 -125 97.5 -198.5t263.5 -73.5q95 0 209 26.5t241 77.5q35 282 158.5 459.5t271.5 177.5q55 0 86 -32.5t31 -90.5 q0 -120 -119 -261t-319 -253q-15 -233 -60.5 -392.5t-126.5 -262.5q212 -144 345.5 -198t259.5 -54q10 0 23 1t18 1q10 0 17 -5t7 -11q0 -15 -22.5 -21t-75.5 -6q-148 0 -293.5 53t-335.5 178q-68 -63 -160 -96t-202 -33q-141 0 -225.5 51.5t-84.5 135.5q0 75 70.5 127.5 t173.5 52.5q99 0 203 -34.5t223 -106.5q49 66 79 194.5t52 380.5q-132 -50 -250 -75t-217 -25q-194 0 -310 89t-116 236zM184 154q0 -69 69 -108.5t191 -39.5q100 0 178.5 31t133.5 92q-124 72 -222 106.5t-176 34.5q-79 0 -126.5 -32t-47.5 -84zM1059 864q169 101 279 242 t110 240q0 34 -18 52.5t-52 18.5q-114 0 -203 -151t-116 -402z" />
<glyph unicode="M" horiz-adv-x="1907" d="M29 332q0 157 99 261.5t247 104.5q47 0 77.5 -9.5t30.5 -22.5q0 -7 -4 -10.5t-12 -4.5q-2 0 -13 3q-47 12 -94 12q-121 0 -206.5 -96.5t-85.5 -235.5q0 -130 76 -211.5t196 -81.5q194 0 369.5 194.5t380.5 643.5q-19 80 -28 145t-9 117q0 118 40 193t99 75q38 0 57 -25 t19 -75q0 -49 -24 -134.5t-75 -218.5q16 -57 47 -163q57 -190 70 -269q182 405 365.5 678t251.5 273q10 0 17 -7t7 -18q0 -6 -31 -59t-53 -105q-71 -169 -112 -392.5t-41 -449.5q0 -138 16.5 -243t52.5 -191q17 -39 43.5 -83t26.5 -52q0 -5 -4 -8.5t-8 -3.5 q-62 0 -133.5 189t-71.5 433q0 231 55.5 455t165.5 436q-126 -130 -262 -366.5t-270 -558.5q5 -63 7.5 -103t2.5 -67q0 -107 -24.5 -169.5t-63.5 -62.5q-22 0 -37 20t-15 52q0 45 17 116.5t47 155.5q-19 82 -78 269q-32 102 -49 157q-173 -431 -348.5 -633t-376.5 -202 q-160 0 -257 95.5t-97 252.5zM1124 1212q0 -35 6.5 -81t20.5 -113q35 92 54.5 169.5t19.5 125.5q0 27 -10.5 44t-26.5 17q-29 0 -46.5 -43.5t-17.5 -118.5zM1208 129q0 -17 5.5 -28t13.5 -11q18 0 31.5 37.5t13.5 93.5q0 22 -11 73q-5 23 -8 35q-21 -59 -33 -111t-12 -89z " />
<glyph unicode="N" horiz-adv-x="1511" d="M16 272q0 60 21.5 114.5t71.5 117.5q26 34 46 51.5t31 17.5q6 0 8 -2.5t3 -9.5q0 -9 -18 -25q-15 -14 -23 -24q-58 -68 -81.5 -124t-23.5 -120q0 -113 73.5 -187.5t184.5 -74.5q189 0 362 222t318 650l-2 10q-61 263 -61 361q0 85 19.5 125.5t60.5 40.5q40 0 59.5 -48 t19.5 -144q0 -37 -6 -94.5t-18 -131.5q132 -425 174 -567t53 -192q43 533 196.5 850t360.5 317q31 0 49.5 -6t18.5 -17q0 -3 -4 -6.5t-8 -3.5q-6 0 -20.5 2t-22.5 2q-136 0 -265 -206.5t-209 -557.5q-43 -196 -61.5 -397t-28.5 -201q-16 0 -26 44q-4 16 -6 25 q-44 180 -169 510q-57 150 -83 224q-140 -433 -308 -647.5t-368 -214.5q-135 0 -226.5 91t-91.5 226zM977 1329q0 -36 15.5 -107t43.5 -165q9 39 13 81.5t4 94.5q0 63 -13 99t-34 36q-10 0 -19.5 -12t-9.5 -27z" />
<glyph unicode="O" horiz-adv-x="1126" d="M66 588q0 249 94 439.5t280 315.5q38 25 97.5 45.5t80.5 20.5q7 0 10.5 -3t4.5 -9q0 -9 -59 -36.5t-101 -62.5q-156 -127 -228.5 -309t-72.5 -448q0 -254 101.5 -400.5t273.5 -146.5q193 0 311.5 211.5t118.5 564.5q0 218 -78 347.5t-207 129.5q-158 0 -260 -142.5 t-102 -369.5q0 -84 18.5 -145.5t59.5 -114.5q8 -11 29.5 -29t21.5 -28q0 -5 -4 -8.5t-9 -3.5q-51 0 -111.5 106.5t-60.5 243.5q0 229 119.5 378.5t300.5 149.5q167 0 266 -148t99 -401q0 -350 -143 -565t-373 -215q-95 0 -186 46t-152 126q-72 91 -105.5 203t-33.5 258z" />
<glyph unicode="P" horiz-adv-x="1399" d="M84 872q0 91 42.5 179t121.5 159q107 97 246.5 146t308.5 49q324 0 523.5 -133t199.5 -344q0 -200 -142 -314t-391 -114h-37q-38 -268 -155 -406.5t-305 -138.5q-148 0 -240 77.5t-92 198.5q0 68 38 126.5t68 58.5q7 0 12 -4.5t5 -10.5t-19 -24q-65 -66 -65 -141 q0 -105 76 -173.5t194 -68.5q90 0 163.5 40t121.5 116q63 99 107 451q17 136 28 210q27 184 107 321.5t130 137.5q8 0 12.5 -4.5t4.5 -12.5q0 -4 -17 -24q-71 -81 -100 -182q-28 -98 -51 -337q-11 -116 -18 -177l20 -1q204 0 323 106.5t119 287.5q0 192 -169 318t-433 126 q-287 0 -476 -143.5t-189 -356.5q0 -129 77 -207.5t203 -78.5q96 0 198 60q22 13 28 13q7 0 11.5 -4t4.5 -10q0 -25 -82 -59.5t-174 -34.5q-148 0 -243 91t-95 232z" />
<glyph unicode="Q" horiz-adv-x="1366" d="M-12 45q0 68 79 113t205 45q92 0 189.5 -18t204.5 -54q209 156 329.5 376t120.5 441q0 190 -98 304t-260 114q-83 0 -159.5 -31t-139.5 -90q-103 -95 -158 -219t-55 -260q0 -203 120 -331t306 -128q20 0 41 2t22 2q19 0 25 -3.5t6 -12.5q0 -14 -25 -20.5t-77 -6.5 q-215 0 -345.5 132.5t-130.5 349.5q0 85 25.5 172t77.5 180q84 147 212 227t277 80q199 0 319 -128.5t120 -344.5q0 -217 -132 -438t-364 -389q284 -141 416.5 -185.5t230.5 -44.5q66 0 133 16.5t70 16.5q8 0 13 -4t5 -10q0 -21 -87 -44.5t-191 -23.5q-127 0 -290.5 54 t-395.5 173q-129 -59 -246 -89.5t-213 -30.5q-88 0 -134 27.5t-46 80.5zM33 49q0 -35 38 -54.5t107 -19.5q93 0 194.5 27.5t202.5 79.5q-86 40 -165.5 60t-153.5 20q-94 0 -158.5 -33.5t-64.5 -79.5z" />
<glyph unicode="R" horiz-adv-x="1616" d="M61 217q0 72 28 133.5t50 61.5q6 -1 9 -4.5t4 -10.5q-1 -5 -11 -23q-45 -78 -45 -151q0 -98 67.5 -158.5t176.5 -60.5q178 0 283.5 137.5t117.5 384.5q-47 2 -71.5 16.5t-24.5 41.5t28 47.5t77 25.5q13 269 93 462.5t148 193.5q4 0 7 -3.5t3 -6.5t-36 -57t-54 -116 q-22 -79 -36 -190.5t-23 -275.5q31 -2 66.5 -12.5t72.5 -28.5q158 51 249 161.5t91 249.5q0 156 -125 249t-336 93q-134 0 -258 -37t-217 -104q-100 -72 -153.5 -167.5t-53.5 -201.5q0 -115 66.5 -183.5t177.5 -68.5q90 0 189 55q24 13 28 13q7 0 12 -4t5 -10q0 -23 -78 -58 t-162 -35q-131 0 -213 82t-82 213q0 97 49.5 189.5t143.5 169.5q105 86 242.5 132t293.5 46q254 0 414 -114t160 -292q0 -128 -105 -235.5t-295 -171.5q92 -72 235 -292q39 -60 60 -91q112 -166 174.5 -212t143.5 -46q25 0 61.5 8t48.5 8q8 0 12 -2.5t5 -7.5 q0 -18 -42.5 -29.5t-113.5 -11.5q-101 0 -184.5 56.5t-200.5 215.5q-51 71 -145 207.5t-132 171.5q-41 -14 -68 -21t-48 -9q-18 -261 -156 -417.5t-346 -156.5q-125 0 -201 69.5t-76 182.5zM678 586q0 -14 12 -21.5t35 -7.5h16l4 68q-31 -5 -49 -15.5t-18 -23.5zM842 570 q25 3 47.5 9.5t44.5 16.5q-20 18 -39.5 26.5t-40.5 8.5h-6z" />
<glyph unicode="S" horiz-adv-x="1341" d="M-18 -6q0 10 77 48.5t144 82.5q-67 67 -100 144t-33 167q0 164 100 278.5t240 114.5q108 0 178.5 -67t70.5 -170q0 -23 -9 -74q-2 -11 -3 -16q81 85 149.5 167t127.5 162q-28 77 -42 144.5t-14 124.5q0 128 66.5 219.5t148.5 91.5q47 0 75 -34.5t28 -92.5 q0 -66 -43.5 -163t-132.5 -230q105 -230 136.5 -335t31.5 -189q0 -193 -130 -310.5t-343 -117.5q-136 0 -254.5 39t-221.5 118q-84 -53 -148.5 -86t-82.5 -33q-6 0 -11 5.5t-5 11.5zM119 418q0 -77 30 -145t89 -126q104 69 195.5 146t166.5 158q11 30 16 60t5 64 q0 87 -52 141t-135 54q-121 0 -218 -107t-97 -245zM266 121q84 -70 185 -107t211 -37q184 0 295.5 106.5t111.5 281.5q0 83 -32.5 191.5t-96.5 238.5q-159 -216 -326.5 -383t-347.5 -291zM934 1161q0 -53 14 -109t43 -120q76 110 117 202t41 152q0 39 -19 62.5t-51 23.5 q-58 0 -101.5 -61.5t-43.5 -149.5z" />
<glyph unicode="T" horiz-adv-x="1421" d="M82 924q0 73 36 149t101 139q85 84 193.5 125t242.5 41q136 0 471 -85q55 -14 84 -21q68 63 138.5 95t142.5 32q56 0 90.5 -22.5t34.5 -57.5q0 -56 -81 -98.5t-200 -42.5q-42 0 -65.5 1.5t-44.5 4.5q-67 -153 -93 -467q-9 -114 -16 -169q-40 -291 -166.5 -441 t-333.5 -150q-136 0 -225.5 76.5t-89.5 191.5q0 64 29 121t53 57q7 0 10.5 -3t3.5 -9t-14 -28q-47 -75 -47 -142q0 -96 80 -163.5t196 -67.5q157 0 253.5 113.5t131.5 338.5q15 92 32 262q38 363 120 490q-66 13 -184 38q-261 56 -359 56q-212 0 -348.5 -105.5 t-136.5 -264.5q0 -109 75 -176.5t195 -67.5q103 0 189 46t156 139q9 12 21 32q19 31 31 31q6 -1 9 -4.5t4 -10.5q0 -13 -16.5 -41t-43.5 -57q-76 -86 -165.5 -129t-190.5 -43q-136 0 -219.5 79t-83.5 208zM1262 1260q46 -12 85.5 -17.5t69.5 -5.5q65 0 103.5 22t38.5 58 q0 21 -20.5 35t-53.5 14q-59 0 -118.5 -28.5t-104.5 -77.5z" />
<glyph unicode="U" horiz-adv-x="1688" d="M61 829q0 113 42 214.5t118 173.5q70 65 153 100t169 35q169 0 264.5 -116.5t95.5 -324.5q0 -118 -31.5 -333.5t-31.5 -311.5q0 -116 37.5 -177.5t107.5 -61.5q78 0 162.5 97t138.5 255q-1 12 -2 32q-6 83 -6 111q0 359 56 593.5t132 234.5q27 0 40.5 -29.5t13.5 -87.5 q0 -170 -38.5 -361.5t-115.5 -408.5q11 -155 38 -273.5t71 -203.5q18 -33 42.5 -63.5t24.5 -35.5q0 -6 -3.5 -10t-8.5 -4q-37 0 -114.5 129.5t-117.5 302.5q-73 -158 -153.5 -236.5t-167.5 -78.5q-97 0 -159 89t-62 234q0 154 28.5 383.5t28.5 304.5q0 149 -73.5 232.5 t-204.5 83.5q-73 0 -147 -32t-132 -89q-76 -73 -116 -165t-40 -195q0 -138 77 -222t202 -84q83 0 145.5 40.5t108.5 123.5q5 10 13 28q15 34 28 34q6 0 10 -6t4 -15t-8.5 -31t-22.5 -45q-54 -83 -123 -124t-155 -41q-139 0 -228.5 94t-89.5 241zM1362 551q59 192 89 361.5 t30 308.5q0 42 -5 62t-16 20q-35 0 -66.5 -213.5t-31.5 -516.5v-22z" />
<glyph unicode="V" horiz-adv-x="1298" d="M57 911q0 182 111 306t268 124q173 0 278 -168.5t148 -517.5q39 19 82.5 43.5t48.5 24.5t9 -4t4 -8q0 -15 -23.5 -32t-116.5 -65q14 -145 21 -250t8 -181q83 327 166.5 545.5t177.5 358.5q95 142 225 234t219 92q10 0 15.5 -3t5.5 -9q0 -14 -43 -29q-39 -13 -64 -24 q-149 -72 -274 -236t-233 -432q-88 -215 -177 -597q-12 -52 -18 -77v-1q-11 -44 -41 -44q-34 0 -46 213.5t-42 403.5q-79 -31 -153 -46.5t-144 -15.5q-189 0 -300.5 107t-111.5 288zM98 926q0 -169 105 -269t284 -100q72 0 140 14t135 43q-35 330 -127 502t-234 172 q-120 0 -211.5 -107.5t-91.5 -254.5z" />
<glyph unicode="W" horiz-adv-x="1683" d="M31 899q0 91 28.5 175t83.5 153q64 78 150 121t182 43q204 0 318 -171.5t114 -478.5q0 -87 -11 -210.5t-34 -292.5q75 250 167 502t200 501q25 60 42 77t44 17q13 0 17.5 -5.5t4.5 -20.5q0 -3 -28.5 -198t-28.5 -384q0 -194 20 -345.5t58 -252.5q52 344 153.5 614 t247.5 457q65 82 123 135.5t78 53.5q7 -1 8.5 -3t1.5 -10q0 -6 -42.5 -44t-74.5 -77q-93 -109 -172.5 -261.5t-150.5 -360.5q-97 -282 -155 -625l-1 -6q-1 -6 -3 -15q-8 -46 -28 -46q-45 0 -97 234.5t-52 537.5q0 108 7 214t22 212q-21 -54 -71 -179q-211 -523 -308 -894 q-6 -22 -11 -53q-8 -44 -30 -44q-30 0 -48 11.5t-18 29.5q0 17 15 94q61 323 61 615q0 325 -86.5 480t-267.5 155q-158 0 -272.5 -129t-114.5 -312q0 -142 79.5 -231.5t204.5 -89.5q105 0 220 80q29 20 36 20q6 0 9.5 -3t3.5 -9q0 -27 -91 -74t-184 -47q-141 0 -230 95 t-89 245z" />
<glyph unicode="X" horiz-adv-x="1446" d="M-4 238q0 29 5.5 45t14.5 16q8 0 11.5 -4.5t3.5 -13.5q0 -7 -1 -17.5t-1 -15.5q0 -111 78.5 -182.5t203.5 -71.5q112 0 208.5 60t170.5 175q61 96 193 366q36 73 55 112q-38 305 -140.5 458.5t-267.5 153.5q-153 0 -265.5 -126t-112.5 -298q0 -135 81.5 -221t208.5 -86 q116 0 236 90q32 24 41 24q5 0 7.5 -4.5t2.5 -11.5q0 -27 -95.5 -79t-195.5 -52q-142 0 -231.5 95t-89.5 245q0 87 34 171.5t97 154.5q59 65 138 100t169 35q166 0 283.5 -130.5t177.5 -379.5q78 130 155 225t158 162q85 69 170.5 116.5t112.5 47.5q9 0 14.5 -4t5.5 -11 q0 -9 -58 -38.5t-106 -61.5q-118 -80 -222.5 -209t-207.5 -325q14 -70 37 -196q82 -448 162 -529q38 -40 95 -64t57 -33q0 -6 -5.5 -9t-15.5 -3q-136 0 -244.5 181t-165.5 505q-153 -346 -307.5 -494.5t-355.5 -148.5q-129 0 -214 80.5t-85 200.5z" />
<glyph unicode="Y" horiz-adv-x="1479" d="M45 918q0 63 18 127.5t54 128.5q57 103 147.5 162t192.5 59q152 0 241.5 -99.5t89.5 -269.5q0 -35 -6 -91.5t-28 -215.5q-9 -53 -24 -149q-40 -245 -40 -320q0 -87 37 -137t100 -50q73 0 147 80.5t140 231.5q26 397 107.5 671.5t154.5 274.5q14 0 22.5 -18t8.5 -50 q0 -109 -48.5 -299t-135.5 -417q-2 -98 -11.5 -223.5t-27.5 -278.5q18 1 40 1.5t72 0.5q15 0 24 -5t9 -12q0 -10 -7.5 -14t-33.5 -4h-18q-3 0 -33 -2.5t-59 -3.5q-49 -253 -162 -382.5t-285 -129.5q-96 0 -156.5 56t-60.5 145q0 136 149.5 223.5t432.5 116.5q5 56 8.5 120.5 t5.5 144.5q-62 -129 -137 -196t-158 -67q-97 0 -154 75.5t-57 204.5q0 93 45 359t45 436q0 127 -59.5 194.5t-171.5 67.5q-161 0 -267 -128.5t-106 -330.5q0 -139 75 -226t193 -87q83 0 167 50q22 13 28 13t9 -2.5t3 -7.5q0 -24 -66 -54t-141 -30q-139 0 -226 99t-87 258z M553 -319q0 -74 51 -119t135 -45q142 0 235 125t116 348q-250 -19 -393.5 -102.5t-143.5 -206.5zM1229 641q64 189 102.5 354t38.5 230q0 13 -3 20.5t-7 7.5q-27 0 -68 -179t-63 -433z" />
<glyph unicode="Z" horiz-adv-x="1485" d="M-43 8q0 79 117 141t286 62q31 0 108 -7q9 -1 13 -1q199 216 436 560t324 437q-151 2 -373.5 37t-296.5 35q-152 0 -235.5 -59.5t-83.5 -165.5q0 -101 76 -169.5t190 -68.5q70 0 141 26.5t72 26.5q7 0 10.5 -2t3.5 -6q0 -22 -73 -48t-162 -26q-132 0 -213.5 74.5 t-81.5 194.5q0 134 113.5 219.5t296.5 85.5q83 0 309 -43t371 -45q87 73 163 112t129 39q25 0 37.5 -10.5t12.5 -32.5q0 -61 -101 -112.5t-254 -61.5q-112 -118 -352 -463.5t-414 -537.5q188 -40 485.5 -140t409.5 -100q5 0 17.5 1t21.5 1q6 0 11 -4.5t6 -9.5 q0 -15 -19.5 -21t-75.5 -6q-135 0 -444 92t-471 125q-103 -95 -213 -149t-197 -54q-46 0 -73 20.5t-27 53.5zM-4 10q0 -19 17 -29t50 -10q73 0 166.5 44.5t187.5 125.5q-22 3 -47 4.5t-53 1.5q-133 0 -227 -42t-94 -95zM1356 1266q106 5 179 36t73 64q-1 9 -7 13.5t-18 4.5 q-31 0 -93 -31.5t-134 -86.5z" />
<glyph unicode="[" horiz-adv-x="555" d="M160 -186l78 1491q2 29 8 35.5t24 7.5h183q13 -1 18.5 -4.5t5.5 -10.5q0 -10 -5 -14t-17 -4h-113q-10 0 -14 -3t-4 -18l-76 -1468q0 -16 3.5 -19.5t12.5 -3.5h113q14 0 18 -3t4 -13q0 -8 -6 -12t-18 -4h-182q-18 0 -25.5 7.5t-7.5 26.5v9z" />
<glyph unicode="\" horiz-adv-x="569" d="M106 1264q1 7 3 9.5t10 4.5l28 6q2 0 5 1t4 1q7 0 11.5 -4.5t8.5 -19.5l348 -1409q2 -13 2 -19q0 -5 -3.5 -10.5t-7.5 -7.5l-28 -9q-1 0 -3 -1t-3 -1q-6 1 -11 5.5t-7 11.5l-355 1426q0 3 -1 7t-1 9z" />
<glyph unicode="]" horiz-adv-x="555" d="M66 -211q0 8 5 11t19 3h111q9 0 13.5 4t4.5 19l76 1468q0 13 -3.5 17t-12.5 4h-113q-14 0 -18.5 3t-4.5 11q1 10 6.5 14t18.5 5h182q18 0 25.5 -8t7.5 -27v-8l-78 -1491q-2 -29 -8.5 -36t-24.5 -7h-182q-13 0 -18.5 4.5t-5.5 13.5z" />
<glyph unicode="^" horiz-adv-x="2048" d="M412 897l534 565h152l534 -565h-84l-526 465l-530 -465h-80z" />
<glyph unicode="_" d="M0 -403h1024v-80h-1024v80z" />
<glyph unicode="`" d="M438 817q0 12 10.5 22.5t24.5 10.5t41 -43.5t51 -71.5q16 -18 46 -39t30 -34q0 -8 -4.5 -11.5t-13.5 -3.5q-38 0 -111.5 65.5t-73.5 104.5z" />
<glyph unicode="a" horiz-adv-x="506" d="M12 141q0 165 85 292.5t190 127.5q43 0 67.5 -22t24.5 -62q0 -23 -5 -40t-15 -33q13 -5 18.5 -17t5.5 -39q0 -25 -10.5 -109.5t-10.5 -142.5q0 -46 10 -63t34 -17q42 0 79.5 66t67.5 192q6 25 13 63q10 54 24 54q6 0 10 -5.5t4 -12.5q0 -21 -15.5 -89t-39.5 -139 q-31 -85 -71.5 -128.5t-90.5 -43.5q-44 0 -71 29t-33 82q-17 -62 -54 -97.5t-84 -35.5q-61 0 -97 51t-36 139zM92 92q0 -48 17 -75t47 -27q56 0 92.5 84t48.5 241q-12 -14 -23.5 -22t-19.5 -8t-11 2.5t-3 9.5q0 5 55 65t55 115q0 25 -16.5 39t-46.5 14q-76 0 -135.5 -130.5 t-59.5 -307.5z" />
<glyph unicode="b" horiz-adv-x="516" d="M27 -8q0 9 8 52q37 191 37 372q0 50 -2 140.5t-2 129.5q0 270 40.5 454.5t90.5 184.5q4 0 8 -3t4 -5q0 -4 -5 -30q-61 -301 -61 -707v-66q24 37 53.5 56.5t61.5 19.5q80 0 128 -68t48 -184q0 -153 -67 -262t-156 -109q-37 0 -68.5 23.5t-48.5 62.5q-1 -6 -3 -15 q-13 -73 -40 -73q-13 0 -19.5 7t-6.5 20zM115 117q0 -47 27.5 -79t66.5 -32q60 0 103.5 104t43.5 255q0 88 -27.5 139t-74.5 51q-30 0 -54.5 -22.5t-39.5 -63.5q-8 -21 -18 -104q-3 -24 -5 -38q-4 -40 -12 -105q-10 -88 -10 -105z" />
<glyph unicode="c" horiz-adv-x="461" d="M27 188q0 142 74.5 255.5t162.5 113.5q52 0 84.5 -37.5t32.5 -97.5q0 -66 -29 -110t-71 -44q-29 0 -46.5 21t-17.5 55q0 38 18 73.5t33 35.5q7 0 11 -3t4 -8l-15 -34q-16 -33 -16 -70q0 -17 9.5 -28t23.5 -11q27 0 46 34.5t19 88.5q0 47 -21 74.5t-57 27.5 q-63 0 -112 -107.5t-49 -256.5q0 -84 37 -128t108 -44q83 0 149.5 64.5t96.5 174.5q10 39 19 94q9 54 24 54q7 0 10.5 -6t3.5 -19q0 -161 -98 -285t-228 -124q-93 0 -149.5 67t-56.5 180z" />
<glyph unicode="d" horiz-adv-x="516" d="M25 158q0 159 69.5 281t153.5 122q19 0 37 -6.5t34 -19.5q20 129 46 332q48 368 100 368q16 0 25.5 -13t9.5 -36q0 -43 -33 -238q-22 -130 -35 -211q-37 -226 -59.5 -405t-22.5 -230q0 -40 14.5 -62t41.5 -22q47 0 85.5 62.5t69.5 187.5q7 28 16 71q12 60 27 60 q5 0 7.5 -5.5t2.5 -14.5q0 -28 -13 -90t-36 -127q-31 -90 -77 -139.5t-99 -49.5q-42 0 -69.5 23.5t-36.5 66.5q-26 -52 -55 -76t-66 -24q-62 0 -99.5 53t-37.5 142zM109 106q0 -51 16 -79.5t45 -28.5q43 0 67 46.5t39 166.5l37 287q-19 15 -33 21.5t-28 6.5 q-54 0 -98.5 -126t-44.5 -294z" />
<glyph unicode="e" horiz-adv-x="406" d="M29 170q0 156 69.5 269.5t155.5 113.5q37 0 57.5 -25t20.5 -69q0 -75 -56 -164.5t-159 -179.5q0 -60 30 -95.5t80 -35.5q61 0 116 57t89 158q17 51 30.5 117.5t26.5 66.5q8 0 11.5 -4.5t3.5 -13.5q0 -28 -14 -87.5t-37 -119.5q-40 -100 -106 -156.5t-142 -56.5 q-81 0 -128.5 60.5t-47.5 164.5zM117 162q71 73 115 159t44 146q0 28 -8.5 40.5t-27.5 12.5q-42 0 -74.5 -94t-48.5 -264z" />
<glyph unicode="f" horiz-adv-x="473" d="M59 354q0 24 16 39t42 15q21 0 41.5 -13t40.5 -39q67 312 108.5 625t54.5 313q20 0 28.5 -32t8.5 -101q0 -166 -119 -754l-18 -85q26 3 47.5 4.5t40.5 1.5q81 0 130.5 -13t49.5 -32q0 -5 -5.5 -9t-14.5 -4q-7 0 -49 6.5t-76 6.5q-23 0 -53.5 -1.5t-68.5 -4.5 q52 -76 78 -164.5t26 -196.5q0 -185 -52 -309.5t-122 -124.5q-43 0 -69 50t-26 136q0 123 21.5 278.5t62.5 327.5q-58 0 -90.5 21t-32.5 59zM98 352q0 -22 24.5 -34.5t67.5 -12.5l3 10q-23 29 -41.5 43.5t-32.5 14.5q-10 -1 -15 -6t-6 -15zM156 -381q0 -52 12 -79t35 -27 q47 0 89 118.5t42 274.5q0 99 -23.5 186t-64.5 144q-43 -193 -66.5 -357t-23.5 -260z" />
<glyph unicode="g" horiz-adv-x="485" d="M-20 121q0 73 31 157t87 164q40 56 86.5 86.5t91.5 30.5q49 0 75 -28.5t26 -81.5q0 -12 -3 -27t-11 -41l6 9q20 28 30 28q8 -1 12.5 -5.5t4.5 -9.5q0 -6 -12 -39q-61 -166 -66 -339q22 11 37.5 17.5t21.5 6.5q7 0 10.5 -3t4.5 -9q0 -10 -33 -26q-24 -12 -39 -21 q-6 -283 -59 -416t-158 -133q-57 0 -91 39t-34 104q0 100 68.5 203t195.5 195q5 57 8 89t4 39q-33 -73 -78 -113t-94 -40q-54 0 -88 45t-34 119zM37 -418q0 -51 25.5 -81.5t66.5 -30.5q66 0 95 97.5t38 378.5q-106 -81 -165.5 -177.5t-59.5 -186.5zM51 84q0 -42 16.5 -66 t45.5 -24q47 0 96.5 72t95.5 208q-8 4 -11 7.5t-3 9.5q0 1 25.5 57t25.5 107q0 32 -16 50.5t-43 18.5q-34 0 -67.5 -34t-74.5 -111q-41 -78 -65.5 -159t-24.5 -136z" />
<glyph unicode="h" horiz-adv-x="526" d="M43 4q0 11 6 78q5 58 8 98q4 41 9 119q20 274 43 408q44 272 108.5 417.5t138.5 145.5q45 0 71 -36t26 -97q0 -131 -81.5 -327t-217.5 -379q-5 -43 -8.5 -94t-8.5 -146q60 169 113.5 249t105.5 80q32 0 51 -26.5t19 -71.5q0 -64 -22.5 -169.5t-22.5 -141.5q0 -26 12 -39 t35 -13q32 0 67.5 53t65.5 146q13 41 25 97q12 55 26 55q7 0 11 -6.5t4 -16.5q0 -22 -16.5 -83t-41.5 -120q-36 -87 -80.5 -130.5t-97.5 -43.5q-43 0 -63.5 28t-20.5 85q0 58 16.5 161t16.5 144q0 13 -5.5 21.5t-15.5 9.5q-23 0 -56 -55t-79 -173q-27 -71 -52 -169 q-22 -91 -52 -91q-16 0 -26.5 10t-10.5 23zM154 475q112 174 178.5 361t66.5 317q0 39 -13 62.5t-34 23.5q-65 0 -114 -187.5t-84 -576.5z" />
<glyph unicode="i" horiz-adv-x="307" d="M59 203q0 104 8.5 194.5t14.5 102.5q5 13 12.5 17.5t28.5 4.5q23 0 33 -8.5t10 -28.5q0 -32 -17.5 -150.5t-17.5 -203.5q0 -49 17 -73.5t51 -24.5q56 0 96.5 62t64.5 187q4 19 8 46q8 51 21 51q7 0 10.5 -5t3.5 -14q0 -35 -13 -97t-32 -109q-29 -77 -71.5 -114.5 t-98.5 -37.5q-66 0 -97.5 48.5t-31.5 152.5zM96 700q0 21 14.5 33t36.5 12q25 0 38.5 -12t13.5 -35q0 -18 -15 -30.5t-37 -12.5q-23 0 -37 12.5t-14 32.5z" />
<glyph unicode="j" horiz-adv-x="260" d="M-162 -412q0 84 55.5 177t172.5 204q-1 15 -2 43q-3 121 -3 168q0 185 31.5 322t65.5 137q14 0 26.5 -8.5t12.5 -18.5q0 -3 -7 -28q-57 -202 -57 -445q0 -45 0.5 -68t1.5 -44q6 3 16 10q31 20 39 20q6 0 9.5 -3t3.5 -9q0 -11 -37 -37q-18 -12 -29 -20v-27 q0 -239 -51 -370.5t-143 -131.5q-44 0 -74.5 37.5t-30.5 91.5zM-113 -432q0 -33 17.5 -53.5t44.5 -20.5q62 0 89.5 92.5t27.5 309.5v28q-85 -81 -132 -175.5t-47 -180.5zM139 801q0 19 18 32t46 13q22 0 35.5 -11t13.5 -28q0 -20 -18.5 -33.5t-47.5 -13.5q-22 0 -34.5 11 t-12.5 30z" />
<glyph unicode="k" horiz-adv-x="512" d="M18 6q0 5 32.5 251.5t62.5 500.5q27 240 84.5 374t130.5 134q44 0 71 -45.5t27 -120.5q0 -129 -72 -299t-198 -334l-13 -105q53 96 102 143.5t95 47.5q36 0 59 -29.5t23 -74.5q0 -63 -46 -118.5t-132 -94.5q8 -20 22 -54q58 -145 117 -145q56 0 101.5 70t78.5 208 q4 18 9 45q11 56 24 56q7 0 11.5 -5t4.5 -14q0 -28 -13.5 -88.5t-35.5 -115.5q-42 -107 -96 -160t-121 -53q-94 0 -152 179q-4 12 -6 17q-12 37 -26 57t-29 23q-24 -169 -42 -224t-44 -55q-15 0 -22 7.5t-7 21.5zM142 293q4 1 9 1.5t15 0.5q20 0 35 -7.5t26 -23.5 q55 37 87 86t32 92q0 22 -12 36t-31 14q-34 0 -74 -49.5t-87 -149.5zM160 517q97 132 151 294t54 322q0 52 -9.5 76t-29.5 24q-77 0 -165 -704z" />
<glyph unicode="l" horiz-adv-x="389" d="M72 346q0 240 35 465.5t92 372.5q23 57 50.5 85.5t59.5 28.5q53 0 82 -61t29 -172q0 -186 -67 -381t-197 -389q4 -138 36 -205t93 -67q48 0 86 60.5t69 186.5q6 21 11 51q8 44 22 44q5 -1 8.5 -6t3.5 -13q0 -15 -7.5 -55.5t-20.5 -83.5q-36 -119 -84 -177.5t-111 -58.5 q-95 0 -142.5 94t-47.5 281zM156 353q97 166 153 367.5t56 379.5q0 81 -15.5 121.5t-46.5 40.5q-53 0 -97.5 -259.5t-49.5 -649.5z" />
<glyph unicode="m" horiz-adv-x="723" d="M20 2q0 4 25 149t25 283q0 22 -2 45v6q0 14 3.5 20.5t10.5 6.5q27 0 41.5 -50.5t17.5 -153.5q33 75 62 106.5t63 31.5q35 0 53.5 -45t30.5 -174q57 166 94 219.5t84 53.5q33 0 50.5 -24t17.5 -68q0 -46 -23.5 -154t-23.5 -168q0 -32 14 -51t37 -19q44 0 84.5 57.5 t75.5 168.5q17 56 28.5 122t24.5 66q5 0 7.5 -5t2.5 -13q0 -53 -17 -128.5t-46 -144.5q-33 -76 -79.5 -117.5t-96.5 -41.5q-54 0 -81.5 40t-27.5 117q0 71 23.5 170.5t23.5 122.5q0 10 -5 15.5t-15 5.5q-21 0 -44.5 -42.5t-74.5 -181.5q-29 -79 -54 -171.5t-38 -92.5 q-22 0 -35.5 7.5t-13.5 19.5q0 16 18.5 135.5t18.5 220.5q0 33 -8 47.5t-25 14.5q-23 0 -57 -67t-64 -175q-15 -51 -28 -125q-15 -78 -34 -78q-26 1 -34 8t-9 31z" />
<glyph unicode="n" horiz-adv-x="526" d="M41 16v15l37 449q2 18 6 25t12 7q18 0 32.5 -46.5t14.5 -111.5q0 -25 -2 -57t-6 -72q43 152 82 209.5t94 57.5q39 0 60.5 -36t21.5 -100q0 -49 -14 -137t-14 -125q0 -31 13.5 -47t39.5 -16q48 0 91 67.5t73 190.5q5 22 10 55q9 51 24 51q6 0 8 -3.5t3 -12.5 q0 -44 -13 -100.5t-36 -112.5q-35 -88 -81.5 -133t-101.5 -45q-53 0 -78.5 34.5t-25.5 104.5q0 38 14 126.5t14 139.5q0 25 -8 38t-22 13q-38 0 -85.5 -106.5t-72.5 -259.5l-14 -84q-2 -10 -11 -16.5t-22 -6.5q-23 0 -33 10t-10 35z" />
<glyph unicode="o" horiz-adv-x="418" d="M6 147q0 79 21.5 153t64.5 146q26 44 56.5 76.5t39.5 32.5q8 0 11.5 -3.5t3.5 -10.5q0 -9 -24.5 -42t-39.5 -63q-26 -57 -40.5 -130t-14.5 -148q0 -85 19 -123.5t61 -38.5q46 0 76.5 48.5t46.5 145.5q-75 2 -115.5 41.5t-40.5 110.5t32.5 120.5t76.5 49.5q43 0 67.5 -50 t24.5 -138q0 -21 -6 -77q-2 -13 -2 -20q73 26 131.5 102.5t64.5 76.5q5 -1 7.5 -5t2.5 -10q0 -34 -66 -104.5t-147 -93.5q-19 -124 -63 -187t-111 -63q-63 0 -100 55t-37 149zM162 348q0 -60 30 -91.5t87 -31.5l14 1q3 24 4.5 46t1.5 41q0 85 -15 125.5t-46 40.5 t-53.5 -37.5t-22.5 -93.5z" />
<glyph unicode="p" horiz-adv-x="526" d="M-12 -567q0 4 4 33q39 249 55 554l29 556q1 15 6.5 22.5t15.5 7.5q21 0 32 -52t11 -148q0 -32 -0.5 -49.5t-1.5 -32.5q36 115 80 173t96 58q65 0 100.5 -54t35.5 -155q0 -161 -70.5 -282t-157.5 -121q-32 0 -56.5 15.5t-39.5 45.5q-22 -294 -54.5 -439t-76.5 -145 q-4 0 -6 3.5t-2 9.5zM131 113q14 35 24 49t19 14q5 0 8.5 -4.5t3.5 -11.5q0 -5 -18 -41t-18 -68q0 -33 20 -55.5t49 -22.5q57 0 103.5 116.5t46.5 277.5q0 71 -17.5 107t-52.5 36q-52 0 -100 -111t-68 -286z" />
<glyph unicode="q" horiz-adv-x="508" d="M6 123q0 73 24.5 155t65.5 148q41 63 83.5 96t82.5 33q37 0 60 -25t26 -69q5 4 16 13q45 38 54 38q4 0 7 -3.5t3 -8.5t-13 -47q-57 -180 -96 -363q22 -22 38 -44t28 -48q51 23 90.5 83t71.5 165q12 40 21.5 91.5t21.5 51.5q6 0 10 -7.5t4 -21.5q0 -39 -17 -104t-44 -123 q-30 -64 -66 -104t-82 -60q19 -55 28 -112.5t9 -116.5q0 -130 -36.5 -214.5t-90.5 -84.5q-58 0 -86.5 56.5t-28.5 170.5q0 87 29 319l2 21q-21 -26 -47 -39.5t-53 -13.5q-55 0 -85 44t-30 124zM84 96q0 -44 18 -72t45 -28q41 0 68.5 51t70.5 237q-4 -3 -9.5 -5.5t-10.5 -2.5 q-8 1 -11 4t-3 9q0 1 35 52.5t35 102.5q0 35 -15.5 56.5t-40.5 21.5q-67 0 -124.5 -128.5t-57.5 -297.5zM260 -434q0 -49 10 -71.5t31 -22.5q38 0 66 73t28 185q0 71 -8.5 129t-23.5 97q-13 -4 -29 -6.5t-39 -2.5q-18 -103 -26.5 -198t-8.5 -183zM299 -22q15 0 28.5 2.5 t26.5 7.5q-6 18 -16 33.5t-27 31.5q-1 -8 -3 -21.5t-9 -53.5z" />
<glyph unicode="r" horiz-adv-x="422" d="M68 489q0 57 19.5 93t49.5 36q22 0 36.5 -19t14.5 -48q0 -34 -7.5 -67.5t-22.5 -63.5q82 -34 104.5 -57.5t22.5 -63.5q0 -39 -21.5 -142.5t-21.5 -158.5q0 -19 9 -30t25 -11q51 0 99 71.5t88 204.5q10 34 20 83q9 46 23 46q6 0 9 -5.5t3 -16.5q0 -37 -17.5 -105.5 t-45.5 -132.5q-40 -88 -88.5 -136t-98.5 -48q-45 0 -71.5 36.5t-26.5 100.5q0 55 15.5 140.5t15.5 111.5q0 22 -40 46q-7 4 -9 5q-47 26 -65.5 55.5t-18.5 75.5zM104 520q0 -31 8 -52.5t23 -33.5q11 25 17 51.5t6 53.5q0 21 -6 32t-17 11q-15 0 -23 -15.5t-8 -46.5z" />
<glyph unicode="s" horiz-adv-x="362" d="M-41 27q0 55 43.5 101t85.5 46q6 0 9 -2.5t3 -7.5q0 -3 -53 -40.5t-53 -88.5q0 -47 30.5 -77t77.5 -30q48 0 77.5 31t29.5 82q0 50 -47 143q-14 27 -21 42q-35 73 -48 123.5t-13 101.5q0 70 22.5 110.5t61.5 40.5q24 0 38.5 -22.5t14.5 -59.5t-12 -80t-35 -88 q75 -139 97 -195.5t22 -95.5q0 -72 -50 -118.5t-128 -46.5q-67 0 -109.5 36.5t-42.5 94.5zM125 518q0 -40 6.5 -73t20.5 -60q17 33 25.5 68.5t8.5 70.5q0 24 -7.5 35.5t-22.5 11.5q-14 0 -22.5 -14.5t-8.5 -38.5z" />
<glyph unicode="t" horiz-adv-x="350" d="M-217 848q0 12 10 17t33 5l285 -1l1 8q32 208 74 208q15 0 22 -11t7 -34q0 -10 -8.5 -66.5t-13.5 -103.5h266q16 0 25.5 -4.5t9.5 -13.5q0 -10 -8.5 -15t-28.5 -6h-269q-22 -157 -33.5 -298.5t-11.5 -266.5q0 -142 18.5 -195t63.5 -53q40 0 78.5 60t75.5 180 q14 44 30 105q17 67 31 67q6 0 10 -4t5 -12q0 -16 -12 -60t-37 -125q-42 -130 -92 -193t-111 -63q-69 0 -104.5 67t-35.5 198q0 117 11.5 262.5t34.5 328.5l-283 -6q-22 0 -32.5 6.5t-10.5 18.5z" />
<glyph unicode="u" horiz-adv-x="508" d="M41 123q0 45 8 115t25 163q0 3 1 8q10 54 29 54q25 0 36.5 -10t11.5 -31q0 -7 -18.5 -119t-18.5 -213q0 -30 10 -46.5t29 -16.5q29 0 58.5 48.5t49.5 131.5q13 51 30 132q35 165 79 165q11 0 16.5 -7.5t5.5 -23.5q0 -28 -25.5 -150.5t-25.5 -209.5q0 -43 13 -63.5 t38 -20.5q40 0 84 62t72 163q10 35 20 85q11 56 25 56q7 0 10.5 -5.5t3.5 -16.5q0 -31 -17.5 -98.5t-43.5 -124.5q-37 -78 -81 -118t-93 -40q-53 0 -77 29.5t-28 98.5q-27 -67 -63 -105t-74 -38q-43 0 -66.5 38t-23.5 108z" />
<glyph unicode="v" horiz-adv-x="469" d="M45 168q0 52 11 126t32 167q9 33 20 46t29 13q13 0 23 -7.5t10 -16.5q0 -17 -24.5 -126.5t-24.5 -199.5q0 -74 15.5 -113t45.5 -39q38 0 72.5 72.5t67.5 220.5q-9 33 -13 69.5t-4 78.5q0 58 13 90.5t36 32.5q18 0 26.5 -20t8.5 -62q0 -35 -8 -80.5t-25 -102.5 q8 -34 27 -54.5t43 -20.5q25 0 48.5 20t45.5 62q4 7 10 20q12 27 25 27q4 -1 7 -4.5t3 -8.5q0 -43 -47 -96t-98 -53q-24 0 -45 13.5t-31 35.5q-34 -147 -80 -221t-104 -74q-53 0 -84 55t-31 150z" />
<glyph unicode="w" horiz-adv-x="664" d="M45 143q0 160 28.5 271.5t65.5 111.5q14 0 21.5 -10t7.5 -29q0 -23 -23.5 -145t-23.5 -219q0 -49 10 -72.5t31 -23.5q33 0 63.5 58.5t48.5 160.5q7 35 13 90q10 98 53 98q16 0 24.5 -10.5t8.5 -30.5q0 -24 -18.5 -114.5t-18.5 -151.5q0 -46 12 -69t35 -23q41 0 76.5 62.5 t60.5 181.5q-37 57 -56.5 110t-19.5 96q0 38 15.5 59t42.5 21q31 0 49 -43.5t18 -118.5q0 -22 -2.5 -49t-7.5 -59q13 -16 32.5 -24.5t43.5 -8.5q25 0 49 18.5t39 49.5q4 9 9 25q9 30 22 30q5 0 8.5 -4.5t3.5 -11.5q0 -50 -43 -95t-96 -45q-21 0 -39 6.5t-35 20.5 q-27 -128 -76 -197t-112 -69q-37 0 -63 30t-34 82q-25 -62 -57 -91t-76 -29q-43 0 -66.5 42t-23.5 119zM479 485q0 -33 13.5 -73t37.5 -80q1 4 1 11q3 40 4 58q0 58 -9.5 90.5t-25.5 32.5q-10 0 -15.5 -10t-5.5 -29z" />
<glyph unicode="x" horiz-adv-x="412" d="M35 -109q0 15 23 72.5t65 145.5q-26 86 -39.5 165t-13.5 138q0 41 10 56t35 15q30 0 39 -100q8 -96 20 -164l40 75q146 279 173 279q5 0 8.5 -4t3.5 -10q0 -5 -76 -134t-141 -267q11 -89 39 -135t72 -46q47 0 87.5 67t76.5 204q9 37 18 89q10 56 23 56q8 0 12 -5t4 -15 q0 -38 -17.5 -111.5t-45.5 -144.5q-36 -91 -77.5 -133.5t-92.5 -42.5q-47 0 -82 30t-60 90q-26 -51 -50.5 -119.5t-39.5 -68.5q-6 0 -10 5.5t-4 12.5z" />
<glyph unicode="y" horiz-adv-x="508" d="M51 164q0 165 21 250.5t61 85.5q14 0 22.5 -14t8.5 -37q0 -26 -20.5 -135t-20.5 -191q0 -60 13 -85.5t42 -25.5q47 0 86.5 80t55.5 214l3 27q31 251 93 251q13 0 21.5 -11.5t8.5 -29.5q0 -22 -44 -156.5t-44 -251.5q0 -20 2 -58.5t5 -92.5q24 19 37.5 27.5t19.5 8.5 q7 0 10.5 -3t3.5 -9q0 -12 -34 -38q-23 -19 -37 -31v-13q0 -239 -52 -368t-147 -129q-43 0 -69.5 29t-26.5 75q0 84 58 186t165 203q0 61 -0.5 94t-1.5 63q-23 -50 -54 -77t-69 -27q-54 0 -85.5 50.5t-31.5 138.5zM109 -461q0 -35 15 -56.5t40 -21.5q60 0 94.5 102t34.5 283 v29q-88 -94 -136 -182t-48 -154z" />
<glyph unicode="z" horiz-adv-x="451" d="M-78 -465q0 100 91.5 196t262.5 175q-1 70 -37 106.5t-106 38.5q-41 -64 -66 -87t-51 -23q-9 0 -16.5 8t-7.5 18q0 28 30.5 57t86.5 54l282 393q-21 -4 -45 -6t-53 -2q-35 0 -85.5 8t-64.5 8q-42 0 -68.5 -32.5t-31.5 -32.5q-6 0 -11 5t-5 13q0 33 52.5 80t104.5 47 q31 0 86 -16.5t82 -16.5q33 0 69 14.5t40 14.5t8 -4.5t4 -9.5q0 -9 -5.5 -20t-18.5 -29l-291 -406h16q70 0 115.5 -38t58.5 -109q17 7 31 11.5t20 4.5q7 0 11 -4t4 -10q0 -14 -45 -32q-11 -5 -16 -7q-1 -8 0 -23.5t1 -23.5q0 -194 -90.5 -329.5t-210.5 -135.5 q-60 0 -95.5 39.5t-35.5 105.5zM-39 -469q0 -49 27 -80t69 -31q85 0 148 124.5t71 322.5q-143 -58 -229 -151.5t-86 -184.5z" />
<glyph unicode="{" d="M176 608v56q169 15 227 72.5t58 211.5v221q0 200 80 273.5t293 73.5h10v-47q-153 -2 -207.5 -55t-54.5 -210v-147q0 -225 -64.5 -308t-238.5 -114q174 -30 238.5 -112.5t64.5 -309.5v-147q0 -157 54.5 -210t207.5 -55v-45h-10q-213 0 -293 73t-80 273v222 q0 154 -59.5 212.5t-225.5 71.5z" />
<glyph unicode="|" d="M467 -483v2048h90v-2048h-90z" />
<glyph unicode="}" d="M178 -199q154 2 209 55t55 210v147q0 226 64 308t239 114q-174 31 -238.5 114t-64.5 308v147q0 156 -55 209.5t-209 55.5v47h10q214 0 294.5 -74t80.5 -273v-221q0 -155 58 -212t227 -72v-56q-166 -13 -225.5 -71.5t-59.5 -212.5v-222q0 -198 -80.5 -272t-294.5 -74h-10 v45z" />
<glyph unicode="~" horiz-adv-x="1706" d="M178 481v92q105 74 201 110t186 36q100 0 271 -61q12 -5 19 -7q8 -3 27 -10q168 -61 261 -61q83 0 175 37.5t212 121.5v-92q-106 -74 -202 -110.5t-185 -36.5q-99 0 -266 61q-16 6 -22 8q-12 4 -33 12q-167 60 -257 60q-83 0 -175 -37.5t-212 -122.5z" />
<glyph unicode="&#xa1;" horiz-adv-x="537" d="M186 1184q0 28 20.5 47.5t49.5 19.5q28 0 49 -20t21 -47q0 -29 -21 -49.5t-49 -20.5q-29 0 -49.5 20.5t-20.5 49.5zM188 -2q0 7 6 50q48 354 48 767q0 4 -2 38.5t-2 66.5q0 24 5 32.5t19 8.5q33 0 46.5 -83t13.5 -309q0 -247 -19 -497q-4 -44 -4 -55q-2 -36 -9 -49 t-24 -13q-27 0 -52.5 14.5t-25.5 28.5z" />
<glyph unicode="&#xa2;" horiz-adv-x="516" d="M76 408q0 107 55 197t137 118v137q0 11 5 16t16 5t15.5 -5t4.5 -16l1 -133q56 -2 85 -32.5t29 -88.5q0 -28 -5.5 -40.5t-17.5 -12.5q-5 0 -9.5 3.5t-4.5 6.5q0 8 2 24.5t2 24.5q0 40 -21.5 64t-56.5 24q-62 0 -107.5 -92.5t-45.5 -228.5q0 -69 37.5 -107.5t105.5 -38.5 q72 0 145 58q21 16 27 16t9 -3t3 -9q0 -23 -52 -55.5t-126 -46.5v-113q0 -15 -4.5 -21t-15.5 -6q-10 0 -15 6t-6 21v112q-90 5 -141 62t-51 154z" />
<glyph unicode="&#xa3;" horiz-adv-x="682" d="M-23 63q0 46 39.5 75.5t102.5 29.5q36 0 77 -7t83 -19q12 35 19 105.5t7 168.5h-143q-11 0 -16.5 4t-6.5 12q0 6 7.5 11t19.5 6h139q0 8 -1 24t-1 23q0 180 66 292.5t166 112.5q34 0 53.5 -20t19.5 -56q0 -37 -11.5 -66.5t-25.5 -29.5q-4 0 -7 3.5t-3 8.5q0 3 10.5 32 t10.5 54t-9.5 37.5t-27.5 12.5q-74 0 -114 -106.5t-40 -307.5v-14h131q14 0 21.5 -4.5t7.5 -12.5q0 -9 -6 -12.5t-21 -3.5l-133 -1q-3 -88 -22.5 -162.5t-53.5 -127.5q27 -12 76 -35q183 -86 273 -86q10 0 24 1t19 1q7 0 10 -1.5t4 -6.5q0 -11 -18.5 -15.5t-69.5 -5.5 q-64 0 -141.5 21.5t-202.5 75.5q-42 -53 -92 -80t-105 -27q-54 0 -84.5 25.5t-30.5 70.5zM-4 61q0 -29 26.5 -47t69.5 -18q49 0 86.5 23t67.5 71q-65 19 -95.5 25t-56.5 6q-47 0 -72.5 -15.5t-25.5 -44.5z" />
<glyph unicode="&#xa4;" horiz-adv-x="682" d="M2 326q0 5 8 9.5t19 4.5h65v27q0 27 2.5 56t7.5 62h-79q-11 0 -17 4t-6 11q0 4 8 8t19 4h82q36 178 129 283.5t211 105.5q82 0 135 -48t53 -122q0 -67 -41.5 -112.5t-103.5 -45.5q-49 0 -81 30.5t-32 76.5q0 39 28 76t52 37q5 -1 6.5 -2.5t1.5 -4.5q0 -2 -11 -14 q-42 -42 -42 -86q0 -37 23 -59.5t61 -22.5q45 0 73.5 35t28.5 90q0 64 -40 102.5t-105 38.5q-99 0 -163.5 -93.5t-82.5 -264.5h248q10 0 16 -3t6 -9t-8 -10.5t-18 -4.5h-248q-4 -34 -6 -70t-2 -75h202q11 0 17 -4t6 -10q0 -5 -8 -9t-19 -4h-198q5 -159 55 -239t145 -80 q87 0 144.5 61.5t81.5 180.5q2 13 6 36q7 45 20 45q9 0 13 -5t4 -13q0 -136 -80 -237t-199 -101q-118 0 -197 94.5t-96 257.5h-71q-11 0 -17 3.5t-6 9.5z" />
<glyph unicode="&#xa5;" horiz-adv-x="682" d="M31 850q0 13 14.5 23t34.5 10q61 0 275 -427l18 -34q103 228 169 345.5t91 117.5q11 0 17.5 -3t6.5 -8q0 -11 -65.5 -115.5t-118.5 -201.5h162q10 0 16 -4t6 -10t-8 -10.5t-18 -4.5h-172q-18 -35 -33.5 -71.5t-28.5 -73.5h238q10 0 16 -3t6 -9t-8 -10.5t-18 -4.5h-234 q-2 -39 -3 -78.5t-1 -99.5v-164q0 -22 -9 -34.5t-26 -12.5q-29 0 -41 46.5t-12 166.5q0 18 2 76t2 100h-233q-11 0 -17 4t-6 11q0 5 8 9.5t19 4.5h231q-17 38 -37 74.5t-43 70.5h-155q-12 1 -17.5 4t-5.5 9q0 5 8 9.5t19 4.5h131q-50 92 -115 187t-65 106z" />
<glyph unicode="&#xa6;" d="M467 -350v758h90v-758h-90zM467 674v758h90v-758h-90z" />
<glyph unicode="&#xa7;" d="M145 -238q1 6 6.5 11.5t10.5 5.5q10 0 27 -41l6 -15q24 -58 76 -92t116 -34q91 0 148 50.5t57 131.5q0 100 -138 354q-17 32 -26 49l-16 29q-183 335 -183 477q0 105 52.5 176.5t154.5 106.5q-21 47 -32 91.5t-11 86.5q0 113 74.5 185.5t189.5 72.5q84 0 150.5 -45.5 t66.5 -89.5q0 -7 -3 -10.5t-9 -4.5q-11 0 -26 24q-6 9 -11 16q-28 38 -71 58.5t-97 20.5q-86 0 -139 -48.5t-53 -127.5q0 -48 32 -125.5t134 -261.5q119 -212 159.5 -321t40.5 -195q0 -103 -49.5 -172.5t-150.5 -106.5q19 -40 29 -84t10 -92q0 -127 -74.5 -204.5 t-196.5 -77.5q-100 0 -177 64.5t-77 137.5zM303 754q0 -143 274 -631l37 -68q73 20 108.5 64.5t35.5 116.5q0 81 -60 222.5t-247 479.5q-73 -20 -110.5 -67t-37.5 -117z" />
<glyph unicode="&#xa8;" d="M344 729q0 23 15.5 37t41.5 14q31 0 47.5 -13t16.5 -38q0 -24 -17 -37.5t-47 -13.5q-26 0 -41.5 13.5t-15.5 37.5zM557 729q0 23 15.5 37t41.5 14q31 0 47.5 -13t16.5 -38q0 -24 -17 -37.5t-47 -13.5q-26 0 -41.5 13.5t-15.5 37.5z" />
<glyph unicode="&#xa9;" horiz-adv-x="1683" d="M152 678q0 138 51 263t149 224q97 98 225 151.5t267 53.5q134 0 261 -52.5t224 -148.5q96 -95 149.5 -225t53.5 -266q0 -135 -53 -261t-152 -227q-97 -98 -221.5 -150t-263.5 -52q-138 0 -262.5 51.5t-225.5 150.5q-99 100 -150.5 224t-51.5 264zM229 678 q0 -126 46.5 -238.5t134.5 -199.5q88 -89 198 -135t234 -46q126 0 236.5 46.5t195.5 134.5q88 91 135 203.5t47 234.5q0 123 -48 240.5t-132 201.5q-85 85 -198 131.5t-234 46.5q-123 0 -235.5 -47t-198.5 -135q-88 -89 -134.5 -201.5t-46.5 -236.5zM432 664 q0 184 113.5 310t277.5 126q71 0 145 -34t85 -34q28 0 44.5 16t20.5 45l31 1v-308h-37q-32 136 -104 205.5t-181 69.5q-127 0 -192.5 -95.5t-65.5 -281.5q0 -190 70 -286.5t207 -96.5q90 0 161 42.5t126 129.5l30 -20q-55 -102 -140.5 -154.5t-195.5 -52.5 q-164 0 -279.5 122t-115.5 296z" />
<glyph unicode="&#xaa;" horiz-adv-x="379" d="M10 1139q0 116 63 205.5t142 89.5q33 0 51.5 -16t18.5 -44q0 -15 -4 -27.5t-12 -22.5q10 -4 14 -11.5t4 -28.5q0 -18 -7.5 -76.5t-7.5 -99.5q0 -32 7.5 -43.5t25.5 -11.5q32 0 60 46t51 134q3 14 8 39q8 43 18 43q5 0 8 -4t3 -11q0 -16 -11.5 -62t-29.5 -95 q-23 -60 -53.5 -90.5t-67.5 -30.5q-33 0 -53 20t-25 58q-14 -45 -41.5 -69.5t-62.5 -24.5q-46 0 -72.5 35.5t-26.5 97.5zM70 1106q0 -34 12 -53t35 -19q42 0 69.5 59.5t36.5 167.5q-9 -10 -18 -16t-15 -6q-5 0 -7.5 2.5t-2.5 7.5q0 4 41 45.5t41 79.5q0 18 -12.5 27.5 t-34.5 9.5q-56 0 -100.5 -91t-44.5 -214z" />
<glyph unicode="&#xab;" horiz-adv-x="725" d="M154 250q0 13 46 47q25 19 40 31q48 38 96.5 89.5t58.5 51.5q9 0 14 -5.5t5 -14.5q0 -27 -55 -82.5t-146 -118.5q72 -46 119 -102t47 -87q0 -9 -6.5 -15.5t-14.5 -6.5q-11 0 -45.5 42t-62.5 71q-19 19 -52 47q-44 37 -44 53zM369 250q0 13 46 47q25 19 40 31 q48 38 96.5 89.5t58.5 51.5q9 0 14 -5.5t5 -14.5q0 -27 -55 -82.5t-146 -118.5q72 -46 119 -102t47 -87q0 -9 -5.5 -15.5t-13.5 -6.5q-11 0 -47 42.5t-63 70.5q-19 19 -52 47q-44 37 -44 53z" />
<glyph unicode="&#xac;" horiz-adv-x="1706" d="M254 774v82h1198v-502h-78v420h-1120z" />
<glyph unicode="&#xad;" horiz-adv-x="592" d="M147 276q1 2 1.5 4t1.5 5l4 19q3 12 8 15.5t22 4.5h285q10 0 15 -3.5t5 -11.5v-4l-2 -23q-1 -10 -6 -14t-18 -4h-295q-11 0 -15.5 3t-5.5 9z" />
<glyph unicode="&#xae;" horiz-adv-x="1683" d="M152 678q0 138 51 263t149 224q97 98 225 151.5t267 53.5q134 0 261 -52.5t224 -148.5q96 -95 149.5 -225t53.5 -266q0 -135 -53 -261t-152 -227q-97 -98 -221.5 -150t-263.5 -52q-138 0 -262.5 51.5t-225.5 150.5q-99 100 -150.5 224t-51.5 264zM229 678 q0 -126 46.5 -238.5t134.5 -199.5q88 -89 198 -135t234 -46q126 0 236.5 46.5t195.5 134.5q88 91 135 203.5t47 234.5q0 123 -48 240.5t-132 201.5q-85 85 -198 131.5t-234 46.5q-123 0 -235.5 -47t-198.5 -135q-88 -89 -134.5 -201.5t-46.5 -236.5zM469 293v38q79 3 108 25 t29 78v512q0 57 -30 80t-107 25v36h391q147 0 231.5 -52.5t84.5 -143.5q0 -75 -70 -122.5t-221 -76.5q92 -30 139.5 -78.5t71.5 -136.5q5 -20 12 -59q15 -88 55 -88q41 0 60 30.5t20 97.5l37 1v-8q0 -88 -37.5 -132.5t-112.5 -44.5q-46 0 -79 18.5t-45 51.5 q-16 39 -17.5 113.5t-9.5 99.5q-23 66 -76 96.5t-147 30.5q-6 0 -19 -1t-20 -1v-248q0 -56 29 -78t108 -25v-38h-385zM717 717q12 -1 26.5 -1.5t40.5 -0.5q128 0 195.5 45t67.5 131q0 76 -58.5 121t-159.5 45q-54 0 -83 -20t-29 -56v-264z" />
<glyph unicode="&#xaf;" d="M330 762q0 9 7.5 14.5t18.5 5.5q4 0 16 -2q54 -10 103 -10q81 0 158 16q11 2 14 2q7 0 10.5 -3t4.5 -9q0 -34 -40.5 -50.5t-125.5 -16.5q-72 0 -119 15.5t-47 37.5z" />
<glyph unicode="&#xb0;" horiz-adv-x="674" d="M63 1176q0 114 80.5 194t194.5 80q112 0 192 -80.5t80 -193.5q0 -114 -80 -193.5t-194 -79.5q-115 0 -194 79t-79 194zM125 1176q0 -89 62.5 -151t150.5 -62t150.5 62t62.5 151q0 88 -62.5 150.5t-150.5 62.5q-89 0 -151 -62t-62 -151z" />
<glyph unicode="&#xb1;" horiz-adv-x="1706" d="M254 59v82h1198v-82h-1198zM254 727v80h559v354h80v-354h559v-80h-559v-352h-80v352h-559z" />
<glyph unicode="&#xb2;" horiz-adv-x="436" d="M25 369q0 26 30 42.5t78 16.5q7 0 15.5 -0.5t29.5 -3.5q61 83 95 173t34 163q0 54 -20.5 81t-63.5 27q-49 0 -94 -53t-45 -117q0 -43 44 -65q11 -5 11 -8q0 -5 -4 -7.5t-12 -3.5q-32 0 -52 23.5t-20 60.5q0 70 60 132.5t127 62.5q59 0 97 -44t38 -114q0 -66 -41 -147.5 t-119 -171.5q24 -11 63 -30q80 -40 119 -40q3 0 9.5 1t9.5 1q4 0 8 -2.5t4 -5.5q0 -10 -19 -17.5t-47 -7.5q-32 0 -70.5 13t-113.5 53q-27 -24 -53 -35.5t-53 -11.5q-22 0 -33.5 9t-11.5 26zM49 371q0 -7 8.5 -12t20.5 -5q17 0 36.5 10.5t34.5 28.5q-10 4 -21.5 6t-25.5 2 q-21 0 -37 -9t-16 -21z" />
<glyph unicode="&#xb3;" horiz-adv-x="459" d="M18 457q0 13 4.5 19.5t12.5 6.5q12 0 13 -22q1 -7 1 -10q6 -49 42 -77t93 -28q63 0 103.5 38.5t40.5 98.5q0 39 -17 68.5t-49 46.5q-20 -15 -42.5 -24t-39.5 -9q-19 0 -31 9.5t-12 25.5q0 17 17 27t45 10q10 0 24 -1.5t33 -4.5q26 22 39.5 52.5t13.5 68.5q0 48 -28 78 t-72 30q-46 0 -75.5 -27t-29.5 -69q0 -28 14 -55q3 -6 3 -7q-1 -5 -4 -7.5t-8 -2.5q-13 0 -23 21t-10 49q0 53 40.5 87t104.5 34q67 0 111.5 -37t44.5 -92q0 -34 -21.5 -68t-64.5 -68q56 -23 84 -56.5t28 -76.5q0 -64 -60 -112.5t-142 -48.5q-84 0 -133.5 36t-49.5 97z M166 600q0 -6 4.5 -9t13.5 -3q11 0 22 5t23 15q-8 4 -17 6t-19 2q-13 0 -20 -4t-7 -12z" />
<glyph unicode="&#xb4;" d="M385 664q0 14 41.5 31.5t67.5 37.5q41 31 83 74t52 43q13 0 23 -11t10 -26q0 -10 -10.5 -24t-33.5 -33q-57 -49 -116 -78t-94 -29q-12 0 -17.5 3.5t-5.5 11.5z" />
<glyph unicode="&#xb5;" horiz-adv-x="1051" d="M-49 -354q0 39 59.5 287t98.5 432l108 520h119l-111 -518q-4 -20 -6 -41.5t-2 -46.5q0 -95 46.5 -153t121.5 -58q99 0 170 85t109 250l110 482h119l-117 -527q-13 -59 -19.5 -104.5t-6.5 -73.5q0 -44 20 -69t55 -25q43 0 77.5 27t53.5 75q13 30 30 79q25 71 44 71 q12 0 19.5 -8.5t7.5 -22.5q0 -30 -15.5 -82.5t-37.5 -93.5q-40 -72 -93.5 -108.5t-117.5 -36.5q-70 0 -107 45t-37 129q0 4 1 15.5t1 17.5q-43 -108 -110 -160.5t-160 -52.5t-149 53.5t-70 156.5q-21 -131 -41 -330q-28 -276 -101 -276q-29 0 -49 18t-20 44z" />
<glyph unicode="&#xb6;" d="M90 1130q0 157 108.5 253t286.5 96h447v-64h-129v-1415h-70v1415h-192v-1415h-70v782q-175 8 -278 102.5t-103 245.5z" />
<glyph unicode="&#xb7;" horiz-adv-x="342" d="M102 430q0 29 20 49.5t48 20.5q29 0 49.5 -20.5t20.5 -49.5q0 -27 -21 -47.5t-49 -20.5t-48 20t-20 48z" />
<glyph unicode="&#xb8;" d="M356 -322q1 7 5 10t10 3q3 0 29 -8.5t49 -8.5q44 0 72 25.5t28 67.5q0 31 -19 47t-55 16q-5 0 -13.5 -1t-24.5 -3l24 49q7 1 15 1.5t20 0.5q54 0 86 -30t32 -78q0 -57 -43.5 -92t-113.5 -35q-42 0 -71.5 11t-29.5 25z" />
<glyph unicode="&#xb9;" horiz-adv-x="279" d="M57 690q0 4 23 32.5t41 55.5q20 29 40 66t27 37q10 0 16.5 -6t6.5 -15q0 -3 -4 -24q-35 -182 -35 -392v-92q0 -14 -5 -21t-15 -7q-20 0 -28.5 29t-8.5 100q0 85 5.5 158.5t16.5 140.5q-30 -43 -45.5 -58.5t-25.5 -15.5q-4 0 -6.5 3.5t-2.5 8.5z" />
<glyph unicode="&#xba;" horiz-adv-x="313" d="M4 1143q0 56 16.5 108t49.5 103q20 30 42.5 53t28.5 23t8.5 -2.5t2.5 -8.5t-18 -29.5t-30 -44.5q-19 -38 -30 -89.5t-11 -104.5q0 -59 14.5 -86t45.5 -27q35 0 58 34t34 101q-56 2 -86.5 29.5t-30.5 77.5q0 49 24.5 84t57.5 35t51.5 -35t18.5 -96q0 -11 -2.5 -34 t-3.5 -34q55 18 98.5 71.5t48.5 53.5q2 0 4 -3t2 -7q0 -25 -49.5 -74t-109.5 -65q-14 -87 -47 -132t-82 -45q-48 0 -76.5 39t-28.5 105zM121 1284q0 -42 22.5 -64t65.5 -22h10q3 16 4.5 31.5t1.5 30.5q0 59 -11.5 87.5t-35.5 28.5q-23 0 -40 -26.5t-17 -65.5z" />
<glyph unicode="&#xbb;" horiz-adv-x="725" d="M154 57q0 27 54 82.5t144 118.5q-71 44 -117.5 100t-46.5 88q0 11 5.5 17t13.5 6q12 0 47.5 -42.5t62.5 -70.5q18 -17 49 -44q46 -40 46 -56q0 -13 -47 -48q-25 -18 -39 -30q-49 -38 -97.5 -89.5t-58.5 -51.5q-8 0 -12 5t-4 15zM369 57q0 27 54.5 82.5t145.5 118.5 q-71 45 -118.5 101t-47.5 87q0 11 5.5 17t13.5 6q12 0 47.5 -42.5t62.5 -70.5q19 -18 51 -46q46 -38 46 -54q0 -13 -47 -48q-25 -18 -39 -30q-49 -38 -97.5 -89.5t-58.5 -51.5q-8 0 -13 5t-5 15z" />
<glyph unicode="&#xbc;" horiz-adv-x="891" d="M53 700q0 5 23.5 33t40.5 51q17 26 36 61.5t27 35.5q10 -1 15 -6t6 -15q0 -2 -4 -22q-31 -169 -31 -365v-86q0 -12 -5.5 -19.5t-15.5 -7.5q-19 0 -26.5 26t-7.5 93q0 77 5 146t15 133l-9 -11q-45 -57 -59 -57q-4 0 -7 3t-3 7zM74 2q0 4 4 13t12 22l524 831q10 15 19 21 t20 6q12 0 21.5 -7.5t9.5 -17.5q0 -8 -10 -28q-1 -3 -2 -4l-528 -835q-11 -20 -20.5 -28t-21.5 -8t-20 10t-8 25zM522 164q0 9 60.5 70.5t107.5 121.5q34 43 66.5 94.5t42.5 51.5q6 0 9 -2.5t3 -7.5q0 -4 -3 -27q-20 -145 -23 -299h51q10 0 16 -3t6 -7q0 -7 -6 -10t-21 -3 h-47q-1 -8 -1.5 -18.5t-0.5 -36.5q0 -20 1 -45t1 -31q0 -16 -4 -21t-14 -5q-21 0 -29 30t-8 127h-176q-17 0 -24 5t-7 16zM553 166h176q2 60 7 116.5t14 108.5q-38 -53 -88 -110.5t-109 -114.5z" />
<glyph unicode="&#xbd;" horiz-adv-x="909" d="M53 700q0 5 23.5 33t40.5 51q17 26 36 61.5t27 35.5q10 -1 15 -6t6 -15q0 -2 -4 -22q-31 -169 -31 -365v-86q0 -12 -5.5 -19.5t-15.5 -7.5q-19 0 -26.5 26t-7.5 93q0 77 5 146t15 133l-9 -11q-45 -57 -59 -57q-4 0 -7 3t-3 7zM74 2q0 4 4 13t12 22l524 831q10 15 19 21 t20 6q12 0 21.5 -7.5t9.5 -17.5q0 -8 -10 -28q-1 -3 -2 -4l-528 -835q-11 -20 -20.5 -28t-21.5 -8t-20 10t-8 25zM516 23q0 23 29.5 39t75.5 16q16 0 25 -1t18 -3q58 79 90 162.5t32 150.5q0 52 -19.5 77t-59.5 25q-47 0 -90.5 -49.5t-43.5 -109.5q0 -41 43 -60q11 -5 11 -8 q-1 -5 -5 -7.5t-12 -2.5q-30 0 -48.5 22t-18.5 58q0 64 56.5 122t119.5 58q57 0 93 -41t36 -106q0 -62 -38.5 -138.5t-112.5 -161.5q23 -9 62 -27q76 -36 111 -36q3 0 9.5 1t9.5 1q4 0 7 -2.5t3 -5.5q0 -9 -18 -16t-43 -7q-32 0 -68 12.5t-106 49.5q-28 -23 -53 -34t-50 -11 q-21 0 -33 9t-12 24zM541 25q0 -7 7.5 -11t20.5 -4q15 0 33.5 9.5t32.5 25.5q-10 4 -20.5 6t-24.5 2q-21 0 -35 -8t-14 -20z" />
<glyph unicode="&#xbe;" horiz-adv-x="1063" d="M16 485q0 12 4.5 18.5t12.5 6.5q11 0 13 -21q1 -7 1 -10q6 -46 40 -72t89 -26q60 0 98.5 36t38.5 91q0 36 -16 63.5t-48 42.5q-18 -13 -38.5 -20.5t-38.5 -7.5t-29.5 8.5t-11.5 21.5q0 17 16 27t43 10q11 0 25.5 -2t30.5 -6q23 21 36 51t13 64q0 45 -27 72.5t-69 27.5 q-43 0 -71 -25.5t-28 -64.5q0 -26 12 -51q3 -5 3 -6q-1 -4 -3.5 -6t-7.5 -2q-12 0 -22 18.5t-10 44.5q0 49 39 81t100 32q65 0 107 -34t42 -85q0 -33 -20.5 -64t-63.5 -63q54 -22 81.5 -53.5t27.5 -71.5q0 -60 -57.5 -106t-134.5 -46q-81 0 -129 35t-48 92zM158 618 q0 -5 5 -8.5t13 -3.5q11 0 21.5 4.5t21.5 14.5q-9 4 -17 6t-18 2q-13 0 -19.5 -3.5t-6.5 -11.5zM246 2q0 4 4 13t12 22l524 831q10 15 19 21t20 6q12 0 21.5 -7.5t9.5 -17.5q0 -8 -10 -28q-1 -3 -2 -4l-528 -835q-11 -20 -20.5 -28t-21.5 -8t-20 10t-8 25zM694 164 q0 9 60.5 70.5t107.5 121.5q34 43 66.5 94.5t42.5 51.5q6 0 9 -2.5t3 -7.5q0 -4 -3 -27q-20 -145 -23 -299h51q10 0 16 -3t6 -7q0 -7 -6 -10t-20 -3h-47q-2 -8 -2.5 -18.5t-0.5 -36.5q0 -20 1 -45t1 -31q0 -16 -4 -21t-14 -5q-21 0 -29 30t-8 127h-176q-17 0 -24 5t-7 16z M725 166h176q2 60 7 116.5t14 108.5q-38 -53 -88 -110.5t-109 -114.5z" />
<glyph unicode="&#xbf;" horiz-adv-x="883" d="M23 283q0 111 63.5 197.5t247.5 205.5q122 79 155 124.5t33 104.5q0 23 -9 56t-9 43q0 3 4 6.5t8 3.5q16 0 28.5 -31.5t12.5 -77.5q0 -73 -27 -121t-120 -116q-170 -123 -227.5 -208t-57.5 -191q0 -125 83 -208t206 -83q148 0 251 119t103 294q0 116 -67 195 q-11 13 -11 16q0 5 6 9t13 4q33 0 66.5 -67t33.5 -159q0 -192 -119 -318t-299 -126q-156 0 -262 94.5t-106 233.5zM467 1198q0 28 19.5 48t48.5 20q27 0 48 -20.5t21 -47.5q0 -29 -20.5 -49.5t-48.5 -20.5q-29 0 -48.5 20.5t-19.5 49.5z" />
<glyph unicode="&#xc0;" horiz-adv-x="1532" d="M14 289q0 79 54.5 151t91.5 72q10 0 14 -3t4 -9q0 -10 -24 -27q-12 -9 -19 -14q-41 -34 -60.5 -74.5t-19.5 -93.5q0 -87 59 -142t152 -55q128 0 285.5 118t333.5 345h-56q-130 0 -251 -20q-17 -2 -21 -2q-5 0 -9.5 4t-4.5 10q0 17 79 30t197 13q16 0 35.5 -1t56.5 -3 q63 85 111.5 157t91.5 142q51 253 117.5 402t126.5 149q20 0 32.5 -13.5t12.5 -35.5q0 -56 -48.5 -162.5t-144.5 -261.5q-12 -94 -18 -192t-6 -200v-81q92 -69 147.5 -182.5t55.5 -233.5q0 -68 -25.5 -109t-67.5 -41q-91 0 -147.5 152t-65.5 428q-19 11 -48.5 20.5 t-94.5 24.5q-182 -263 -342.5 -392.5t-302.5 -129.5q-122 0 -201.5 74t-79.5 186zM958 582q34 -6 65 -15.5t60 -21.5q0 66 5 130t16 128q-34 -56 -69 -110t-77 -111zM1184 444q8 -252 36 -366.5t80 -114.5q26 0 41 27.5t15 75.5q0 112 -47.5 217.5t-124.5 160.5zM1221 1044 q64 108 102.5 198t38.5 126q0 13 -4 19t-12 6q-26 0 -60 -94.5t-65 -254.5zM1269 1665q0 12 10.5 22.5t24.5 10.5t41 -43.5t51 -71.5q16 -18 46 -39t30 -34q0 -8 -4.5 -11.5t-13.5 -3.5q-38 0 -111.5 65.5t-73.5 104.5z" />
<glyph unicode="&#xc1;" horiz-adv-x="1532" d="M14 289q0 79 54.5 151t91.5 72q10 0 14 -3t4 -9q0 -10 -24 -27q-12 -9 -19 -14q-41 -34 -60.5 -74.5t-19.5 -93.5q0 -87 59 -142t152 -55q128 0 285.5 118t333.5 345h-56q-130 0 -251 -20q-17 -2 -21 -2q-5 0 -9.5 4t-4.5 10q0 17 79 30t197 13q16 0 35.5 -1t56.5 -3 q63 85 111.5 157t91.5 142q51 253 117.5 402t126.5 149q20 0 32.5 -13.5t12.5 -35.5q0 -56 -48.5 -162.5t-144.5 -261.5q-12 -94 -18 -192t-6 -200v-81q92 -69 147.5 -182.5t55.5 -233.5q0 -68 -25.5 -109t-67.5 -41q-91 0 -147.5 152t-65.5 428q-19 11 -48.5 20.5 t-94.5 24.5q-182 -263 -342.5 -392.5t-302.5 -129.5q-122 0 -201.5 74t-79.5 186zM958 582q34 -6 65 -15.5t60 -21.5q0 66 5 130t16 128q-34 -56 -69 -110t-77 -111zM1184 444q8 -252 36 -366.5t80 -114.5q26 0 41 27.5t15 75.5q0 112 -47.5 217.5t-124.5 160.5zM1216 1512 q0 14 41.5 31.5t67.5 37.5q41 31 83 74t52 43q13 0 23 -11t10 -26q0 -10 -10.5 -24t-33.5 -33q-57 -49 -116 -78t-94 -29q-12 0 -17.5 3.5t-5.5 11.5zM1221 1044q64 108 102.5 198t38.5 126q0 13 -4 19t-12 6q-26 0 -60 -94.5t-65 -254.5z" />
<glyph unicode="&#xc2;" horiz-adv-x="1532" d="M14 289q0 79 54.5 151t91.5 72q10 0 14 -3t4 -9q0 -10 -24 -27q-12 -9 -19 -14q-41 -34 -60.5 -74.5t-19.5 -93.5q0 -87 59 -142t152 -55q128 0 285.5 118t333.5 345h-56q-130 0 -251 -20q-17 -2 -21 -2q-5 0 -9.5 4t-4.5 10q0 17 79 30t197 13q16 0 35.5 -1t56.5 -3 q63 85 111.5 157t91.5 142q51 253 117.5 402t126.5 149q20 0 32.5 -13.5t12.5 -35.5q0 -56 -48.5 -162.5t-144.5 -261.5q-12 -94 -18 -192t-6 -200v-81q92 -69 147.5 -182.5t55.5 -233.5q0 -68 -25.5 -109t-67.5 -41q-91 0 -147.5 152t-65.5 428q-19 11 -48.5 20.5 t-94.5 24.5q-182 -263 -342.5 -392.5t-302.5 -129.5q-122 0 -201.5 74t-79.5 186zM958 582q34 -6 65 -15.5t60 -21.5q0 66 5 130t16 128q-34 -56 -69 -110t-77 -111zM1148 1497q0 6 57.5 68t102.5 137q5 5 11.5 7.5t17.5 2.5t14.5 -1t7.5 -5q34 -63 91 -122t57 -74 q0 -10 -6.5 -14.5t-20.5 -4.5q-34 0 -77 47.5t-74 122.5q-41 -77 -87 -128.5t-69 -51.5q-12 0 -18.5 4t-6.5 12zM1184 444q8 -252 36 -366.5t80 -114.5q26 0 41 27.5t15 75.5q0 112 -47.5 217.5t-124.5 160.5zM1221 1044q64 108 102.5 198t38.5 126q0 13 -4 19t-12 6 q-26 0 -60 -94.5t-65 -254.5z" />
<glyph unicode="&#xc3;" horiz-adv-x="1532" d="M14 289q0 79 54.5 151t91.5 72q10 0 14 -3t4 -9q0 -10 -24 -27q-12 -9 -19 -14q-41 -34 -60.5 -74.5t-19.5 -93.5q0 -87 59 -142t152 -55q128 0 285.5 118t333.5 345h-56q-130 0 -251 -20q-17 -2 -21 -2q-5 0 -9.5 4t-4.5 10q0 17 79 30t197 13q16 0 35.5 -1t56.5 -3 q63 85 111.5 157t91.5 142q51 253 117.5 402t126.5 149q20 0 32.5 -13.5t12.5 -35.5q0 -56 -48.5 -162.5t-144.5 -261.5q-12 -94 -18 -192t-6 -200v-81q92 -69 147.5 -182.5t55.5 -233.5q0 -68 -25.5 -109t-67.5 -41q-91 0 -147.5 152t-65.5 428q-19 11 -48.5 20.5 t-94.5 24.5q-182 -263 -342.5 -392.5t-302.5 -129.5q-122 0 -201.5 74t-79.5 186zM958 582q34 -6 65 -15.5t60 -21.5q0 66 5 130t16 128q-34 -56 -69 -110t-77 -111zM1181 1557q0 34 28.5 65t63.5 31q13 0 26.5 -3t27.5 -9l59 -25q16 -6 25 -8t16 -2q23 0 41 20.5t25 20.5 q4 0 7 -4t3 -13q0 -33 -27 -61.5t-61 -28.5q-8 0 -20.5 3t-25.5 8l-57 22q-19 8 -32 11t-23 3q-24 0 -41.5 -21.5t-26.5 -21.5q-3 0 -5.5 3.5t-2.5 9.5zM1184 444q8 -252 36 -366.5t80 -114.5q26 0 41 27.5t15 75.5q0 112 -47.5 217.5t-124.5 160.5zM1221 1044 q64 108 102.5 198t38.5 126q0 13 -4 19t-12 6q-26 0 -60 -94.5t-65 -254.5z" />
<glyph unicode="&#xc4;" horiz-adv-x="1532" d="M14 289q0 79 54.5 151t91.5 72q10 0 14 -3t4 -9q0 -10 -24 -27q-12 -9 -19 -14q-41 -34 -60.5 -74.5t-19.5 -93.5q0 -87 59 -142t152 -55q128 0 285.5 118t333.5 345h-56q-130 0 -251 -20q-17 -2 -21 -2q-5 0 -9.5 4t-4.5 10q0 17 79 30t197 13q16 0 35.5 -1t56.5 -3 q63 85 111.5 157t91.5 142q51 253 117.5 402t126.5 149q20 0 32.5 -13.5t12.5 -35.5q0 -56 -48.5 -162.5t-144.5 -261.5q-12 -94 -18 -192t-6 -200v-81q92 -69 147.5 -182.5t55.5 -233.5q0 -68 -25.5 -109t-67.5 -41q-91 0 -147.5 152t-65.5 428q-19 11 -48.5 20.5 t-94.5 24.5q-182 -263 -342.5 -392.5t-302.5 -129.5q-122 0 -201.5 74t-79.5 186zM958 582q34 -6 65 -15.5t60 -21.5q0 66 5 130t16 128q-34 -56 -69 -110t-77 -111zM1175 1577q0 23 15.5 37t41.5 14q31 0 47.5 -13t16.5 -38q0 -24 -17 -37.5t-47 -13.5q-26 0 -41.5 13.5 t-15.5 37.5zM1184 444q8 -252 36 -366.5t80 -114.5q26 0 41 27.5t15 75.5q0 112 -47.5 217.5t-124.5 160.5zM1221 1044q64 108 102.5 198t38.5 126q0 13 -4 19t-12 6q-26 0 -60 -94.5t-65 -254.5zM1388 1577q0 23 15.5 37t41.5 14q31 0 47.5 -13t16.5 -38q0 -24 -17 -37.5 t-47 -13.5q-26 0 -41.5 13.5t-15.5 37.5z" />
<glyph unicode="&#xc5;" horiz-adv-x="1532" d="M14 289q0 79 54.5 151t91.5 72q10 0 14 -3t4 -9q0 -10 -24 -27q-12 -9 -19 -14q-41 -34 -60.5 -74.5t-19.5 -93.5q0 -87 59 -142t152 -55q128 0 285.5 118t333.5 345h-56q-130 0 -251 -20q-17 -2 -21 -2q-5 0 -9.5 4t-4.5 10q0 17 79 30t197 13q16 0 35.5 -1t56.5 -3 q63 85 111.5 157t91.5 142q51 253 117.5 402t126.5 149q20 0 32.5 -13.5t12.5 -35.5q0 -56 -48.5 -162.5t-144.5 -261.5q-12 -94 -18 -192t-6 -200v-81q92 -69 147.5 -182.5t55.5 -233.5q0 -68 -25.5 -109t-67.5 -41q-91 0 -147.5 152t-65.5 428q-19 11 -48.5 20.5 t-94.5 24.5q-182 -263 -342.5 -392.5t-302.5 -129.5q-122 0 -201.5 74t-79.5 186zM958 582q34 -6 65 -15.5t60 -21.5q0 66 5 130t16 128q-34 -56 -69 -110t-77 -111zM1184 444q8 -252 36 -366.5t80 -114.5q26 0 41 27.5t15 75.5q0 112 -47.5 217.5t-124.5 160.5zM1221 1044 q64 108 102.5 198t38.5 126q0 13 -4 19t-12 6q-26 0 -60 -94.5t-65 -254.5zM1237 1638q0 65 44.5 110.5t109.5 45.5q64 0 108.5 -45.5t44.5 -110.5q0 -64 -44.5 -108.5t-108.5 -44.5q-65 0 -109.5 44.5t-44.5 108.5zM1284 1638q0 -44 31 -74t76 -30q43 0 74.5 31t31.5 73 q0 45 -31 76t-75 31q-46 0 -76.5 -30.5t-30.5 -76.5z" />
<glyph unicode="&#xc6;" horiz-adv-x="2322" d="M14 289q0 79 54.5 151t91.5 72q10 0 14 -3t4 -9q0 -10 -24 -27q-12 -9 -19 -14q-41 -34 -60.5 -74.5t-19.5 -93.5q0 -87 59 -142t152 -55q128 0 285.5 118t333.5 345h-56q-130 0 -251 -20q-17 -2 -21 -2q-5 0 -9.5 4t-4.5 10q0 17 79 30t197 13q16 0 35.5 -1t56.5 -3 q63 85 111.5 157t91.5 142q51 253 117.5 402t126.5 149q20 0 32.5 -13.5t12.5 -35.5q0 -56 -48.5 -162.5t-144.5 -261.5q-11 -82 -16.5 -154t-5.5 -139q0 -73 6.5 -136t19.5 -118q14 111 90.5 200t211.5 152q-69 47 -102.5 102.5t-33.5 122.5q0 160 157.5 271.5t391.5 111.5 q171 0 273 -65t102 -172q0 -97 -86 -167.5t-207 -70.5q-84 0 -154.5 44.5t-70.5 80.5q0 6 5 10t11 4q12 0 30 -22q6 -7 9 -10q38 -41 79.5 -57.5t104.5 -16.5q92 0 158 58.5t66 138.5q0 99 -84.5 154.5t-235.5 55.5q-209 0 -332.5 -102t-123.5 -272q0 -54 23.5 -100 t68.5 -76q64 17 123.5 25.5t113.5 8.5q86 0 135.5 -16.5t49.5 -44.5q0 -29 -60 -48.5t-158 -19.5q-49 0 -102.5 12t-112.5 35q-132 -54 -206 -162t-74 -245q0 -152 104 -243t281 -91q113 0 214 35t177 100q57 50 88 106t31 111q0 65 -39.5 107.5t-99.5 42.5q-19 0 -43.5 -6 t-30.5 -6q-5 0 -8.5 4t-3.5 10q0 14 23.5 23.5t62.5 9.5q79 0 128.5 -50t49.5 -131q0 -157 -165 -275t-398 -118q-231 0 -364.5 133t-174.5 401q-33 14 -70.5 25.5t-95.5 24.5q-182 -263 -342.5 -392.5t-302.5 -129.5q-122 0 -201.5 74t-79.5 186zM958 582q35 -6 70.5 -16.5 t74.5 -26.5q-2 36 -3.5 63.5t-1.5 46.5q0 44 1.5 82t4.5 71q-34 -55 -69 -109t-77 -111zM1221 1044q64 108 102.5 198t38.5 126q0 13 -4 19t-12 6q-26 0 -60 -94.5t-65 -254.5zM1612 768q33 -18 79.5 -26.5t114.5 -8.5q59 0 96 9.5t37 23.5q0 12 -35 20.5t-92 8.5 q-51 0 -101.5 -7t-98.5 -20z" />
<glyph unicode="&#xc7;" horiz-adv-x="1194" d="M68 545q0 159 55.5 319.5t157.5 294.5q81 107 178.5 165t195.5 58q143 0 240.5 -104t97.5 -256q0 -153 -87 -259t-210 -106q-90 0 -142 60.5t-52 165.5q0 87 49.5 168.5t81.5 81.5q6 -1 9 -3.5t3 -7.5q0 -7 -20 -32q-80 -97 -80 -213q0 -84 40 -134.5t105 -50.5 q104 0 178 97t74 235q0 143 -76.5 231t-199.5 88q-80 0 -152 -46t-141 -142q-92 -125 -145.5 -304t-53.5 -364q0 -228 115 -359.5t313 -131.5q156 0 272 82.5t181 238.5q21 50 30.5 114.5t22.5 64.5q8 0 13 -6.5t5 -16.5q0 -50 -20 -118.5t-55 -133.5q-64 -120 -187.5 -192 t-265.5 -72q-244 0 -387 158t-143 430zM401 -322q1 7 5 10t10 3q3 0 29 -8.5t49 -8.5q44 0 72 25.5t28 67.5q0 31 -19 47t-55 16q-5 0 -13.5 -1t-24.5 -3l24 49q7 1 15 1.5t20 0.5q54 0 86 -30t32 -78q0 -57 -43.5 -92t-113.5 -35q-42 0 -71.5 11t-29.5 25z" />
<glyph unicode="&#xc8;" horiz-adv-x="1208" d="M66 342q0 129 86.5 239.5t248.5 188.5q-69 47 -102 102.5t-33 122.5q0 160 157 271.5t392 111.5q171 0 273 -65t102 -172q0 -97 -86 -167.5t-207 -70.5q-84 0 -154.5 44.5t-70.5 80.5q0 6 5 10t11 4q12 0 30 -22q6 -7 9 -10q37 -41 79 -57.5t105 -16.5q92 0 158 58.5 t66 138.5q0 99 -84.5 154.5t-235.5 55.5q-201 0 -325.5 -102t-124.5 -266q0 -60 22.5 -108t63.5 -74q64 17 123.5 25.5t113.5 8.5q85 0 134.5 -16.5t49.5 -44.5q0 -29 -60 -48.5t-157 -19.5q-49 0 -102.5 12t-112.5 35q-122 -51 -196 -157t-74 -228q0 -165 102.5 -260.5 t280.5 -95.5q106 0 206 35.5t177 99.5q57 50 88 106t31 111q0 65 -40 107.5t-100 42.5q-18 0 -42.5 -6t-30.5 -6q-5 0 -9 4.5t-4 9.5q0 14 24 23.5t62 9.5q80 0 129.5 -50t49.5 -131q0 -157 -165.5 -275t-402.5 -118q-207 0 -333.5 104t-126.5 271zM498 768 q33 -18 79.5 -26.5t114.5 -8.5q59 0 96 9.5t37 23.5q0 12 -35 20.5t-92 8.5q-51 0 -101.5 -7t-98.5 -20zM723 1665q0 12 10.5 22.5t24.5 10.5t41 -43.5t51 -71.5q16 -18 46 -39t30 -34q0 -8 -4.5 -11.5t-13.5 -3.5q-38 0 -111.5 65.5t-73.5 104.5z" />
<glyph unicode="&#xc9;" horiz-adv-x="1208" d="M66 342q0 129 86.5 239.5t248.5 188.5q-69 47 -102 102.5t-33 122.5q0 160 157 271.5t392 111.5q171 0 273 -65t102 -172q0 -97 -86 -167.5t-207 -70.5q-84 0 -154.5 44.5t-70.5 80.5q0 6 5 10t11 4q12 0 30 -22q6 -7 9 -10q37 -41 79 -57.5t105 -16.5q92 0 158 58.5 t66 138.5q0 99 -84.5 154.5t-235.5 55.5q-201 0 -325.5 -102t-124.5 -266q0 -60 22.5 -108t63.5 -74q64 17 123.5 25.5t113.5 8.5q85 0 134.5 -16.5t49.5 -44.5q0 -29 -60 -48.5t-157 -19.5q-49 0 -102.5 12t-112.5 35q-122 -51 -196 -157t-74 -228q0 -165 102.5 -260.5 t280.5 -95.5q106 0 206 35.5t177 99.5q57 50 88 106t31 111q0 65 -40 107.5t-100 42.5q-18 0 -42.5 -6t-30.5 -6q-5 0 -9 4.5t-4 9.5q0 14 24 23.5t62 9.5q80 0 129.5 -50t49.5 -131q0 -157 -165.5 -275t-402.5 -118q-207 0 -333.5 104t-126.5 271zM498 768 q33 -18 79.5 -26.5t114.5 -8.5q59 0 96 9.5t37 23.5q0 12 -35 20.5t-92 8.5q-51 0 -101.5 -7t-98.5 -20zM670 1512q0 14 41.5 31.5t67.5 37.5q41 31 83 74t52 43q13 0 23 -11t10 -26q0 -10 -10.5 -24t-33.5 -33q-57 -49 -116 -78t-94 -29q-12 0 -17.5 3.5t-5.5 11.5z" />
<glyph unicode="&#xca;" horiz-adv-x="1208" d="M66 342q0 129 86.5 239.5t248.5 188.5q-69 47 -102 102.5t-33 122.5q0 160 157 271.5t392 111.5q171 0 273 -65t102 -172q0 -97 -86 -167.5t-207 -70.5q-84 0 -154.5 44.5t-70.5 80.5q0 6 5 10t11 4q12 0 30 -22q6 -7 9 -10q37 -41 79 -57.5t105 -16.5q92 0 158 58.5 t66 138.5q0 99 -84.5 154.5t-235.5 55.5q-201 0 -325.5 -102t-124.5 -266q0 -60 22.5 -108t63.5 -74q64 17 123.5 25.5t113.5 8.5q85 0 134.5 -16.5t49.5 -44.5q0 -29 -60 -48.5t-157 -19.5q-49 0 -102.5 12t-112.5 35q-122 -51 -196 -157t-74 -228q0 -165 102.5 -260.5 t280.5 -95.5q106 0 206 35.5t177 99.5q57 50 88 106t31 111q0 65 -40 107.5t-100 42.5q-18 0 -42.5 -6t-30.5 -6q-5 0 -9 4.5t-4 9.5q0 14 24 23.5t62 9.5q80 0 129.5 -50t49.5 -131q0 -157 -165.5 -275t-402.5 -118q-207 0 -333.5 104t-126.5 271zM498 768 q33 -18 79.5 -26.5t114.5 -8.5q59 0 96 9.5t37 23.5q0 12 -35 20.5t-92 8.5q-51 0 -101.5 -7t-98.5 -20zM602 1497q0 6 57.5 68t102.5 137q5 5 11.5 7.5t17.5 2.5t14.5 -1t7.5 -5q34 -63 91 -122t57 -74q0 -10 -6.5 -14.5t-20.5 -4.5q-34 0 -77 47.5t-74 122.5 q-41 -77 -87 -128.5t-69 -51.5q-12 0 -18.5 4t-6.5 12z" />
<glyph unicode="&#xcb;" horiz-adv-x="1208" d="M66 342q0 129 86.5 239.5t248.5 188.5q-69 47 -102 102.5t-33 122.5q0 160 157 271.5t392 111.5q171 0 273 -65t102 -172q0 -97 -86 -167.5t-207 -70.5q-84 0 -154.5 44.5t-70.5 80.5q0 6 5 10t11 4q12 0 30 -22q6 -7 9 -10q37 -41 79 -57.5t105 -16.5q92 0 158 58.5 t66 138.5q0 99 -84.5 154.5t-235.5 55.5q-201 0 -325.5 -102t-124.5 -266q0 -60 22.5 -108t63.5 -74q64 17 123.5 25.5t113.5 8.5q85 0 134.5 -16.5t49.5 -44.5q0 -29 -60 -48.5t-157 -19.5q-49 0 -102.5 12t-112.5 35q-122 -51 -196 -157t-74 -228q0 -165 102.5 -260.5 t280.5 -95.5q106 0 206 35.5t177 99.5q57 50 88 106t31 111q0 65 -40 107.5t-100 42.5q-18 0 -42.5 -6t-30.5 -6q-5 0 -9 4.5t-4 9.5q0 14 24 23.5t62 9.5q80 0 129.5 -50t49.5 -131q0 -157 -165.5 -275t-402.5 -118q-207 0 -333.5 104t-126.5 271zM498 768 q33 -18 79.5 -26.5t114.5 -8.5q59 0 96 9.5t37 23.5q0 12 -35 20.5t-92 8.5q-51 0 -101.5 -7t-98.5 -20zM629 1577q0 23 15.5 37t41.5 14q31 0 47.5 -13t16.5 -38q0 -24 -17 -37.5t-47 -13.5q-26 0 -41.5 13.5t-15.5 37.5zM842 1577q0 23 15.5 37t41.5 14q31 0 47.5 -13 t16.5 -38q0 -24 -17 -37.5t-47 -13.5q-26 0 -41.5 13.5t-15.5 37.5z" />
<glyph unicode="&#xcc;" horiz-adv-x="1139" d="M49 328q0 155 98 258.5t244 103.5q59 0 103.5 -15t44.5 -32q0 -5 -3 -8.5t-8 -3.5q-7 0 -51.5 13t-83.5 13q-126 0 -210.5 -93.5t-84.5 -235.5q0 -148 98.5 -242t252.5 -94q207 0 322.5 172.5t158.5 552.5q3 29 9 89q37 365 124 519q-104 -57 -326 -78q-105 -10 -155 -20 q-99 -20 -159.5 -92t-60.5 -170q0 -102 66.5 -168t167.5 -66q104 0 197 78q19 16 24 16q7 0 10.5 -3t3.5 -9q0 -30 -77.5 -72.5t-159.5 -42.5q-118 0 -195 75.5t-77 191.5q0 59 20 114.5t59 104.5q66 80 149 116t236 43q18 1 57 2q152 1 247 37q26 10 53 29t33 19 q7 -1 10.5 -4.5t3.5 -8.5q0 -7 -22 -30q-98 -108 -124 -254q-9 -58 -13.5 -124.5t-4.5 -197.5v-18q0 -118 -4 -173t-12 -100q-52 -271 -198.5 -417t-367.5 -146q-170 0 -282.5 105.5t-112.5 265.5zM712 1665q0 12 10.5 22.5t24.5 10.5t41 -43.5t51 -71.5q16 -18 46 -39 t30 -34q0 -8 -4.5 -11.5t-13.5 -3.5q-38 0 -111.5 65.5t-73.5 104.5z" />
<glyph unicode="&#xcd;" horiz-adv-x="1139" d="M49 328q0 155 98 258.5t244 103.5q59 0 103.5 -15t44.5 -32q0 -5 -3 -8.5t-8 -3.5q-7 0 -51.5 13t-83.5 13q-126 0 -210.5 -93.5t-84.5 -235.5q0 -148 98.5 -242t252.5 -94q207 0 322.5 172.5t158.5 552.5q3 29 9 89q37 365 124 519q-104 -57 -326 -78q-105 -10 -155 -20 q-99 -20 -159.5 -92t-60.5 -170q0 -102 66.5 -168t167.5 -66q104 0 197 78q19 16 24 16q7 0 10.5 -3t3.5 -9q0 -30 -77.5 -72.5t-159.5 -42.5q-118 0 -195 75.5t-77 191.5q0 59 20 114.5t59 104.5q66 80 149 116t236 43q18 1 57 2q152 1 247 37q26 10 53 29t33 19 q7 -1 10.5 -4.5t3.5 -8.5q0 -7 -22 -30q-98 -108 -124 -254q-9 -58 -13.5 -124.5t-4.5 -197.5v-18q0 -118 -4 -173t-12 -100q-52 -271 -198.5 -417t-367.5 -146q-170 0 -282.5 105.5t-112.5 265.5zM659 1512q0 14 41.5 31.5t67.5 37.5q41 31 83 74t52 43q13 0 23 -11t10 -26 q0 -10 -10.5 -24t-33.5 -33q-57 -49 -116 -78t-94 -29q-12 0 -17.5 3.5t-5.5 11.5z" />
<glyph unicode="&#xce;" horiz-adv-x="1139" d="M49 328q0 155 98 258.5t244 103.5q59 0 103.5 -15t44.5 -32q0 -5 -3 -8.5t-8 -3.5q-7 0 -51.5 13t-83.5 13q-126 0 -210.5 -93.5t-84.5 -235.5q0 -148 98.5 -242t252.5 -94q207 0 322.5 172.5t158.5 552.5q3 29 9 89q37 365 124 519q-104 -57 -326 -78q-105 -10 -155 -20 q-99 -20 -159.5 -92t-60.5 -170q0 -102 66.5 -168t167.5 -66q104 0 197 78q19 16 24 16q7 0 10.5 -3t3.5 -9q0 -30 -77.5 -72.5t-159.5 -42.5q-118 0 -195 75.5t-77 191.5q0 59 20 114.5t59 104.5q66 80 149 116t236 43q18 1 57 2q152 1 247 37q26 10 53 29t33 19 q7 -1 10.5 -4.5t3.5 -8.5q0 -7 -22 -30q-98 -108 -124 -254q-9 -58 -13.5 -124.5t-4.5 -197.5v-18q0 -118 -4 -173t-12 -100q-52 -271 -198.5 -417t-367.5 -146q-170 0 -282.5 105.5t-112.5 265.5zM591 1497q0 6 57.5 68t102.5 137q5 5 11.5 7.5t17.5 2.5t14.5 -1t7.5 -5 q34 -63 91 -122t57 -74q0 -10 -6.5 -14.5t-20.5 -4.5q-34 0 -77 47.5t-74 122.5q-41 -77 -87 -128.5t-69 -51.5q-12 0 -18.5 4t-6.5 12z" />
<glyph unicode="&#xcf;" horiz-adv-x="1139" d="M49 328q0 155 98 258.5t244 103.5q59 0 103.5 -15t44.5 -32q0 -5 -3 -8.5t-8 -3.5q-7 0 -51.5 13t-83.5 13q-126 0 -210.5 -93.5t-84.5 -235.5q0 -148 98.5 -242t252.5 -94q207 0 322.5 172.5t158.5 552.5q3 29 9 89q37 365 124 519q-104 -57 -326 -78q-105 -10 -155 -20 q-99 -20 -159.5 -92t-60.5 -170q0 -102 66.5 -168t167.5 -66q104 0 197 78q19 16 24 16q7 0 10.5 -3t3.5 -9q0 -30 -77.5 -72.5t-159.5 -42.5q-118 0 -195 75.5t-77 191.5q0 59 20 114.5t59 104.5q66 80 149 116t236 43q18 1 57 2q152 1 247 37q26 10 53 29t33 19 q7 -1 10.5 -4.5t3.5 -8.5q0 -7 -22 -30q-98 -108 -124 -254q-9 -58 -13.5 -124.5t-4.5 -197.5v-18q0 -118 -4 -173t-12 -100q-52 -271 -198.5 -417t-367.5 -146q-170 0 -282.5 105.5t-112.5 265.5zM618 1577q0 23 15.5 37t41.5 14q31 0 47.5 -13t16.5 -38q0 -24 -17 -37.5 t-47 -13.5q-26 0 -41.5 13.5t-15.5 37.5zM831 1577q0 23 15.5 37t41.5 14q31 0 47.5 -13t16.5 -38q0 -24 -17 -37.5t-47 -13.5q-26 0 -41.5 13.5t-15.5 37.5z" />
<glyph unicode="&#xd0;" horiz-adv-x="1421" d="M-72 150q0 45 43 70.5t119 25.5q61 0 147.5 -30.5t200.5 -92.5q55 59 88.5 158.5t57.5 281.5h-258q-11 0 -17 5t-6 14q0 6 8.5 12t18.5 6h262q30 219 72 347t104 196q40 44 77.5 69t61.5 25q5 0 9 -4t4 -8q0 -6 -40 -33.5t-67 -71.5q-32 -52 -57.5 -154.5t-65.5 -365.5 h275q10 0 16 -5t6 -13q0 -7 -8 -13t-18 -6h-277q-29 -170 -77.5 -283t-121.5 -178q99 -55 175.5 -80.5t142.5 -25.5q208 0 335.5 189.5t127.5 504.5q0 335 -148.5 505.5t-437.5 170.5q-116 0 -218 -38t-183 -111q-60 -54 -93.5 -121t-33.5 -131q0 -94 62.5 -148.5 t170.5 -54.5q61 0 132 23q17 6 22 6t9.5 -5t4.5 -10q0 -18 -50 -33.5t-116 -15.5q-126 0 -206.5 68.5t-80.5 177.5q0 60 25.5 118t73.5 107q97 102 221.5 154.5t269.5 52.5q84 0 162 -17.5t139 -50.5q192 -101 286.5 -271t94.5 -415q0 -150 -41.5 -278t-122.5 -228 q-69 -85 -169.5 -131.5t-217.5 -46.5q-88 0 -176.5 26t-193.5 83q-61 -44 -120.5 -64t-125.5 -20q-120 0 -198.5 45.5t-78.5 112.5zM-31 145q0 -45 67.5 -81.5t160.5 -36.5q61 0 116 17t99 50q-117 61 -196.5 88t-139.5 27q-49 0 -78 -17.5t-29 -46.5z" />
<glyph unicode="&#xd1;" horiz-adv-x="1511" d="M16 272q0 60 21.5 114.5t71.5 117.5q26 34 46 51.5t31 17.5q6 0 8 -2.5t3 -9.5q0 -9 -18 -25q-15 -14 -23 -24q-58 -68 -81.5 -124t-23.5 -120q0 -113 73.5 -187.5t184.5 -74.5q189 0 362 222t318 650l-2 10q-61 263 -61 361q0 85 19.5 125.5t60.5 40.5q40 0 59.5 -48 t19.5 -144q0 -37 -6 -94.5t-18 -131.5q132 -425 174 -567t53 -192q43 533 196.5 850t360.5 317q31 0 49.5 -6t18.5 -17q0 -3 -4 -6.5t-8 -3.5q-6 0 -20.5 2t-22.5 2q-136 0 -265 -206.5t-209 -557.5q-43 -196 -61.5 -397t-28.5 -201q-16 0 -26 44q-4 16 -6 25 q-44 180 -169 510q-57 150 -83 224q-140 -433 -308 -647.5t-368 -214.5q-135 0 -226.5 91t-91.5 226zM977 1329q0 -36 15.5 -107t43.5 -165q9 39 13 81.5t4 94.5q0 63 -13 99t-34 36q-10 0 -19.5 -12t-9.5 -27zM1184 1557q0 34 28.5 65t63.5 31q13 0 26.5 -3t27.5 -9l59 -25 q16 -6 25 -8t16 -2q23 0 41 20.5t25 20.5q4 0 7 -4t3 -13q0 -33 -27 -61.5t-61 -28.5q-8 0 -20.5 3t-25.5 8l-57 22q-19 8 -32 11t-23 3q-24 0 -41.5 -21.5t-26.5 -21.5q-3 0 -5.5 3.5t-2.5 9.5z" />
<glyph unicode="&#xd2;" horiz-adv-x="1126" d="M66 588q0 249 94 439.5t280 315.5q38 25 97.5 45.5t80.5 20.5q7 0 10.5 -3t4.5 -9q0 -9 -59 -36.5t-101 -62.5q-156 -127 -228.5 -309t-72.5 -448q0 -254 101.5 -400.5t273.5 -146.5q193 0 311.5 211.5t118.5 564.5q0 218 -78 347.5t-207 129.5q-158 0 -260 -142.5 t-102 -369.5q0 -84 18.5 -145.5t59.5 -114.5q8 -11 29.5 -29t21.5 -28q0 -5 -4 -8.5t-9 -3.5q-51 0 -111.5 106.5t-60.5 243.5q0 229 119.5 378.5t300.5 149.5q167 0 266 -148t99 -401q0 -350 -143 -565t-373 -215q-95 0 -186 46t-152 126q-72 91 -105.5 203t-33.5 258z M585 1665q0 12 10.5 22.5t24.5 10.5t41 -43.5t51 -71.5q16 -18 46 -39t30 -34q0 -8 -4.5 -11.5t-13.5 -3.5q-38 0 -111.5 65.5t-73.5 104.5z" />
<glyph unicode="&#xd3;" horiz-adv-x="1126" d="M66 588q0 249 94 439.5t280 315.5q38 25 97.5 45.5t80.5 20.5q7 0 10.5 -3t4.5 -9q0 -9 -59 -36.5t-101 -62.5q-156 -127 -228.5 -309t-72.5 -448q0 -254 101.5 -400.5t273.5 -146.5q193 0 311.5 211.5t118.5 564.5q0 218 -78 347.5t-207 129.5q-158 0 -260 -142.5 t-102 -369.5q0 -84 18.5 -145.5t59.5 -114.5q8 -11 29.5 -29t21.5 -28q0 -5 -4 -8.5t-9 -3.5q-51 0 -111.5 106.5t-60.5 243.5q0 229 119.5 378.5t300.5 149.5q167 0 266 -148t99 -401q0 -350 -143 -565t-373 -215q-95 0 -186 46t-152 126q-72 91 -105.5 203t-33.5 258z M532 1512q0 14 41.5 31.5t67.5 37.5q41 31 83 74t52 43q13 0 23 -11t10 -26q0 -10 -10.5 -24t-33.5 -33q-57 -49 -116 -78t-94 -29q-12 0 -17.5 3.5t-5.5 11.5z" />
<glyph unicode="&#xd4;" horiz-adv-x="1126" d="M66 588q0 249 94 439.5t280 315.5q38 25 97.5 45.5t80.5 20.5q7 0 10.5 -3t4.5 -9q0 -9 -59 -36.5t-101 -62.5q-156 -127 -228.5 -309t-72.5 -448q0 -254 101.5 -400.5t273.5 -146.5q193 0 311.5 211.5t118.5 564.5q0 218 -78 347.5t-207 129.5q-158 0 -260 -142.5 t-102 -369.5q0 -84 18.5 -145.5t59.5 -114.5q8 -11 29.5 -29t21.5 -28q0 -5 -4 -8.5t-9 -3.5q-51 0 -111.5 106.5t-60.5 243.5q0 229 119.5 378.5t300.5 149.5q167 0 266 -148t99 -401q0 -350 -143 -565t-373 -215q-95 0 -186 46t-152 126q-72 91 -105.5 203t-33.5 258z M464 1497q0 6 57.5 68t102.5 137q5 5 11.5 7.5t17.5 2.5t14.5 -1t7.5 -5q34 -63 91 -122t57 -74q0 -10 -6.5 -14.5t-20.5 -4.5q-34 0 -77 47.5t-74 122.5q-41 -77 -87 -128.5t-69 -51.5q-12 0 -18.5 4t-6.5 12z" />
<glyph unicode="&#xd5;" horiz-adv-x="1126" d="M66 588q0 249 94 439.5t280 315.5q38 25 97.5 45.5t80.5 20.5q7 0 10.5 -3t4.5 -9q0 -9 -59 -36.5t-101 -62.5q-156 -127 -228.5 -309t-72.5 -448q0 -254 101.5 -400.5t273.5 -146.5q193 0 311.5 211.5t118.5 564.5q0 218 -78 347.5t-207 129.5q-158 0 -260 -142.5 t-102 -369.5q0 -84 18.5 -145.5t59.5 -114.5q8 -11 29.5 -29t21.5 -28q0 -5 -4 -8.5t-9 -3.5q-51 0 -111.5 106.5t-60.5 243.5q0 229 119.5 378.5t300.5 149.5q167 0 266 -148t99 -401q0 -350 -143 -565t-373 -215q-95 0 -186 46t-152 126q-72 91 -105.5 203t-33.5 258z M497 1557q0 34 28.5 65t63.5 31q13 0 26.5 -3t27.5 -9l59 -25q16 -6 25 -8t16 -2q23 0 41 20.5t25 20.5q4 0 7 -4t3 -13q0 -33 -27 -61.5t-61 -28.5q-8 0 -20.5 3t-25.5 8l-57 22q-19 8 -32 11t-23 3q-24 0 -41.5 -21.5t-26.5 -21.5q-3 0 -5.5 3.5t-2.5 9.5z" />
<glyph unicode="&#xd6;" horiz-adv-x="1126" d="M66 588q0 249 94 439.5t280 315.5q38 25 97.5 45.5t80.5 20.5q7 0 10.5 -3t4.5 -9q0 -9 -59 -36.5t-101 -62.5q-156 -127 -228.5 -309t-72.5 -448q0 -254 101.5 -400.5t273.5 -146.5q193 0 311.5 211.5t118.5 564.5q0 218 -78 347.5t-207 129.5q-158 0 -260 -142.5 t-102 -369.5q0 -84 18.5 -145.5t59.5 -114.5q8 -11 29.5 -29t21.5 -28q0 -5 -4 -8.5t-9 -3.5q-51 0 -111.5 106.5t-60.5 243.5q0 229 119.5 378.5t300.5 149.5q167 0 266 -148t99 -401q0 -350 -143 -565t-373 -215q-95 0 -186 46t-152 126q-72 91 -105.5 203t-33.5 258z M491 1577q0 23 15.5 37t41.5 14q31 0 47.5 -13t16.5 -38q0 -24 -17 -37.5t-47 -13.5q-26 0 -41.5 13.5t-15.5 37.5zM704 1577q0 23 15.5 37t41.5 14q31 0 47.5 -13t16.5 -38q0 -24 -17 -37.5t-47 -13.5q-26 0 -41.5 13.5t-15.5 37.5z" />
<glyph unicode="&#xd7;" horiz-adv-x="1706" d="M309 123l488 487l-488 488l58 57l487 -487l487 487l58 -57l-488 -488l488 -487l-58 -57l-487 487l-487 -487z" />
<glyph unicode="&#xd8;" horiz-adv-x="1126" d="M66 588q0 249 94 439.5t280 315.5q38 25 97.5 45.5t80.5 20.5q7 0 10.5 -3t4.5 -9q0 -9 -59 -36.5t-101 -62.5q-156 -127 -227.5 -308t-71.5 -451q0 -149 33 -256t104 -187l525 1100q-35 25 -71 38t-73 13q-158 0 -261 -145.5t-103 -372.5q0 -133 68 -227q12 -16 12 -21 q0 -4 -4 -8t-9 -4q-33 0 -77 86t-44 195q0 229 118.5 381.5t291.5 152.5q46 0 91 -12t83 -35l109 227q4 10 9 14.5t13 4.5q9 0 16 -5.5t7 -13.5q0 -1 -3 -8.5t-8 -15.5l-106 -228q80 -70 122 -192t42 -285q0 -346 -142.5 -563t-363.5 -217q-57 0 -114 17t-115 51l-117 -244 q-7 -15 -12.5 -21t-12.5 -6q-9 0 -15.5 6t-6.5 15q0 3 2.5 9.5t7.5 16.5l119 248q-112 85 -167.5 219t-55.5 322zM344 66q43 -35 95.5 -53.5t109.5 -18.5q194 0 311 215t117 577q0 117 -26.5 210.5t-80.5 164.5z" />
<glyph unicode="&#xd9;" horiz-adv-x="1688" d="M61 829q0 113 42 214.5t118 173.5q70 65 153 100t169 35q169 0 264.5 -116.5t95.5 -324.5q0 -118 -31.5 -333.5t-31.5 -311.5q0 -116 37.5 -177.5t107.5 -61.5q78 0 162.5 97t138.5 255q-1 12 -2 32q-6 83 -6 111q0 359 56 593.5t132 234.5q27 0 40.5 -29.5t13.5 -87.5 q0 -170 -38.5 -361.5t-115.5 -408.5q11 -155 38 -273.5t71 -203.5q18 -33 42.5 -63.5t24.5 -35.5q0 -6 -3.5 -10t-8.5 -4q-37 0 -114.5 129.5t-117.5 302.5q-73 -158 -153.5 -236.5t-167.5 -78.5q-97 0 -159 89t-62 234q0 154 28.5 383.5t28.5 304.5q0 149 -73.5 232.5 t-204.5 83.5q-73 0 -147 -32t-132 -89q-76 -73 -116 -165t-40 -195q0 -138 77 -222t202 -84q83 0 145.5 40.5t108.5 123.5q5 10 13 28q15 34 28 34q6 0 10 -6t4 -15t-8.5 -31t-22.5 -45q-54 -83 -123 -124t-155 -41q-139 0 -228.5 94t-89.5 241zM1077 1665q0 12 10.5 22.5 t24.5 10.5t41 -43.5t51 -71.5q16 -18 46 -39t30 -34q0 -8 -4.5 -11.5t-13.5 -3.5q-38 0 -111.5 65.5t-73.5 104.5zM1362 551q59 192 89 361.5t30 308.5q0 42 -5 62t-16 20q-35 0 -66.5 -213.5t-31.5 -516.5v-22z" />
<glyph unicode="&#xda;" horiz-adv-x="1688" d="M61 829q0 113 42 214.5t118 173.5q70 65 153 100t169 35q169 0 264.5 -116.5t95.5 -324.5q0 -118 -31.5 -333.5t-31.5 -311.5q0 -116 37.5 -177.5t107.5 -61.5q78 0 162.5 97t138.5 255q-1 12 -2 32q-6 83 -6 111q0 359 56 593.5t132 234.5q27 0 40.5 -29.5t13.5 -87.5 q0 -170 -38.5 -361.5t-115.5 -408.5q11 -155 38 -273.5t71 -203.5q18 -33 42.5 -63.5t24.5 -35.5q0 -6 -3.5 -10t-8.5 -4q-37 0 -114.5 129.5t-117.5 302.5q-73 -158 -153.5 -236.5t-167.5 -78.5q-97 0 -159 89t-62 234q0 154 28.5 383.5t28.5 304.5q0 149 -73.5 232.5 t-204.5 83.5q-73 0 -147 -32t-132 -89q-76 -73 -116 -165t-40 -195q0 -138 77 -222t202 -84q83 0 145.5 40.5t108.5 123.5q5 10 13 28q15 34 28 34q6 0 10 -6t4 -15t-8.5 -31t-22.5 -45q-54 -83 -123 -124t-155 -41q-139 0 -228.5 94t-89.5 241zM1024 1512q0 14 41.5 31.5 t67.5 37.5q41 31 83 74t52 43q13 0 23 -11t10 -26q0 -10 -10.5 -24t-33.5 -33q-57 -49 -116 -78t-94 -29q-12 0 -17.5 3.5t-5.5 11.5zM1362 551q59 192 89 361.5t30 308.5q0 42 -5 62t-16 20q-35 0 -66.5 -213.5t-31.5 -516.5v-22z" />
<glyph unicode="&#xdb;" horiz-adv-x="1688" d="M61 829q0 113 42 214.5t118 173.5q70 65 153 100t169 35q169 0 264.5 -116.5t95.5 -324.5q0 -118 -31.5 -333.5t-31.5 -311.5q0 -116 37.5 -177.5t107.5 -61.5q78 0 162.5 97t138.5 255q-1 12 -2 32q-6 83 -6 111q0 359 56 593.5t132 234.5q27 0 40.5 -29.5t13.5 -87.5 q0 -170 -38.5 -361.5t-115.5 -408.5q11 -155 38 -273.5t71 -203.5q18 -33 42.5 -63.5t24.5 -35.5q0 -6 -3.5 -10t-8.5 -4q-37 0 -114.5 129.5t-117.5 302.5q-73 -158 -153.5 -236.5t-167.5 -78.5q-97 0 -159 89t-62 234q0 154 28.5 383.5t28.5 304.5q0 149 -73.5 232.5 t-204.5 83.5q-73 0 -147 -32t-132 -89q-76 -73 -116 -165t-40 -195q0 -138 77 -222t202 -84q83 0 145.5 40.5t108.5 123.5q5 10 13 28q15 34 28 34q6 0 10 -6t4 -15t-8.5 -31t-22.5 -45q-54 -83 -123 -124t-155 -41q-139 0 -228.5 94t-89.5 241zM956 1497q0 6 57.5 68 t102.5 137q5 5 11.5 7.5t17.5 2.5t14.5 -1t7.5 -5q34 -63 91 -122t57 -74q0 -10 -6.5 -14.5t-20.5 -4.5q-34 0 -77 47.5t-74 122.5q-41 -77 -87 -128.5t-69 -51.5q-12 0 -18.5 4t-6.5 12zM1362 551q59 192 89 361.5t30 308.5q0 42 -5 62t-16 20q-35 0 -66.5 -213.5 t-31.5 -516.5v-22z" />
<glyph unicode="&#xdc;" horiz-adv-x="1688" d="M61 829q0 113 42 214.5t118 173.5q70 65 153 100t169 35q169 0 264.5 -116.5t95.5 -324.5q0 -118 -31.5 -333.5t-31.5 -311.5q0 -116 37.5 -177.5t107.5 -61.5q78 0 162.5 97t138.5 255q-1 12 -2 32q-6 83 -6 111q0 359 56 593.5t132 234.5q27 0 40.5 -29.5t13.5 -87.5 q0 -170 -38.5 -361.5t-115.5 -408.5q11 -155 38 -273.5t71 -203.5q18 -33 42.5 -63.5t24.5 -35.5q0 -6 -3.5 -10t-8.5 -4q-37 0 -114.5 129.5t-117.5 302.5q-73 -158 -153.5 -236.5t-167.5 -78.5q-97 0 -159 89t-62 234q0 154 28.5 383.5t28.5 304.5q0 149 -73.5 232.5 t-204.5 83.5q-73 0 -147 -32t-132 -89q-76 -73 -116 -165t-40 -195q0 -138 77 -222t202 -84q83 0 145.5 40.5t108.5 123.5q5 10 13 28q15 34 28 34q6 0 10 -6t4 -15t-8.5 -31t-22.5 -45q-54 -83 -123 -124t-155 -41q-139 0 -228.5 94t-89.5 241zM983 1577q0 23 15.5 37 t41.5 14q31 0 47.5 -13t16.5 -38q0 -24 -17 -37.5t-47 -13.5q-26 0 -41.5 13.5t-15.5 37.5zM1196 1577q0 23 15.5 37t41.5 14q31 0 47.5 -13t16.5 -38q0 -24 -17 -37.5t-47 -13.5q-26 0 -41.5 13.5t-15.5 37.5zM1362 551q59 192 89 361.5t30 308.5q0 42 -5 62t-16 20 q-35 0 -66.5 -213.5t-31.5 -516.5v-22z" />
<glyph unicode="&#xdd;" horiz-adv-x="1479" d="M45 918q0 63 18 127.5t54 128.5q57 103 147.5 162t192.5 59q152 0 241.5 -99.5t89.5 -269.5q0 -35 -6 -91.5t-28 -215.5q-9 -53 -24 -149q-40 -245 -40 -320q0 -87 37 -137t100 -50q73 0 147 80.5t140 231.5q26 397 107.5 671.5t154.5 274.5q14 0 22.5 -18t8.5 -50 q0 -109 -48.5 -299t-135.5 -417q-2 -98 -11.5 -223.5t-27.5 -278.5q18 1 40 1.5t72 0.5q15 0 24 -5t9 -12q0 -10 -7.5 -14t-33.5 -4h-18q-3 0 -33 -2.5t-59 -3.5q-49 -253 -162 -382.5t-285 -129.5q-96 0 -156.5 56t-60.5 145q0 136 149.5 223.5t432.5 116.5q5 56 8.5 120.5 t5.5 144.5q-62 -129 -137 -196t-158 -67q-97 0 -154 75.5t-57 204.5q0 93 45 359t45 436q0 127 -59.5 194.5t-171.5 67.5q-161 0 -267 -128.5t-106 -330.5q0 -139 75 -226t193 -87q83 0 167 50q22 13 28 13t9 -2.5t3 -7.5q0 -24 -66 -54t-141 -30q-139 0 -226 99t-87 258z M553 -319q0 -74 51 -119t135 -45q142 0 235 125t116 348q-250 -19 -393.5 -102.5t-143.5 -206.5zM1014 1512q0 14 41.5 31.5t67.5 37.5q41 31 83 74t52 43q13 0 23 -11t10 -26q0 -10 -10.5 -24t-33.5 -33q-57 -49 -116 -78t-94 -29q-12 0 -17.5 3.5t-5.5 11.5zM1229 641 q64 189 102.5 354t38.5 230q0 13 -3 20.5t-7 7.5q-27 0 -68 -179t-63 -433z" />
<glyph unicode="&#xde;" horiz-adv-x="1399" d="M84 805q0 75 37 145.5t110 134.5q110 98 248.5 146.5t306.5 48.5q70 0 134.5 -6.5t126.5 -20.5q56 80 114 132.5t82 52.5q8 -1 13 -5.5t6 -11.5l-55.5 -54.5t-90.5 -131.5q194 -66 292.5 -175.5t98.5 -256.5q0 -199 -141 -312.5t-391 -113.5h-43q-43 -203 -159 -312.5 t-290 -109.5q-138 0 -228.5 78.5t-90.5 197.5q0 68 38 126.5t68 58.5q7 0 12 -4.5t5 -10.5t-19 -24q-65 -66 -65 -141q0 -105 76 -173.5t194 -68.5q141 0 225 84t131 276q9 38 28 198t44 277q29 134 58.5 224.5t66.5 165.5q-52 13 -107 19.5t-114 6.5q-150 0 -280.5 -43.5 t-225.5 -124.5q-69 -59 -106 -128.5t-37 -141.5q0 -98 66.5 -159.5t172.5 -61.5q101 0 206 61q21 12 26 12q8 0 12 -4t4 -10q0 -25 -82.5 -59.5t-175.5 -34.5q-131 0 -216 72t-85 182zM940 408h31q201 0 318.5 106t117.5 287q0 133 -81.5 236t-227.5 155q-72 -180 -150 -731 z" />
<glyph unicode="&#xdf;" horiz-adv-x="588" d="M-195 -203q0 35 8 56.5t19 21.5q6 0 9 -4.5t3 -13.5q0 -7 -3 -23.5t-3 -26.5q0 -34 19.5 -56.5t48.5 -22.5q72 0 105.5 92t45.5 364l21 471q13 273 68 398t161 125q65 0 103.5 -48t38.5 -129q0 -96 -94 -235h-1l-8 -13q-61 -93 -61 -135q0 -36 28.5 -100t85.5 -158 q66 -105 88.5 -162t22.5 -104q0 -71 -51 -116.5t-131 -45.5q-64 0 -107 38t-43 93q0 57 43 102.5t88 45.5q6 0 9 -2.5t4 -7.5q0 -4 -54.5 -40t-54.5 -87q0 -48 30.5 -78.5t78.5 -30.5q47 0 76.5 31t29.5 82q0 59 -80 211q-13 25 -20 38l-12 23q-87 163 -87 223q0 43 53 149 q13 24 19 38q55 107 73.5 165t18.5 107q0 58 -19.5 88.5t-56.5 30.5q-70 0 -102 -89.5t-45 -371.5l-23 -471q-12 -271 -67 -395.5t-162 -124.5q-52 0 -82.5 26.5t-30.5 71.5z" />
<glyph unicode="&#xe0;" horiz-adv-x="506" d="M12 141q0 165 85 292.5t190 127.5q43 0 67.5 -22t24.5 -62q0 -23 -5 -40t-15 -33q13 -5 18.5 -17t5.5 -39q0 -25 -10.5 -109.5t-10.5 -142.5q0 -46 10 -63t34 -17q42 0 79.5 66t67.5 192q6 25 13 63q10 54 24 54q6 0 10 -5.5t4 -12.5q0 -21 -15.5 -89t-39.5 -139 q-31 -85 -71.5 -128.5t-90.5 -43.5q-44 0 -71 29t-33 82q-17 -62 -54 -97.5t-84 -35.5q-61 0 -97 51t-36 139zM92 92q0 -48 17 -75t47 -27q56 0 92.5 84t48.5 241q-12 -14 -23.5 -22t-19.5 -8t-11 2.5t-3 9.5q0 5 55 65t55 115q0 25 -16.5 39t-46.5 14q-76 0 -135.5 -130.5 t-59.5 -307.5zM207 817q0 12 10.5 22.5t24.5 10.5t41 -43.5t51 -71.5q16 -18 46 -39t30 -34q0 -8 -4.5 -11.5t-13.5 -3.5q-38 0 -111.5 65.5t-73.5 104.5z" />
<glyph unicode="&#xe1;" horiz-adv-x="506" d="M12 141q0 165 85 292.5t190 127.5q43 0 67.5 -22t24.5 -62q0 -23 -5 -40t-15 -33q13 -5 18.5 -17t5.5 -39q0 -25 -10.5 -109.5t-10.5 -142.5q0 -46 10 -63t34 -17q42 0 79.5 66t67.5 192q6 25 13 63q10 54 24 54q6 0 10 -5.5t4 -12.5q0 -21 -15.5 -89t-39.5 -139 q-31 -85 -71.5 -128.5t-90.5 -43.5q-44 0 -71 29t-33 82q-17 -62 -54 -97.5t-84 -35.5q-61 0 -97 51t-36 139zM92 92q0 -48 17 -75t47 -27q56 0 92.5 84t48.5 241q-12 -14 -23.5 -22t-19.5 -8t-11 2.5t-3 9.5q0 5 55 65t55 115q0 25 -16.5 39t-46.5 14q-76 0 -135.5 -130.5 t-59.5 -307.5zM154 664q0 14 41.5 31.5t67.5 37.5q41 31 83 74t52 43q13 0 23 -11t10 -26q0 -10 -10.5 -24t-33.5 -33q-57 -49 -116 -78t-94 -29q-12 0 -17.5 3.5t-5.5 11.5z" />
<glyph unicode="&#xe2;" horiz-adv-x="506" d="M12 141q0 165 85 292.5t190 127.5q43 0 67.5 -22t24.5 -62q0 -23 -5 -40t-15 -33q13 -5 18.5 -17t5.5 -39q0 -25 -10.5 -109.5t-10.5 -142.5q0 -46 10 -63t34 -17q42 0 79.5 66t67.5 192q6 25 13 63q10 54 24 54q6 0 10 -5.5t4 -12.5q0 -21 -15.5 -89t-39.5 -139 q-31 -85 -71.5 -128.5t-90.5 -43.5q-44 0 -71 29t-33 82q-17 -62 -54 -97.5t-84 -35.5q-61 0 -97 51t-36 139zM86 649q0 6 57.5 68t102.5 137q5 5 11.5 7.5t17.5 2.5t14.5 -1t7.5 -5q34 -63 91 -122t57 -74q0 -10 -6.5 -14.5t-20.5 -4.5q-34 0 -77 47.5t-74 122.5 q-41 -77 -87 -128.5t-69 -51.5q-12 0 -18.5 4t-6.5 12zM92 92q0 -48 17 -75t47 -27q56 0 92.5 84t48.5 241q-12 -14 -23.5 -22t-19.5 -8t-11 2.5t-3 9.5q0 5 55 65t55 115q0 25 -16.5 39t-46.5 14q-76 0 -135.5 -130.5t-59.5 -307.5z" />
<glyph unicode="&#xe3;" horiz-adv-x="506" d="M12 141q0 165 85 292.5t190 127.5q43 0 67.5 -22t24.5 -62q0 -23 -5 -40t-15 -33q13 -5 18.5 -17t5.5 -39q0 -25 -10.5 -109.5t-10.5 -142.5q0 -46 10 -63t34 -17q42 0 79.5 66t67.5 192q6 25 13 63q10 54 24 54q6 0 10 -5.5t4 -12.5q0 -21 -15.5 -89t-39.5 -139 q-31 -85 -71.5 -128.5t-90.5 -43.5q-44 0 -71 29t-33 82q-17 -62 -54 -97.5t-84 -35.5q-61 0 -97 51t-36 139zM92 92q0 -48 17 -75t47 -27q56 0 92.5 84t48.5 241q-12 -14 -23.5 -22t-19.5 -8t-11 2.5t-3 9.5q0 5 55 65t55 115q0 25 -16.5 39t-46.5 14q-76 0 -135.5 -130.5 t-59.5 -307.5zM119 709q0 34 28.5 65t63.5 31q13 0 26.5 -3t27.5 -9l59 -25q16 -6 25 -8t16 -2q23 0 41 20.5t25 20.5q4 0 7 -4t3 -13q0 -33 -27 -61.5t-61 -28.5q-8 0 -20.5 3t-25.5 8l-57 22q-19 8 -32 11t-23 3q-24 0 -41.5 -21.5t-26.5 -21.5q-3 0 -5.5 3.5t-2.5 9.5z " />
<glyph unicode="&#xe4;" horiz-adv-x="506" d="M12 141q0 165 85 292.5t190 127.5q43 0 67.5 -22t24.5 -62q0 -23 -5 -40t-15 -33q13 -5 18.5 -17t5.5 -39q0 -25 -10.5 -109.5t-10.5 -142.5q0 -46 10 -63t34 -17q42 0 79.5 66t67.5 192q6 25 13 63q10 54 24 54q6 0 10 -5.5t4 -12.5q0 -21 -15.5 -89t-39.5 -139 q-31 -85 -71.5 -128.5t-90.5 -43.5q-44 0 -71 29t-33 82q-17 -62 -54 -97.5t-84 -35.5q-61 0 -97 51t-36 139zM92 92q0 -48 17 -75t47 -27q56 0 92.5 84t48.5 241q-12 -14 -23.5 -22t-19.5 -8t-11 2.5t-3 9.5q0 5 55 65t55 115q0 25 -16.5 39t-46.5 14q-76 0 -135.5 -130.5 t-59.5 -307.5zM113 729q0 23 15.5 37t41.5 14q31 0 47.5 -13t16.5 -38q0 -24 -17 -37.5t-47 -13.5q-26 0 -41.5 13.5t-15.5 37.5zM326 729q0 23 15.5 37t41.5 14q31 0 47.5 -13t16.5 -38q0 -24 -17 -37.5t-47 -13.5q-26 0 -41.5 13.5t-15.5 37.5z" />
<glyph unicode="&#xe5;" horiz-adv-x="506" d="M12 141q0 165 85 292.5t190 127.5q44 0 70 -22.5t26 -61.5q0 -19 -6 -36.5t-19 -37.5q15 -4 22 -17.5t7 -37.5q0 -25 -12.5 -109.5t-12.5 -142.5q0 -46 10 -63t34 -17q42 0 79.5 66t67.5 192q6 25 13 63q10 54 24 54q6 0 10 -5.5t4 -12.5q0 -21 -15.5 -89t-39.5 -139 q-30 -84 -70.5 -128t-87.5 -44q-46 0 -74 28.5t-34 82.5q-17 -62 -54 -97.5t-84 -35.5q-61 0 -97 51t-36 139zM92 92q0 -48 17 -75t47 -27q56 0 92.5 84t48.5 241q-12 -14 -23.5 -22t-19.5 -8t-11 2.5t-3 9.5q0 5 55 65t55 115q0 25 -16.5 39t-46.5 14q-76 0 -135.5 -130.5 t-59.5 -307.5zM121 762q0 64 44.5 108.5t108.5 44.5q65 0 109.5 -44.5t44.5 -108.5q0 -65 -44.5 -109.5t-109.5 -44.5q-64 0 -108.5 44.5t-44.5 109.5zM168 762q0 -45 31 -76t75 -31q43 0 74 31.5t31 75.5q0 45 -30 75.5t-75 30.5q-46 0 -76 -30t-30 -76z" />
<glyph unicode="&#xe6;" horiz-adv-x="659" d="M12 141q0 165 85 292.5t190 127.5q41 0 67 -20.5t32 -56.5q26 33 58.5 51t63.5 18q37 0 57.5 -25t20.5 -69q0 -75 -56 -164.5t-159 -179.5q0 -60 30 -95.5t80 -35.5q61 0 116 57t89 158q17 53 29.5 118.5t25.5 65.5q8 0 12.5 -5t4.5 -13q0 -28 -14 -87.5t-37 -119.5 q-40 -100 -106.5 -156.5t-143.5 -56.5q-62 0 -106 38.5t-64 110.5q-18 -67 -56 -105t-86 -38q-61 0 -97 51t-36 139zM92 92q0 -48 17 -75t47 -27q56 0 92.5 84t48.5 241q-12 -14 -23.5 -22t-19.5 -8t-11 2.5t-3 9.5q0 5 55 65t55 115q0 25 -16.5 39t-46.5 14 q-76 0 -135.5 -130.5t-59.5 -307.5zM371 162q71 73 115 159t44 146q0 28 -8.5 40.5t-27.5 12.5q-42 0 -74.5 -94t-48.5 -264z" />
<glyph unicode="&#xe7;" horiz-adv-x="461" d="M27 188q0 142 74.5 255.5t162.5 113.5q52 0 84.5 -37.5t32.5 -97.5q0 -66 -29 -110t-71 -44q-29 0 -46.5 21t-17.5 55q0 38 18 73.5t33 35.5q7 0 11 -3t4 -8l-15.5 -33.5t-15.5 -70.5q0 -17 9.5 -28t23.5 -11q27 0 46 34.5t19 88.5q0 47 -21 74.5t-57 27.5 q-63 0 -112 -107.5t-49 -256.5q0 -84 37 -128t108 -44q83 0 149.5 64.5t96.5 174.5q10 39 19 94q9 54 24 54q7 0 10.5 -6t3.5 -19q0 -161 -98 -285t-228 -124q-93 0 -149.5 67t-56.5 180zM75 -322q1 7 5 10t10 3q3 0 29 -8.5t49 -8.5q44 0 72 25.5t28 67.5q0 31 -19 47 t-55 16q-5 0 -13.5 -1t-24.5 -3l24 49q7 1 15 1.5t20 0.5q54 0 86 -30t32 -78q0 -57 -43.5 -92t-113.5 -35q-42 0 -71.5 11t-29.5 25z" />
<glyph unicode="&#xe8;" horiz-adv-x="406" d="M29 170q0 156 69.5 269.5t155.5 113.5q37 0 57.5 -25t20.5 -69q0 -75 -56 -164.5t-159 -179.5q0 -60 30 -95.5t80 -35.5q61 0 116 57t89 158q17 51 30.5 117.5t26.5 66.5q8 0 11.5 -4.5t3.5 -13.5q0 -28 -14 -87.5t-37 -119.5q-40 -100 -106 -156.5t-142 -56.5 q-81 0 -128.5 60.5t-47.5 164.5zM117 162q71 73 115 159t44 146q0 28 -8.5 40.5t-27.5 12.5q-42 0 -74.5 -94t-48.5 -264zM180 817q0 12 10.5 22.5t24.5 10.5t41 -43.5t51 -71.5q16 -18 46 -39t30 -34q0 -8 -4.5 -11.5t-13.5 -3.5q-38 0 -111.5 65.5t-73.5 104.5z" />
<glyph unicode="&#xe9;" horiz-adv-x="406" d="M29 170q0 156 69.5 269.5t155.5 113.5q37 0 57.5 -25t20.5 -69q0 -75 -56 -164.5t-159 -179.5q0 -60 30 -95.5t80 -35.5q61 0 116 57t89 158q17 51 30.5 117.5t26.5 66.5q8 0 11.5 -4.5t3.5 -13.5q0 -28 -14 -87.5t-37 -119.5q-40 -100 -106 -156.5t-142 -56.5 q-81 0 -128.5 60.5t-47.5 164.5zM117 162q71 73 115 159t44 146q0 28 -8.5 40.5t-27.5 12.5q-42 0 -74.5 -94t-48.5 -264zM127 664q0 14 41.5 31.5t67.5 37.5q41 31 83 74t52 43q13 0 23 -11t10 -26q0 -10 -10.5 -24t-33.5 -33q-57 -49 -116 -78t-94 -29q-12 0 -17.5 3.5 t-5.5 11.5z" />
<glyph unicode="&#xea;" horiz-adv-x="406" d="M29 170q0 156 69.5 269.5t155.5 113.5q37 0 57.5 -25t20.5 -69q0 -75 -56 -164.5t-159 -179.5q0 -60 30 -95.5t80 -35.5q61 0 116 57t89 158q17 51 30.5 117.5t26.5 66.5q8 0 11.5 -4.5t3.5 -13.5q0 -28 -14 -87.5t-37 -119.5q-40 -100 -106 -156.5t-142 -56.5 q-81 0 -128.5 60.5t-47.5 164.5zM59 649q0 6 57.5 68t102.5 137q5 5 11.5 7.5t17.5 2.5t14.5 -1t7.5 -5q34 -63 91 -122t57 -74q0 -10 -6.5 -14.5t-20.5 -4.5q-34 0 -77 47.5t-74 122.5q-41 -77 -87 -128.5t-69 -51.5q-12 0 -18.5 4t-6.5 12zM117 162q71 73 115 159t44 146 q0 28 -8.5 40.5t-27.5 12.5q-42 0 -74.5 -94t-48.5 -264z" />
<glyph unicode="&#xeb;" horiz-adv-x="406" d="M29 170q0 156 69.5 269.5t155.5 113.5q37 0 57.5 -25t20.5 -69q0 -75 -56 -164.5t-159 -179.5q0 -60 30 -95.5t80 -35.5q61 0 116 57t89 158q17 51 30.5 117.5t26.5 66.5q8 0 11.5 -4.5t3.5 -13.5q0 -28 -14 -87.5t-37 -119.5q-40 -100 -106 -156.5t-142 -56.5 q-81 0 -128.5 60.5t-47.5 164.5zM86 729q0 23 15.5 37t41.5 14q31 0 47.5 -13t16.5 -38q0 -24 -17 -37.5t-47 -13.5q-26 0 -41.5 13.5t-15.5 37.5zM117 162q71 73 115 159t44 146q0 28 -8.5 40.5t-27.5 12.5q-42 0 -74.5 -94t-48.5 -264zM299 729q0 23 15.5 37t41.5 14 q31 0 47.5 -13t16.5 -38q0 -24 -17 -37.5t-47 -13.5q-26 0 -41.5 13.5t-15.5 37.5z" />
<glyph unicode="&#xec;" horiz-adv-x="307" d="M59 203q0 104 8.5 194.5t14.5 102.5q5 13 12.5 17.5t28.5 4.5q23 0 33 -8.5t10 -28.5q0 -32 -17.5 -150.5t-17.5 -203.5q0 -49 17 -73.5t51 -24.5q56 0 96.5 62t64.5 187q4 19 8 46q8 51 21 51q7 0 10.5 -5t3.5 -14q0 -35 -13 -97t-32 -109q-29 -77 -71.5 -114.5 t-98.5 -37.5q-66 0 -97.5 48.5t-31.5 152.5zM80 817q0 12 10.5 22.5t24.5 10.5t41 -43.5t51 -71.5q16 -18 46 -39t30 -34q0 -8 -4.5 -11.5t-13.5 -3.5q-38 0 -111.5 65.5t-73.5 104.5z" />
<glyph unicode="&#xed;" horiz-adv-x="307" d="M27 664q0 14 41.5 31.5t67.5 37.5q41 31 83 74t52 43q13 0 23 -11t10 -26q0 -10 -10.5 -24t-33.5 -33q-57 -49 -116 -78t-94 -29q-12 0 -17.5 3.5t-5.5 11.5zM59 203q0 104 8.5 194.5t14.5 102.5q5 13 12.5 17.5t28.5 4.5q23 0 33 -8.5t10 -28.5q0 -32 -17.5 -150.5 t-17.5 -203.5q0 -49 17 -73.5t51 -24.5q56 0 96.5 62t64.5 187q4 19 8 46q8 51 21 51q7 0 10.5 -5t3.5 -14q0 -35 -13 -97t-32 -109q-29 -77 -71.5 -114.5t-98.5 -37.5q-66 0 -97.5 48.5t-31.5 152.5z" />
<glyph unicode="&#xee;" horiz-adv-x="307" d="M-41 649q0 6 57.5 68t102.5 137q5 5 11.5 7.5t17.5 2.5t14.5 -1t7.5 -5q34 -63 91 -122t57 -74q0 -10 -6.5 -14.5t-20.5 -4.5q-34 0 -77 47.5t-74 122.5q-41 -77 -87 -128.5t-69 -51.5q-12 0 -18.5 4t-6.5 12zM59 203q0 104 8.5 194.5t14.5 102.5q5 13 12.5 17.5 t28.5 4.5q23 0 33 -8.5t10 -28.5q0 -32 -17.5 -150.5t-17.5 -203.5q0 -49 17 -73.5t51 -24.5q56 0 96.5 62t64.5 187q4 19 8 46q8 51 21 51q7 0 10.5 -5t3.5 -14q0 -35 -13 -97t-32 -109q-29 -77 -71.5 -114.5t-98.5 -37.5q-66 0 -97.5 48.5t-31.5 152.5z" />
<glyph unicode="&#xef;" horiz-adv-x="307" d="M-14 729q0 23 15.5 37t41.5 14q31 0 47.5 -13t16.5 -38q0 -24 -17 -37.5t-47 -13.5q-26 0 -41.5 13.5t-15.5 37.5zM59 203q0 104 8.5 194.5t14.5 102.5q5 13 12.5 17.5t28.5 4.5q23 0 33 -8.5t10 -28.5q0 -32 -17.5 -150.5t-17.5 -203.5q0 -49 17 -73.5t51 -24.5 q56 0 96.5 62t64.5 187q4 19 8 46q8 51 21 51q7 0 10.5 -5t3.5 -14q0 -35 -13 -97t-32 -109q-29 -77 -71.5 -114.5t-98.5 -37.5q-66 0 -97.5 48.5t-31.5 152.5zM199 729q0 23 15.5 37t41.5 14q31 0 47.5 -13t16.5 -38q0 -24 -17 -37.5t-47 -13.5q-26 0 -41.5 13.5 t-15.5 37.5z" />
<glyph unicode="&#xf0;" horiz-adv-x="485" d="M0 799q0 3 5 8t15 10l170 76q-42 99 -94.5 204.5t-52.5 114.5q0 11 4 16t12 5q15 0 61 -73.5t136 -239.5l162 67q7 3 12.5 4.5t7.5 1.5q8 0 12.5 -3t4.5 -9q0 -7 -5 -11.5t-22 -11.5l-158 -67q72 -152 104 -267t32 -218q0 -184 -76 -320.5t-170 -136.5q-63 0 -100 54.5 t-37 148.5q0 164 74.5 278.5t178.5 114.5q11 0 37 -10q5 -2 6 -3q-12 56 -39.5 135t-76.5 197l-172 -76q-5 -2 -8.5 -3t-8.5 -1q-6 0 -10 4.5t-4 10.5zM104 125q0 -69 17 -104t51 -35q70 0 118 108t48 277q0 89 -14 116t-54 27q-73 0 -119.5 -107.5t-46.5 -281.5z" />
<glyph unicode="&#xf1;" horiz-adv-x="526" d="M41 16v15l37 449q2 18 6 25t12 7q18 0 32.5 -46.5t14.5 -111.5q0 -25 -2 -57t-6 -72q43 152 82 209.5t94 57.5q39 0 60.5 -36t21.5 -100q0 -49 -14 -137t-14 -125q0 -31 13.5 -47t39.5 -16q48 0 91 67.5t73 190.5q5 22 10 55q9 51 24 51q6 0 8 -3.5t3 -12.5 q0 -44 -13 -100.5t-36 -112.5q-35 -88 -81.5 -133t-101.5 -45q-53 0 -78.5 34.5t-25.5 104.5q0 38 14 126.5t14 139.5q0 25 -8 38t-22 13q-38 0 -85.5 -106.5t-72.5 -259.5l-14 -84q-2 -10 -11 -16.5t-22 -6.5q-23 0 -33 10t-10 35zM102 709q0 34 28.5 65t63.5 31 q13 0 26.5 -3t27.5 -9l59 -25q16 -6 25 -8t16 -2q23 0 41 20.5t25 20.5q4 0 7 -4t3 -13q0 -33 -27 -61.5t-61 -28.5q-8 0 -20.5 3t-25.5 8l-57 22q-19 8 -32 11t-23 3q-24 0 -41.5 -21.5t-26.5 -21.5q-3 0 -5.5 3.5t-2.5 9.5z" />
<glyph unicode="&#xf2;" horiz-adv-x="418" d="M6 147q0 79 21.5 153t64.5 146q26 44 56.5 76.5t39.5 32.5q8 0 11.5 -3.5t3.5 -10.5q0 -9 -24.5 -42t-39.5 -63q-26 -57 -40.5 -130t-14.5 -148q0 -85 19 -123.5t61 -38.5q46 0 76.5 48.5t46.5 145.5q-75 2 -115.5 41.5t-40.5 110.5t32.5 120.5t76.5 49.5q43 0 67.5 -50 t24.5 -138q0 -21 -6 -77q-2 -13 -2 -20q73 26 131.5 102.5t64.5 76.5q5 -1 7.5 -5t2.5 -10q0 -34 -66 -104.5t-147 -93.5q-19 -124 -63 -187t-111 -63q-63 0 -100 55t-37 149zM159 817q0 12 10.5 22.5t24.5 10.5t41 -43.5t51 -71.5q16 -18 46 -39t30 -34q0 -8 -4.5 -11.5 t-13.5 -3.5q-38 0 -111.5 65.5t-73.5 104.5zM162 348q0 -60 30 -91.5t87 -31.5l14 1q3 24 4.5 46t1.5 41q0 85 -15 125.5t-46 40.5t-53.5 -37.5t-22.5 -93.5z" />
<glyph unicode="&#xf3;" horiz-adv-x="418" d="M6 147q0 79 21.5 153t64.5 146q26 44 56.5 76.5t39.5 32.5q8 0 11.5 -3.5t3.5 -10.5q0 -9 -24.5 -42t-39.5 -63q-26 -57 -40.5 -130t-14.5 -148q0 -85 19 -123.5t61 -38.5q46 0 76.5 48.5t46.5 145.5q-75 2 -115.5 41.5t-40.5 110.5t32.5 120.5t76.5 49.5q43 0 67.5 -50 t24.5 -138q0 -21 -6 -77q-2 -13 -2 -20q73 26 131.5 102.5t64.5 76.5q5 -1 7.5 -5t2.5 -10q0 -34 -66 -104.5t-147 -93.5q-19 -124 -63 -187t-111 -63q-63 0 -100 55t-37 149zM106 664q0 14 41.5 31.5t67.5 37.5q41 31 83 74t52 43q13 0 23 -11t10 -26q0 -10 -10.5 -24 t-33.5 -33q-57 -49 -116 -78t-94 -29q-12 0 -17.5 3.5t-5.5 11.5zM162 348q0 -60 30 -91.5t87 -31.5l14 1q3 24 4.5 46t1.5 41q0 85 -15 125.5t-46 40.5t-53.5 -37.5t-22.5 -93.5z" />
<glyph unicode="&#xf4;" horiz-adv-x="418" d="M6 147q0 79 21.5 153t64.5 146q26 44 56.5 76.5t39.5 32.5q8 0 11.5 -3.5t3.5 -10.5q0 -9 -24.5 -42t-39.5 -63q-26 -57 -40.5 -130t-14.5 -148q0 -85 19 -123.5t61 -38.5q46 0 76.5 48.5t46.5 145.5q-75 2 -115.5 41.5t-40.5 110.5t32.5 120.5t76.5 49.5q43 0 67.5 -50 t24.5 -138q0 -21 -6 -77q-2 -13 -2 -20q73 26 131.5 102.5t64.5 76.5q5 -1 7.5 -5t2.5 -10q0 -34 -66 -104.5t-147 -93.5q-19 -124 -63 -187t-111 -63q-63 0 -100 55t-37 149zM38 649q0 6 57.5 68t102.5 137q5 5 11.5 7.5t17.5 2.5t14.5 -1t7.5 -5q34 -63 91 -122t57 -74 q0 -10 -6.5 -14.5t-20.5 -4.5q-34 0 -77 47.5t-74 122.5q-41 -77 -87 -128.5t-69 -51.5q-12 0 -18.5 4t-6.5 12zM162 348q0 -60 30 -91.5t87 -31.5l14 1q3 24 4.5 46t1.5 41q0 85 -15 125.5t-46 40.5t-53.5 -37.5t-22.5 -93.5z" />
<glyph unicode="&#xf5;" horiz-adv-x="418" d="M6 147q0 79 21.5 153t64.5 146q26 44 56.5 76.5t39.5 32.5q8 0 11.5 -3.5t3.5 -10.5q0 -9 -24.5 -42t-39.5 -63q-26 -57 -40.5 -130t-14.5 -148q0 -85 19 -123.5t61 -38.5q46 0 76.5 48.5t46.5 145.5q-75 2 -115.5 41.5t-40.5 110.5t32.5 120.5t76.5 49.5q43 0 67.5 -50 t24.5 -138q0 -21 -6 -77q-2 -13 -2 -20q73 26 131.5 102.5t64.5 76.5q5 -1 7.5 -5t2.5 -10q0 -34 -66 -104.5t-147 -93.5q-19 -124 -63 -187t-111 -63q-63 0 -100 55t-37 149zM71 709q0 34 28.5 65t63.5 31q13 0 26.5 -3t27.5 -9l59 -25q16 -6 25 -8t16 -2q23 0 41 20.5 t25 20.5q4 0 7 -4t3 -13q0 -33 -27 -61.5t-61 -28.5q-8 0 -20.5 3t-25.5 8l-57 22q-19 8 -32 11t-23 3q-24 0 -41.5 -21.5t-26.5 -21.5q-3 0 -5.5 3.5t-2.5 9.5zM162 348q0 -60 30 -91.5t87 -31.5l14 1q3 24 4.5 46t1.5 41q0 85 -15 125.5t-46 40.5t-53.5 -37.5t-22.5 -93.5 z" />
<glyph unicode="&#xf6;" horiz-adv-x="418" d="M6 147q0 79 21.5 153t64.5 146q26 44 56.5 76.5t39.5 32.5q8 0 11.5 -3.5t3.5 -10.5q0 -9 -24.5 -42t-39.5 -63q-26 -57 -40.5 -130t-14.5 -148q0 -85 19 -123.5t61 -38.5q46 0 76.5 48.5t46.5 145.5q-75 2 -115.5 41.5t-40.5 110.5t32.5 120.5t76.5 49.5q43 0 67.5 -50 t24.5 -138q0 -21 -6 -77q-2 -13 -2 -20q73 26 131.5 102.5t64.5 76.5q5 -1 7.5 -5t2.5 -10q0 -34 -66 -104.5t-147 -93.5q-19 -124 -63 -187t-111 -63q-63 0 -100 55t-37 149zM65 729q0 23 15.5 37t41.5 14q31 0 47.5 -13t16.5 -38q0 -24 -17 -37.5t-47 -13.5 q-26 0 -41.5 13.5t-15.5 37.5zM162 348q0 -60 30 -91.5t87 -31.5l14 1q3 24 4.5 46t1.5 41q0 85 -15 125.5t-46 40.5t-53.5 -37.5t-22.5 -93.5zM278 729q0 23 15.5 37t41.5 14q31 0 47.5 -13t16.5 -38q0 -24 -17 -37.5t-47 -13.5q-26 0 -41.5 13.5t-15.5 37.5z" />
<glyph unicode="&#xf7;" horiz-adv-x="1706" d="M254 569v82h1198v-82h-1198zM756 264q0 41 29 71t69 30q41 0 69.5 -29.5t28.5 -71.5q0 -40 -28.5 -69t-69.5 -29t-69.5 28.5t-28.5 69.5zM756 956q0 41 28.5 70t69.5 29t69.5 -28.5t28.5 -70.5q0 -40 -28.5 -70t-69.5 -30t-69.5 29.5t-28.5 70.5z" />
<glyph unicode="&#xf8;" horiz-adv-x="418" d="M-4 -178q0 5 3 13q0 1 1 3l59 142q-27 25 -40 66.5t-13 100.5q0 78 21.5 153t64.5 146q26 44 56.5 76.5t39.5 32.5q8 0 12.5 -4t4.5 -10q0 -8 -26 -41t-40 -64q-26 -57 -40.5 -132t-14.5 -154q0 -25 3 -48t9 -45l78 174q-22 23 -32.5 49.5t-10.5 61.5q0 71 33 120.5 t78 49.5q13 0 25 -5t22 -15l61 139q5 11 10 15.5t13 4.5q4 0 8 -3.5t4 -8.5q0 -8 -1 -12.5t-3 -8.5l-70 -157q11 -31 16 -63t5 -66q0 -22 -1.5 -47t-4.5 -55q73 23 130.5 99.5t63.5 76.5q5 0 8.5 -4t3.5 -9q0 -34 -66 -105.5t-147 -94.5q-19 -124 -63 -186t-111 -62 q-13 0 -27.5 3.5t-31.5 12.5l-59 -137q-3 -8 -7.5 -12t-11.5 -5q-5 1 -8.5 5t-3.5 10zM115 23q8 -13 20 -20t27 -7q47 0 77 47t48 149q-35 2 -55 7t-33 14zM162 348q0 -27 6.5 -48t19.5 -38l86 196q-9 12 -17.5 16.5t-18.5 4.5q-31 0 -53.5 -37.5t-22.5 -93.5zM211 242 q12 -9 27 -13t38 -4l17 1q3 26 4.5 49.5t1.5 43.5q0 26 -2 49.5t-6 47.5z" />
<glyph unicode="&#xf9;" horiz-adv-x="508" d="M41 123q0 45 8 115t25 163q0 3 1 8q10 54 29 54q25 0 36.5 -10t11.5 -31q0 -7 -18.5 -119t-18.5 -213q0 -30 10 -46.5t29 -16.5q29 0 58.5 48.5t49.5 131.5q13 51 30 132q35 165 79 165q11 0 16.5 -7.5t5.5 -23.5q0 -28 -25.5 -150.5t-25.5 -209.5q0 -43 13 -63.5 t38 -20.5q40 0 84 62t72 163q10 35 20 85q11 56 25 56q7 0 10.5 -5.5t3.5 -16.5q0 -31 -17.5 -98.5t-43.5 -124.5q-37 -78 -81 -118t-93 -40q-53 0 -77 29.5t-28 98.5q-27 -67 -63 -105t-74 -38q-43 0 -66.5 38t-23.5 108zM202 817q0 12 10.5 22.5t24.5 10.5t41 -43.5 t51 -71.5q16 -18 46 -39t30 -34q0 -8 -4.5 -11.5t-13.5 -3.5q-38 0 -111.5 65.5t-73.5 104.5z" />
<glyph unicode="&#xfa;" horiz-adv-x="508" d="M41 123q0 45 8 115t25 163q0 3 1 8q10 54 29 54q25 0 36.5 -10t11.5 -31q0 -7 -18.5 -119t-18.5 -213q0 -30 10 -46.5t29 -16.5q29 0 58.5 48.5t49.5 131.5q13 51 30 132q35 165 79 165q11 0 16.5 -7.5t5.5 -23.5q0 -28 -25.5 -150.5t-25.5 -209.5q0 -43 13 -63.5 t38 -20.5q40 0 84 62t72 163q10 35 20 85q11 56 25 56q7 0 10.5 -5.5t3.5 -16.5q0 -31 -17.5 -98.5t-43.5 -124.5q-37 -78 -81 -118t-93 -40q-53 0 -77 29.5t-28 98.5q-27 -67 -63 -105t-74 -38q-43 0 -66.5 38t-23.5 108zM149 664q0 14 41.5 31.5t67.5 37.5q41 31 83 74 t52 43q13 0 23 -11t10 -26q0 -10 -10.5 -24t-33.5 -33q-57 -49 -116 -78t-94 -29q-12 0 -17.5 3.5t-5.5 11.5z" />
<glyph unicode="&#xfb;" horiz-adv-x="508" d="M41 123q0 45 8 115t25 163q0 3 1 8q10 54 29 54q25 0 36.5 -10t11.5 -31q0 -7 -18.5 -119t-18.5 -213q0 -30 10 -46.5t29 -16.5q29 0 58.5 48.5t49.5 131.5q13 51 30 132q35 165 79 165q11 0 16.5 -7.5t5.5 -23.5q0 -28 -25.5 -150.5t-25.5 -209.5q0 -43 13 -63.5 t38 -20.5q40 0 84 62t72 163q10 35 20 85q11 56 25 56q7 0 10.5 -5.5t3.5 -16.5q0 -31 -17.5 -98.5t-43.5 -124.5q-37 -78 -81 -118t-93 -40q-53 0 -77 29.5t-28 98.5q-27 -67 -63 -105t-74 -38q-43 0 -66.5 38t-23.5 108zM81 649q0 6 57.5 68t102.5 137q5 5 11.5 7.5 t17.5 2.5t14.5 -1t7.5 -5q34 -63 91 -122t57 -74q0 -10 -6.5 -14.5t-20.5 -4.5q-34 0 -77 47.5t-74 122.5q-41 -77 -87 -128.5t-69 -51.5q-12 0 -18.5 4t-6.5 12z" />
<glyph unicode="&#xfc;" horiz-adv-x="508" d="M41 123q0 45 8 115t25 163q0 3 1 8q10 54 29 54q25 0 36.5 -10t11.5 -31q0 -7 -18.5 -119t-18.5 -213q0 -30 10 -46.5t29 -16.5q29 0 58.5 48.5t49.5 131.5q13 51 30 132q35 165 79 165q11 0 16.5 -7.5t5.5 -23.5q0 -28 -25.5 -150.5t-25.5 -209.5q0 -43 13 -63.5 t38 -20.5q40 0 84 62t72 163q10 35 20 85q11 56 25 56q7 0 10.5 -5.5t3.5 -16.5q0 -31 -17.5 -98.5t-43.5 -124.5q-37 -78 -81 -118t-93 -40q-53 0 -77 29.5t-28 98.5q-27 -67 -63 -105t-74 -38q-43 0 -66.5 38t-23.5 108zM108 729q0 23 15.5 37t41.5 14q31 0 47.5 -13 t16.5 -38q0 -24 -17 -37.5t-47 -13.5q-26 0 -41.5 13.5t-15.5 37.5zM321 729q0 23 15.5 37t41.5 14q31 0 47.5 -13t16.5 -38q0 -24 -17 -37.5t-47 -13.5q-26 0 -41.5 13.5t-15.5 37.5z" />
<glyph unicode="&#xfd;" horiz-adv-x="508" d="M51 164q0 165 21 250.5t61 85.5q14 0 22.5 -14t8.5 -37q0 -26 -20.5 -135t-20.5 -191q0 -60 13 -85.5t42 -25.5q47 0 86.5 80t55.5 214l3 27q31 251 93 251q13 0 21.5 -11.5t8.5 -29.5q0 -22 -44 -156.5t-44 -251.5q0 -20 2 -58.5t5 -92.5q24 19 37.5 27.5t19.5 8.5 q7 0 10.5 -3t3.5 -9q0 -12 -34 -38q-23 -19 -37 -31v-13q0 -239 -52 -368t-147 -129q-43 0 -69.5 29t-26.5 75q0 84 58 186t165 203q0 61 -0.5 94t-1.5 63q-23 -50 -54 -77t-69 -27q-54 0 -85.5 50.5t-31.5 138.5zM109 -461q0 -35 15 -56.5t40 -21.5q60 0 94.5 102t34.5 283 v29q-88 -94 -136 -182t-48 -154zM127 664q0 14 41.5 31.5t67.5 37.5q41 31 83 74t52 43q13 0 23 -11t10 -26q0 -10 -10.5 -24t-33.5 -33q-57 -49 -116 -78t-94 -29q-12 0 -17.5 3.5t-5.5 11.5z" />
<glyph unicode="&#xfe;" horiz-adv-x="526" d="M-12 -567q0 4 4 35q34 249 55 552l16 230q11 149 54 478.5t43 490.5q0 23 5 34t15 11q23 0 34 -49t11 -148q0 -90 -22 -275t-68 -473q45 127 87 181.5t93 54.5q65 0 100.5 -54t35.5 -155q0 -161 -70.5 -282t-157.5 -121q-32 0 -56.5 15.5t-39.5 45.5q-22 -294 -54.5 -439 t-76.5 -145q-4 0 -6 3.5t-2 9.5zM131 113q14 35 24 49t19 14q5 0 8.5 -4.5t3.5 -11.5q0 -5 -18 -41t-18 -68q0 -33 20 -55.5t49 -22.5q57 0 103.5 116.5t46.5 277.5q0 71 -17.5 107t-52.5 36q-52 0 -100 -111t-68 -286z" />
<glyph unicode="&#xff;" horiz-adv-x="508" d="M51 164q0 165 21 250.5t61 85.5q14 0 22.5 -14t8.5 -37q0 -26 -20.5 -135t-20.5 -191q0 -60 13 -85.5t42 -25.5q47 0 86.5 80t55.5 214l3 27q31 251 93 251q13 0 21.5 -11.5t8.5 -29.5q0 -22 -44 -156.5t-44 -251.5q0 -20 2 -58.5t5 -92.5q24 19 37.5 27.5t19.5 8.5 q7 0 10.5 -3t3.5 -9q0 -12 -34 -38q-23 -19 -37 -31v-13q0 -239 -52 -368t-147 -129q-43 0 -69.5 29t-26.5 75q0 84 58 186t165 203q0 61 -0.5 94t-1.5 63q-23 -50 -54 -77t-69 -27q-54 0 -85.5 50.5t-31.5 138.5zM86 729q0 23 15.5 37t41.5 14q31 0 47.5 -13t16.5 -38 q0 -24 -17 -37.5t-47 -13.5q-26 0 -41.5 13.5t-15.5 37.5zM109 -461q0 -35 15 -56.5t40 -21.5q60 0 94.5 102t34.5 283v29q-88 -94 -136 -182t-48 -154zM299 729q0 23 15.5 37t41.5 14q31 0 47.5 -13t16.5 -38q0 -24 -17 -37.5t-47 -13.5q-26 0 -41.5 13.5t-15.5 37.5z" />
<glyph unicode="&#x152;" horiz-adv-x="2058" d="M66 588q0 249 94 439.5t280 315.5q38 25 97.5 45.5t80.5 20.5q7 0 10.5 -3t4.5 -9q0 -9 -59 -36.5t-101 -62.5q-156 -127 -228.5 -309t-72.5 -448q0 -254 101.5 -400.5t273.5 -146.5q193 0 311.5 211.5t118.5 564.5q0 218 -78 347.5t-207 129.5q-158 0 -260 -142.5 t-102 -369.5q0 -84 18.5 -145.5t59.5 -114.5q8 -11 29.5 -29t21.5 -28q0 -5 -4 -8.5t-9 -3.5q-51 0 -111.5 106.5t-60.5 243.5q0 229 119.5 378.5t300.5 149.5q168 0 265.5 -147.5t97.5 -405.5q0 -36 -0.5 -54.5t-1.5 -34.5q43 39 90.5 70.5t103.5 57.5q-69 47 -102 102.5 t-33 122.5q0 160 157 271.5t392 111.5q171 0 273 -65t102 -172q0 -97 -86 -167.5t-207 -70.5q-84 0 -153.5 44t-69.5 81q0 6 4 10t10 4q12 0 30 -22q6 -7 9 -10q37 -41 79 -57.5t105 -16.5q92 0 159 58.5t67 138.5q0 99 -85.5 154.5t-236.5 55.5q-210 0 -333.5 -102 t-123.5 -272q0 -54 24 -100t68 -76q65 17 124.5 25.5t113.5 8.5q86 0 136 -16.5t50 -44.5q0 -29 -60 -48.5t-157 -19.5q-50 0 -104.5 12t-112.5 35q-131 -54 -203.5 -159t-72.5 -240q0 -156 104 -249t281 -93q111 0 211 35t176 100q57 50 88 106t31 111q0 65 -39 107.5 t-99 42.5q-18 0 -43.5 -6t-31.5 -6t-9.5 4.5t-3.5 9.5q0 14 25 23.5t63 9.5q80 0 129.5 -50t49.5 -131q0 -157 -166.5 -275t-403.5 -118q-160 0 -270 61.5t-166 182.5q-66 -126 -166 -191t-229 -65q-94 0 -185.5 46.5t-152.5 125.5q-72 91 -105.5 203t-33.5 258zM1348 768 q33 -18 79 -26.5t113 -8.5q59 0 96 9.5t37 23.5q0 12 -35 20.5t-92 8.5q-51 0 -100 -7t-98 -20z" />
<glyph unicode="&#x153;" horiz-adv-x="651" d="M6 147q0 79 21.5 153t64.5 146q26 44 56.5 76.5t39.5 32.5q8 0 11.5 -3.5t3.5 -10.5q0 -9 -24.5 -42t-39.5 -63q-26 -57 -40.5 -130t-14.5 -148q0 -85 19 -123.5t61 -38.5t73.5 45.5t42.5 126.5q-68 3 -108.5 49t-40.5 123q0 72 32 122t77 50q32 0 55.5 -29.5t32.5 -81.5 q33 71 79.5 111.5t92.5 40.5q37 0 57.5 -25t20.5 -69q0 -92 -63.5 -176t-151.5 -105q-2 -7 -2.5 -14t-0.5 -23q0 -77 29 -117t84 -40q62 0 117.5 57.5t89.5 157.5q17 53 29.5 118.5t25.5 65.5q8 0 11.5 -4.5t3.5 -13.5q0 -31 -13.5 -89.5t-36.5 -117.5q-39 -99 -106.5 -157 t-142.5 -58q-60 0 -104.5 36t-57.5 95q-27 -68 -62.5 -99.5t-83.5 -31.5q-63 0 -100 55t-37 149zM162 336q0 -62 34.5 -101t92.5 -42q6 53 8 80.5t2 45.5q0 82 -15 121t-46 39q-34 0 -55 -39.5t-21 -103.5zM371 209q59 25 105 105t46 153q0 28 -8.5 40.5t-28.5 12.5 q-39 0 -68.5 -80t-45.5 -231z" />
<glyph unicode="&#x178;" horiz-adv-x="1479" d="M45 918q0 63 18 127.5t54 128.5q57 103 147.5 162t192.5 59q152 0 241.5 -99.5t89.5 -269.5q0 -35 -6 -91.5t-28 -215.5q-9 -53 -24 -149q-40 -245 -40 -320q0 -87 37 -137t100 -50q73 0 147 80.5t140 231.5q26 397 107.5 671.5t154.5 274.5q14 0 22.5 -18t8.5 -50 q0 -109 -48.5 -299t-135.5 -417q-2 -98 -11.5 -223.5t-27.5 -278.5q18 1 40 1.5t72 0.5q15 0 24 -5t9 -12q0 -10 -7.5 -14t-33.5 -4h-18q-3 0 -33 -2.5t-59 -3.5q-49 -253 -162 -382.5t-285 -129.5q-96 0 -156.5 56t-60.5 145q0 136 149.5 223.5t432.5 116.5q5 56 8.5 120.5 t5.5 144.5q-62 -129 -137 -196t-158 -67q-97 0 -154 75.5t-57 204.5q0 93 45 359t45 436q0 127 -59.5 194.5t-171.5 67.5q-161 0 -267 -128.5t-106 -330.5q0 -139 75 -226t193 -87q83 0 167 50q22 13 28 13t9 -2.5t3 -7.5q0 -24 -66 -54t-141 -30q-139 0 -226 99t-87 258z M553 -319q0 -74 51 -119t135 -45q142 0 235 125t116 348q-250 -19 -393.5 -102.5t-143.5 -206.5zM973 1577q0 23 15.5 37t41.5 14q31 0 47.5 -13t16.5 -38q0 -24 -17 -37.5t-47 -13.5q-26 0 -41.5 13.5t-15.5 37.5zM1186 1577q0 23 15.5 37t41.5 14q31 0 47.5 -13t16.5 -38 q0 -24 -17 -37.5t-47 -13.5q-26 0 -41.5 13.5t-15.5 37.5zM1229 641q64 189 102.5 354t38.5 230q0 13 -3 20.5t-7 7.5q-27 0 -68 -179t-63 -433z" />
<glyph unicode="&#x2c6;" d="M317 649q0 6 57.5 68t102.5 137q5 5 11.5 7.5t17.5 2.5t14.5 -1t7.5 -5q34 -63 91 -122t57 -74q0 -10 -6.5 -14.5t-20.5 -4.5q-34 0 -77 47.5t-74 122.5q-41 -77 -87 -128.5t-69 -51.5q-12 0 -18.5 4t-6.5 12z" />
<glyph unicode="&#x2dc;" d="M350 709q0 34 28.5 65t63.5 31q13 0 26.5 -3t27.5 -9l59 -25q16 -6 25 -8t16 -2q23 0 41 20.5t25 20.5q4 0 7 -4t3 -13q0 -33 -27 -61.5t-61 -28.5q-8 0 -20.5 3t-25.5 8l-57 22q-19 8 -32 11t-23 3q-24 0 -41.5 -21.5t-26.5 -21.5q-3 0 -5.5 3.5t-2.5 9.5z" />
<glyph unicode="&#x2000;" horiz-adv-x="897" />
<glyph unicode="&#x2001;" horiz-adv-x="1794" />
<glyph unicode="&#x2002;" horiz-adv-x="897" />
<glyph unicode="&#x2003;" horiz-adv-x="1794" />
<glyph unicode="&#x2004;" horiz-adv-x="598" />
<glyph unicode="&#x2005;" horiz-adv-x="448" />
<glyph unicode="&#x2006;" horiz-adv-x="299" />
<glyph unicode="&#x2007;" horiz-adv-x="299" />
<glyph unicode="&#x2008;" horiz-adv-x="224" />
<glyph unicode="&#x2009;" horiz-adv-x="358" />
<glyph unicode="&#x200a;" horiz-adv-x="99" />
<glyph unicode="&#x2010;" horiz-adv-x="592" d="M147 276q1 2 1.5 4t1.5 5l4 19q3 12 8 15.5t22 4.5h285q10 0 15 -3.5t5 -11.5v-4l-2 -23q-1 -10 -6 -14t-18 -4h-295q-11 0 -15.5 3t-5.5 9z" />
<glyph unicode="&#x2011;" horiz-adv-x="592" d="M147 276q1 2 1.5 4t1.5 5l4 19q3 12 8 15.5t22 4.5h285q10 0 15 -3.5t5 -11.5v-4l-2 -23q-1 -10 -6 -14t-18 -4h-295q-11 0 -15.5 3t-5.5 9z" />
<glyph unicode="&#x2012;" horiz-adv-x="592" d="M147 276q1 2 1.5 4t1.5 5l4 19q3 12 8 15.5t22 4.5h285q10 0 15 -3.5t5 -11.5v-4l-2 -23q-1 -10 -6 -14t-18 -4h-295q-11 0 -15.5 3t-5.5 9z" />
<glyph unicode="&#x2013;" d="M-2 279q0 1 1 4t1 4l4 14q3 9 9.5 12.5t23.5 3.5h967q11 0 15.5 -2.5t4.5 -7.5v-4l-2 -18q-2 -9 -6 -12t-19 -3h-979q-10 0 -15 2t-5 7z" />
<glyph unicode="&#x2014;" horiz-adv-x="2048" d="M-35 270l15 47h2048l-15 -47h-2048z" />
<glyph unicode="&#x2018;" horiz-adv-x="342" d="M139 1163q0 51 37.5 95.5t71.5 44.5q9 0 13.5 -3t4.5 -8q0 -3 -30.5 -28t-30.5 -60v-8q6 2 12 3t16 1q29 0 46.5 -17t17.5 -44q0 -30 -22 -51t-54 -21q-35 0 -58.5 27.5t-23.5 68.5z" />
<glyph unicode="&#x2019;" horiz-adv-x="342" d="M139 1233q0 29 22 49.5t54 20.5q36 0 59 -27t23 -68q0 -50 -37.5 -94.5t-71.5 -44.5q-9 0 -13.5 2.5t-4.5 7.5q0 3 30.5 28t30.5 60v8q-8 -3 -15.5 -4.5t-14.5 -1.5q-28 0 -45 18t-17 46z" />
<glyph unicode="&#x201a;" horiz-adv-x="342" d="M92 37q0 30 21 49.5t53 19.5q36 0 60 -26.5t24 -67.5q0 -50 -38 -95.5t-71 -45.5q-8 0 -13 3t-5 9q0 3 30.5 28t30.5 60v8q-8 -2 -16.5 -4t-13.5 -2q-28 0 -45 18t-17 46z" />
<glyph unicode="&#x201c;" horiz-adv-x="592" d="M139 1163q0 51 37.5 95.5t71.5 44.5q9 0 13.5 -3t4.5 -8q0 -7 -13 -15t-19 -13q-15 -13 -22 -27t-7 -29v-12q6 2 12 3t16 1q29 0 46.5 -17t17.5 -44q0 -30 -22 -51t-54 -21q-35 0 -58.5 27.5t-23.5 68.5zM387 1163q0 50 38.5 95t72.5 45q7 0 11.5 -3t4.5 -8 q0 -3 -30.5 -28t-30.5 -60v-8q6 2 12.5 3t17.5 1q28 0 46 -17t18 -44q0 -30 -22 -51t-54 -21q-36 0 -60 27.5t-24 68.5z" />
<glyph unicode="&#x201d;" horiz-adv-x="592" d="M139 1233q0 29 22 49.5t54 20.5q36 0 59 -27t23 -68q0 -50 -37.5 -94.5t-71.5 -44.5q-9 0 -13.5 2.5t-4.5 7.5q0 3 30.5 28t30.5 60v8q-8 -3 -15.5 -4.5t-14.5 -1.5q-28 0 -45 18t-17 46zM389 1233q0 30 21 50t53 20q36 0 60 -27t24 -68q0 -50 -37.5 -94.5t-71.5 -44.5 q-10 0 -14 2.5t-4 7.5q0 3 30.5 28t30.5 60v8q-8 -3 -15.5 -4.5t-14.5 -1.5q-28 0 -45 18t-17 46z" />
<glyph unicode="&#x201e;" horiz-adv-x="592" d="M92 37q0 30 21 49.5t53 19.5q36 0 60 -26.5t24 -67.5q0 -50 -38 -95.5t-71 -45.5q-8 0 -13 3t-5 9q0 3 30.5 28t30.5 60v8q-8 -2 -16.5 -4t-13.5 -2q-28 0 -45 18t-17 46zM342 37q0 29 22 49t54 20q36 0 60 -26.5t24 -67.5q0 -50 -38 -95.5t-71 -45.5q-9 0 -13.5 3 t-4.5 9q0 3 30.5 28t30.5 60v8q-8 -2 -16.5 -4t-13.5 -2q-28 0 -46 18t-18 46z" />
<glyph unicode="&#x2022;" horiz-adv-x="1208" d="M307 762q0 123 87 209t210 86q122 0 208.5 -86.5t86.5 -208.5t-87.5 -209.5t-209.5 -87.5q-123 0 -209 87t-86 210z" />
<glyph unicode="&#x2026;" horiz-adv-x="2048" d="M268 41q0 29 21 49.5t49 20.5q29 0 48.5 -20.5t19.5 -49.5q0 -28 -19.5 -48t-48.5 -20q-28 0 -49 20.5t-21 47.5zM950 41q0 29 21 49.5t49 20.5q29 0 48.5 -20.5t19.5 -49.5q0 -28 -19.5 -48t-48.5 -20q-28 0 -49 20.5t-21 47.5zM1634 41q0 29 21 49.5t49 20.5 q29 0 48.5 -20.5t19.5 -49.5q0 -28 -19.5 -48t-48.5 -20q-28 0 -49 20.5t-21 47.5z" />
<glyph unicode="&#x202f;" horiz-adv-x="358" />
<glyph unicode="&#x2039;" horiz-adv-x="510" d="M154 250q0 13 46 47q25 19 40 31q48 38 96.5 89.5t58.5 51.5q9 0 14 -5.5t5 -14.5q0 -27 -55 -82.5t-146 -118.5q72 -46 119 -102t47 -87q0 -9 -6.5 -15.5t-14.5 -6.5q-11 0 -45.5 42t-62.5 71q-19 19 -52 47q-44 37 -44 53z" />
<glyph unicode="&#x203a;" horiz-adv-x="510" d="M154 57q0 27 54 82.5t144 118.5q-71 44 -117.5 100t-46.5 88q0 11 5.5 17t13.5 6q12 0 47.5 -42.5t62.5 -70.5q18 -17 49 -44q46 -40 46 -56q0 -13 -47 -48q-25 -18 -39 -30q-49 -38 -97.5 -89.5t-58.5 -51.5q-8 0 -12 5t-4 15z" />
<glyph unicode="&#x205f;" horiz-adv-x="448" />
<glyph unicode="&#x20ac;" horiz-adv-x="682" d="M2 326q0 5 8 9.5t19 4.5h65v27q0 27 2.5 56t7.5 62h-79q-11 0 -17 4t-6 11q0 4 8 8t19 4h82q36 178 129 283.5t211 105.5q82 0 135 -48t53 -122q0 -67 -41.5 -112.5t-103.5 -45.5q-49 0 -81 30.5t-32 76.5q0 39 28 76t52 37q5 -1 6.5 -2.5t1.5 -4.5q0 -2 -11 -14 q-42 -42 -42 -86q0 -37 23 -59.5t61 -22.5q45 0 73.5 35t28.5 90q0 64 -40 102.5t-105 38.5q-99 0 -163.5 -93.5t-82.5 -264.5h248q10 0 16 -3t6 -9t-8 -10.5t-18 -4.5h-248q-4 -34 -6 -70t-2 -75h202q11 0 17 -4t6 -10q0 -5 -8 -9t-19 -4h-198q5 -159 55 -239t145 -80 q87 0 144.5 61.5t81.5 180.5q2 13 6 36q7 45 20 45q9 0 13 -5t4 -13q0 -136 -80 -237t-199 -101q-118 0 -197 94.5t-96 257.5h-71q-11 0 -17 3.5t-6 9.5z" />
<glyph unicode="&#x2122;" horiz-adv-x="1683" d="M254 1257l10 175h436l11 -175h-23q-8 81 -41.5 116.5t-101.5 35.5h-23v-426q0 -24 14 -39.5t35 -15.5h31v-25h-242v25h33q22 0 35.5 15.5t13.5 39.5v426h-22q-69 0 -102.5 -35.5t-41.5 -116.5h-22zM801 903v23h30q22 0 36 15.5t14 41.5v367q0 24 -14 40.5t-36 16.5h-30 v25h170l145 -414l158 414h162v-25h-31q-22 0 -35.5 -15t-13.5 -40v-369q0 -24 13.5 -39.5t35.5 -15.5h31v-25h-228v25h31q22 0 35.5 15.5t13.5 39.5v406l-186 -490h-8l-174 487v-403q0 -24 13.5 -39.5t35.5 -15.5h30v-25h-198z" />
<glyph unicode="&#x25fc;" horiz-adv-x="575" d="M0 0v575h575v-575h-575z" />
</font>
</defs>
</svg>
